<svg width="1440" height="809" viewBox="0 0 1440 809" fill="none" xmlns="http://www.w3.org/2000/svg">
<g clip-path="url(#clip0_443_9895)">
<path d="M289 85C277.402 85 268 75.598 268 64V64C268 52.402 277.402 43 289 43V43C300.598 43 310 52.402 310 64V64C310 75.598 300.598 85 289 85V85Z" fill="#74B7C9"/>
<path d="M334 85C322.402 85 313 75.598 313 64V64C313 52.402 322.402 43 334 43V43C345.598 43 355 52.402 355 64V64C355 75.598 345.598 85 334 85V85Z" fill="#74B7C9"/>
<path d="M244 40C232.402 40 223 30.598 223 19V19C223 7.40202 232.402 -2 244 -2V-2C255.598 -2 265 7.40202 265 19V19C265 30.598 255.598 40 244 40V40Z" fill="#74B7C9"/>
<path d="M289 40C277.402 40 268 30.598 268 19V19C268 7.40202 277.402 -2 289 -2V-2C300.598 -2 310 7.40202 310 19V19C310 30.598 300.598 40 289 40V40Z" fill="#74B7C9"/>
<path d="M379 130C367.402 130 358 120.598 358 109V109C358 97.402 367.402 88 379 88V88C390.598 88 400 97.402 400 109V109C400 120.598 390.598 130 379 130V130Z" fill="#74B7C9"/>
<path d="M334 130C322.402 130 313 120.598 313 109V109C313 97.402 322.402 88 334 88V88C345.598 88 355 97.402 355 109V109C355 120.598 345.598 130 334 130V130Z" fill="#74B7C9"/>
<path d="M157 85C145.402 85 136 75.598 136 64V64C136 52.402 145.402 43 157 43V43C168.598 43 178 52.402 178 64V64C178 75.598 168.598 85 157 85V85Z" fill="#74B7C9"/>
<path d="M25 85C13.402 85 4 75.598 4 64V64C4 52.402 13.402 43 25 43V43C36.598 43 46 52.402 46 64V64C46 75.598 36.598 85 25 85V85Z" fill="#74B7C9"/>
<path d="M202 85C190.402 85 181 75.598 181 64V64C181 52.402 190.402 43 202 43V43C213.598 43 223 52.402 223 64V64C223 75.598 213.598 85 202 85V85Z" fill="#74B7C9"/>
<path d="M70 85C58.402 85 49 75.598 49 64V64C49 52.402 58.402 43 70 43V43C81.598 43 91 52.402 91 64V64C91 75.598 81.598 85 70 85V85Z" fill="#74B7C9"/>
<path d="M112 40C100.402 40 91 30.598 91 19V19C91 7.40202 100.402 -2 112 -2V-2C123.598 -2 133 7.40202 133 19V19C133 30.598 123.598 40 112 40V40Z" fill="#74B7C9"/>
<path d="M-20 40C-31.598 40 -41 30.598 -41 19V19C-41 7.40202 -31.598 -2 -20 -2V-2C-8.40202 -2 0.999999 7.40202 0.999999 19V19C0.999999 30.598 -8.40202 40 -20 40V40Z" fill="#74B7C9"/>
<path d="M157 40C145.402 40 136 30.598 136 19V19C136 7.40202 145.402 -2 157 -2V-2C168.598 -2 178 7.40202 178 19V19C178 30.598 168.598 40 157 40V40Z" fill="#74B7C9"/>
<path d="M25 40C13.402 40 4 30.598 4 19V19C4 7.40202 13.402 -2 25 -2V-2C36.598 -2 46 7.40202 46 19V19C46 30.598 36.598 40 25 40V40Z" fill="#74B7C9"/>
<path d="M247 130C235.402 130 226 120.598 226 109V109C226 97.402 235.402 88 247 88V88C258.598 88 268 97.402 268 109V109C268 120.598 258.598 130 247 130V130Z" fill="#74B7C9"/>
<path d="M115 130C103.402 130 94 120.598 94 109V109C94 97.402 103.402 88 115 88V88C126.598 88 136 97.402 136 109V109C136 120.598 126.598 130 115 130V130Z" fill="#74B7C9"/>
<path d="M-17 130C-28.598 130 -38 120.598 -38 109V109C-38 97.402 -28.598 88 -17 88V88C-5.40202 88 4 97.402 4 109V109C4 120.598 -5.40202 130 -17 130V130Z" fill="#74B7C9"/>
<path d="M202 130C190.402 130 181 120.598 181 109V109C181 97.402 190.402 88 202 88V88C213.598 88 223 97.402 223 109V109C223 120.598 213.598 130 202 130V130Z" fill="#74B7C9"/>
<path d="M70 130C58.402 130 49 120.598 49 109V109C49 97.402 58.402 88 70 88V88C81.598 88 91 97.402 91 109V109C91 120.598 81.598 130 70 130V130Z" fill="#74B7C9"/>
<path d="M70 358C81.598 358 91 348.598 91 337V337C91 325.402 81.598 316 70 316V316C58.402 316 49 325.402 49 337V337C49 348.598 58.402 358 70 358V358Z" fill="#74B7C9"/>
<path d="M202 358C213.598 358 223 348.598 223 337V337C223 325.402 213.598 316 202 316V316C190.402 316 181 325.402 181 337V337C181 348.598 190.402 358 202 358V358Z" fill="#74B7C9"/>
<path d="M334 358C345.598 358 355 348.598 355 337V337C355 325.402 345.598 316 334 316V316C322.402 316 313 325.402 313 337V337C313 348.598 322.402 358 334 358V358Z" fill="#74B7C9"/>
<path d="M25 358C36.598 358 46 348.598 46 337V337C46 325.402 36.598 316 25 316V316C13.402 316 4 325.402 4 337V337C4 348.598 13.402 358 25 358V358Z" fill="#74B7C9"/>
<path d="M157 358C168.598 358 178 348.598 178 337V337C178 325.402 168.598 316 157 316V316C145.402 316 136 325.402 136 337V337C136 348.598 145.402 358 157 358V358Z" fill="#74B7C9"/>
<path d="M289 358C300.598 358 310 348.598 310 337V337C310 325.402 300.598 316 289 316V316C277.402 316 268 325.402 268 337V337C268 348.598 277.402 358 289 358V358Z" fill="#74B7C9"/>
<path d="M-17 313C-5.40202 313 4 303.598 4 292V292C4 280.402 -5.40202 271 -17 271V271C-28.598 271 -38 280.402 -38 292V292C-38 303.598 -28.598 313 -17 313V313Z" fill="#74B7C9"/>
<path d="M115 313C126.598 313 136 303.598 136 292V292C136 280.402 126.598 271 115 271V271C103.402 271 94 280.402 94 292V292C94 303.598 103.402 313 115 313V313Z" fill="#74B7C9"/>
<path d="M247 313C258.598 313 268 303.598 268 292V292C268 280.402 258.598 271 247 271V271C235.402 271 226 280.402 226 292V292C226 303.598 235.402 313 247 313V313Z" fill="#74B7C9"/>
<path d="M379 313C390.598 313 400 303.598 400 292V292C400 280.402 390.598 271 379 271V271C367.402 271 358 280.402 358 292V292C358 303.598 367.402 313 379 313V313Z" fill="#74B7C9"/>
<path d="M70 313C81.598 313 91 303.598 91 292V292C91 280.402 81.598 271 70 271V271C58.402 271 49 280.402 49 292V292C49 303.598 58.402 313 70 313V313Z" fill="#74B7C9"/>
<path d="M202 313C213.598 313 223 303.598 223 292V292C223 280.402 213.598 271 202 271V271C190.402 271 181 280.402 181 292V292C181 303.598 190.402 313 202 313V313Z" fill="#74B7C9"/>
<path d="M334 313C345.598 313 355 303.598 355 292V292C355 280.402 345.598 271 334 271V271C322.402 271 313 280.402 313 292V292C313 303.598 322.402 313 334 313V313Z" fill="#74B7C9"/>
<path d="M-20 403C-8.40202 403 1 393.598 1 382V382C1 370.402 -8.40202 361 -20 361V361C-31.598 361 -41 370.402 -41 382V382C-41 393.598 -31.598 403 -20 403V403Z" fill="#74B7C9"/>
<path d="M112 403C123.598 403 133 393.598 133 382V382C133 370.402 123.598 361 112 361V361C100.402 361 91 370.402 91 382V382C91 393.598 100.402 403 112 403V403Z" fill="#74B7C9"/>
<path d="M244 403C255.598 403 265 393.598 265 382V382C265 370.402 255.598 361 244 361V361C232.402 361 223 370.402 223 382V382C223 393.598 232.402 403 244 403V403Z" fill="#74B7C9"/>
<path d="M25 403C36.598 403 46 393.598 46 382V382C46 370.402 36.598 361 25 361V361C13.402 361 4 370.402 4 382V382C4 393.598 13.402 403 25 403V403Z" fill="#74B7C9"/>
<path d="M157 403C168.598 403 178 393.598 178 382V382C178 370.402 168.598 361 157 361V361C145.402 361 136 370.402 136 382V382C136 393.598 145.402 403 157 403V403Z" fill="#74B7C9"/>
<path d="M289 403C300.598 403 310 393.598 310 382V382C310 370.402 300.598 361 289 361V361C277.402 361 268 370.402 268 382V382C268 393.598 277.402 403 289 403V403Z" fill="#74B7C9"/>
<path d="M70 178C81.598 178 91 187.402 91 199V199C91 210.598 81.598 220 70 220V220C58.402 220 49 210.598 49 199V199C49 187.402 58.402 178 70 178V178Z" fill="#74B7C9"/>
<path d="M202 178C213.598 178 223 187.402 223 199V199C223 210.598 213.598 220 202 220V220C190.402 220 181 210.598 181 199V199C181 187.402 190.402 178 202 178V178Z" fill="#74B7C9"/>
<path d="M334 178C345.598 178 355 187.402 355 199V199C355 210.598 345.598 220 334 220V220C322.402 220 313 210.598 313 199V199C313 187.402 322.402 178 334 178V178Z" fill="#74B7C9"/>
<path d="M25 178C36.598 178 46 187.402 46 199V199C46 210.598 36.598 220 25 220V220C13.402 220 4 210.598 4 199V199C4 187.402 13.402 178 25 178V178Z" fill="#74B7C9"/>
<path d="M157 178C168.598 178 178 187.402 178 199V199C178 210.598 168.598 220 157 220V220C145.402 220 136 210.598 136 199V199C136 187.402 145.402 178 157 178V178Z" fill="#74B7C9"/>
<path d="M289 178C300.598 178 310 187.402 310 199V199C310 210.598 300.598 220 289 220V220C277.402 220 268 210.598 268 199V199C268 187.402 277.402 178 289 178V178Z" fill="#74B7C9"/>
<path d="M-17 223C-5.40202 223 4 232.402 4 244V244C4 255.598 -5.40202 265 -17 265V265C-28.598 265 -38 255.598 -38 244V244C-38 232.402 -28.598 223 -17 223V223Z" fill="#74B7C9"/>
<path d="M115 223C126.598 223 136 232.402 136 244V244C136 255.598 126.598 265 115 265V265C103.402 265 94 255.598 94 244V244C94 232.402 103.402 223 115 223V223Z" fill="#74B7C9"/>
<path d="M247 223C258.598 223 268 232.402 268 244V244C268 255.598 258.598 265 247 265V265C235.402 265 226 255.598 226 244V244C226 232.402 235.402 223 247 223V223Z" fill="#74B7C9"/>
<path d="M379 223C390.598 223 400 232.402 400 244V244C400 255.598 390.598 265 379 265V265C367.402 265 358 255.598 358 244V244C358 232.402 367.402 223 379 223V223Z" fill="#74B7C9"/>
<path d="M70 223C81.598 223 91 232.402 91 244V244C91 255.598 81.598 265 70 265V265C58.402 265 49 255.598 49 244V244C49 232.402 58.402 223 70 223V223Z" fill="#74B7C9"/>
<path d="M202 223C213.598 223 223 232.402 223 244V244C223 255.598 213.598 265 202 265V265C190.402 265 181 255.598 181 244V244C181 232.402 190.402 223 202 223V223Z" fill="#74B7C9"/>
<path d="M334 223C345.598 223 355 232.402 355 244V244C355 255.598 345.598 265 334 265V265C322.402 265 313 255.598 313 244V244C313 232.402 322.402 223 334 223V223Z" fill="#74B7C9"/>
<path d="M-20 133C-8.40202 133 1 142.402 1 154V154C1 165.598 -8.40202 175 -20 175V175C-31.598 175 -41 165.598 -41 154V154C-41 142.402 -31.598 133 -20 133V133Z" fill="#74B7C9"/>
<path d="M112 133C123.598 133 133 142.402 133 154V154C133 165.598 123.598 175 112 175V175C100.402 175 91 165.598 91 154V154C91 142.402 100.402 133 112 133V133Z" fill="#74B7C9"/>
<path d="M244 133C255.598 133 265 142.402 265 154V154C265 165.598 255.598 175 244 175V175C232.402 175 223 165.598 223 154V154C223 142.402 232.402 133 244 133V133Z" fill="#74B7C9"/>
<path d="M25 133C36.598 133 46 142.402 46 154V154C46 165.598 36.598 175 25 175V175C13.402 175 4 165.598 4 154V154C4 142.402 13.402 133 25 133V133Z" fill="#74B7C9"/>
<path d="M157 133C168.598 133 178 142.402 178 154V154C178 165.598 168.598 175 157 175V175C145.402 175 136 165.598 136 154V154C136 142.402 145.402 133 157 133V133Z" fill="#74B7C9"/>
<path d="M289 133C300.598 133 310 142.402 310 154V154C310 165.598 300.598 175 289 175V175C277.402 175 268 165.598 268 154V154C268 142.402 277.402 133 289 133V133Z" fill="#74B7C9"/>
<path d="M289 724C277.402 724 268 733.402 268 745V745C268 756.598 277.402 766 289 766V766C300.598 766 310 756.598 310 745V745C310 733.402 300.598 724 289 724V724Z" fill="#74B7C9"/>
<path d="M334 724C322.402 724 313 733.402 313 745V745C313 756.598 322.402 766 334 766V766C345.598 766 355 756.598 355 745V745C355 733.402 345.598 724 334 724V724Z" fill="#74B7C9"/>
<path d="M244 769C232.402 769 223 778.402 223 790V790C223 801.598 232.402 811 244 811V811C255.598 811 265 801.598 265 790V790C265 778.402 255.598 769 244 769V769Z" fill="#74B7C9"/>
<path d="M289 769C277.402 769 268 778.402 268 790V790C268 801.598 277.402 811 289 811V811C300.598 811 310 801.598 310 790V790C310 778.402 300.598 769 289 769V769Z" fill="#74B7C9"/>
<path d="M379 679C367.402 679 358 688.402 358 700V700C358 711.598 367.402 721 379 721V721C390.598 721 400 711.598 400 700V700C400 688.402 390.598 679 379 679V679Z" fill="#74B7C9"/>
<path d="M334 679C322.402 679 313 688.402 313 700V700C313 711.598 322.402 721 334 721V721C345.598 721 355 711.598 355 700V700C355 688.402 345.598 679 334 679V679Z" fill="#74B7C9"/>
<path d="M157 724C145.402 724 136 733.402 136 745V745C136 756.598 145.402 766 157 766V766C168.598 766 178 756.598 178 745V745C178 733.402 168.598 724 157 724V724Z" fill="#74B7C9"/>
<path d="M25 724C13.402 724 4 733.402 4 745V745C4 756.598 13.402 766 25 766V766C36.598 766 46 756.598 46 745V745C46 733.402 36.598 724 25 724V724Z" fill="#74B7C9"/>
<path d="M202 724C190.402 724 181 733.402 181 745V745C181 756.598 190.402 766 202 766V766C213.598 766 223 756.598 223 745V745C223 733.402 213.598 724 202 724V724Z" fill="#74B7C9"/>
<path d="M70 724C58.402 724 49 733.402 49 745V745C49 756.598 58.402 766 70 766V766C81.598 766 91 756.598 91 745V745C91 733.402 81.598 724 70 724V724Z" fill="#74B7C9"/>
<path d="M112 769C100.402 769 91 778.402 91 790V790C91 801.598 100.402 811 112 811V811C123.598 811 133 801.598 133 790V790C133 778.402 123.598 769 112 769V769Z" fill="#74B7C9"/>
<path d="M-20 769C-31.598 769 -41 778.402 -41 790V790C-41 801.598 -31.598 811 -20 811V811C-8.40202 811 0.999999 801.598 0.999999 790V790C0.999999 778.402 -8.40202 769 -20 769V769Z" fill="#74B7C9"/>
<path d="M157 769C145.402 769 136 778.402 136 790V790C136 801.598 145.402 811 157 811V811C168.598 811 178 801.598 178 790V790C178 778.402 168.598 769 157 769V769Z" fill="#74B7C9"/>
<path d="M25 769C13.402 769 4 778.402 4 790V790C4 801.598 13.402 811 25 811V811C36.598 811 46 801.598 46 790V790C46 778.402 36.598 769 25 769V769Z" fill="#74B7C9"/>
<path d="M247 679C235.402 679 226 688.402 226 700V700C226 711.598 235.402 721 247 721V721C258.598 721 268 711.598 268 700V700C268 688.402 258.598 679 247 679V679Z" fill="#74B7C9"/>
<path d="M115 679C103.402 679 94 688.402 94 700V700C94 711.598 103.402 721 115 721V721C126.598 721 136 711.598 136 700V700C136 688.402 126.598 679 115 679V679Z" fill="#74B7C9"/>
<path d="M-17 679C-28.598 679 -38 688.402 -38 700V700C-38 711.598 -28.598 721 -17 721V721C-5.40202 721 4 711.598 4 700V700C4 688.402 -5.40202 679 -17 679V679Z" fill="#74B7C9"/>
<path d="M202 679C190.402 679 181 688.402 181 700V700C181 711.598 190.402 721 202 721V721C213.598 721 223 711.598 223 700V700C223 688.402 213.598 679 202 679V679Z" fill="#74B7C9"/>
<path d="M70 679C58.402 679 49 688.402 49 700V700C49 711.598 58.402 721 70 721V721C81.598 721 91 711.598 91 700V700C91 688.402 81.598 679 70 679V679Z" fill="#74B7C9"/>
<path d="M70 451C81.598 451 91 460.402 91 472V472C91 483.598 81.598 493 70 493V493C58.402 493 49 483.598 49 472V472C49 460.402 58.402 451 70 451V451Z" fill="#74B7C9"/>
<path d="M202 451C213.598 451 223 460.402 223 472V472C223 483.598 213.598 493 202 493V493C190.402 493 181 483.598 181 472V472C181 460.402 190.402 451 202 451V451Z" fill="#74B7C9"/>
<path d="M334 451C345.598 451 355 460.402 355 472V472C355 483.598 345.598 493 334 493V493C322.402 493 313 483.598 313 472V472C313 460.402 322.402 451 334 451V451Z" fill="#74B7C9"/>
<path d="M25 451C36.598 451 46 460.402 46 472V472C46 483.598 36.598 493 25 493V493C13.402 493 4 483.598 4 472V472C4 460.402 13.402 451 25 451V451Z" fill="#74B7C9"/>
<path d="M157 451C168.598 451 178 460.402 178 472V472C178 483.598 168.598 493 157 493V493C145.402 493 136 483.598 136 472V472C136 460.402 145.402 451 157 451V451Z" fill="#74B7C9"/>
<path d="M289 451C300.598 451 310 460.402 310 472V472C310 483.598 300.598 493 289 493V493C277.402 493 268 483.598 268 472V472C268 460.402 277.402 451 289 451V451Z" fill="#74B7C9"/>
<path d="M-17 496C-5.40202 496 4 505.402 4 517V517C4 528.598 -5.40202 538 -17 538V538C-28.598 538 -38 528.598 -38 517V517C-38 505.402 -28.598 496 -17 496V496Z" fill="#74B7C9"/>
<path d="M115 496C126.598 496 136 505.402 136 517V517C136 528.598 126.598 538 115 538V538C103.402 538 94 528.598 94 517V517C94 505.402 103.402 496 115 496V496Z" fill="#74B7C9"/>
<path d="M247 496C258.598 496 268 505.402 268 517V517C268 528.598 258.598 538 247 538V538C235.402 538 226 528.598 226 517V517C226 505.402 235.402 496 247 496V496Z" fill="#74B7C9"/>
<path d="M379 496C390.598 496 400 505.402 400 517V517C400 528.598 390.598 538 379 538V538C367.402 538 358 528.598 358 517V517C358 505.402 367.402 496 379 496V496Z" fill="#74B7C9"/>
<path d="M70 496C81.598 496 91 505.402 91 517V517C91 528.598 81.598 538 70 538V538C58.402 538 49 528.598 49 517V517C49 505.402 58.402 496 70 496V496Z" fill="#74B7C9"/>
<path d="M202 496C213.598 496 223 505.402 223 517V517C223 528.598 213.598 538 202 538V538C190.402 538 181 528.598 181 517V517C181 505.402 190.402 496 202 496V496Z" fill="#74B7C9"/>
<path d="M334 496C345.598 496 355 505.402 355 517V517C355 528.598 345.598 538 334 538V538C322.402 538 313 528.598 313 517V517C313 505.402 322.402 496 334 496V496Z" fill="#74B7C9"/>
<path d="M-20 406C-8.40202 406 1 415.402 1 427V427C1 438.598 -8.40202 448 -20 448V448C-31.598 448 -41 438.598 -41 427V427C-41 415.402 -31.598 406 -20 406V406Z" fill="#74B7C9"/>
<path d="M112 406C123.598 406 133 415.402 133 427V427C133 438.598 123.598 448 112 448V448C100.402 448 91 438.598 91 427V427C91 415.402 100.402 406 112 406V406Z" fill="#74B7C9"/>
<path d="M244 406C255.598 406 265 415.402 265 427V427C265 438.598 255.598 448 244 448V448C232.402 448 223 438.598 223 427V427C223 415.402 232.402 406 244 406V406Z" fill="#74B7C9"/>
<path d="M25 406C36.598 406 46 415.402 46 427V427C46 438.598 36.598 448 25 448V448C13.402 448 4 438.598 4 427V427C4 415.402 13.402 406 25 406V406Z" fill="#74B7C9"/>
<path d="M157 406C168.598 406 178 415.402 178 427V427C178 438.598 168.598 448 157 448V448C145.402 448 136 438.598 136 427V427C136 415.402 145.402 406 157 406V406Z" fill="#74B7C9"/>
<path d="M289 406C300.598 406 310 415.402 310 427V427C310 438.598 300.598 448 289 448V448C277.402 448 268 438.598 268 427V427C268 415.402 277.402 406 289 406V406Z" fill="#74B7C9"/>
<path d="M70 631C81.598 631 91 621.598 91 610V610C91 598.402 81.598 589 70 589V589C58.402 589 49 598.402 49 610V610C49 621.598 58.402 631 70 631V631Z" fill="#74B7C9"/>
<path d="M202 631C213.598 631 223 621.598 223 610V610C223 598.402 213.598 589 202 589V589C190.402 589 181 598.402 181 610V610C181 621.598 190.402 631 202 631V631Z" fill="#74B7C9"/>
<path d="M334 631C345.598 631 355 621.598 355 610V610C355 598.402 345.598 589 334 589V589C322.402 589 313 598.402 313 610V610C313 621.598 322.402 631 334 631V631Z" fill="#74B7C9"/>
<path d="M25 631C36.598 631 46 621.598 46 610V610C46 598.402 36.598 589 25 589V589C13.402 589 4 598.402 4 610V610C4 621.598 13.402 631 25 631V631Z" fill="#74B7C9"/>
<path d="M157 631C168.598 631 178 621.598 178 610V610C178 598.402 168.598 589 157 589V589C145.402 589 136 598.402 136 610V610C136 621.598 145.402 631 157 631V631Z" fill="#74B7C9"/>
<path d="M289 631C300.598 631 310 621.598 310 610V610C310 598.402 300.598 589 289 589V589C277.402 589 268 598.402 268 610V610C268 621.598 277.402 631 289 631V631Z" fill="#74B7C9"/>
<path d="M-17 586C-5.40202 586 4 576.598 4 565V565C4 553.402 -5.40202 544 -17 544V544C-28.598 544 -38 553.402 -38 565V565C-38 576.598 -28.598 586 -17 586V586Z" fill="#74B7C9"/>
<path d="M115 586C126.598 586 136 576.598 136 565V565C136 553.402 126.598 544 115 544V544C103.402 544 94 553.402 94 565V565C94 576.598 103.402 586 115 586V586Z" fill="#74B7C9"/>
<path d="M247 586C258.598 586 268 576.598 268 565V565C268 553.402 258.598 544 247 544V544C235.402 544 226 553.402 226 565V565C226 576.598 235.402 586 247 586V586Z" fill="#74B7C9"/>
<path d="M379 586C390.598 586 400 576.598 400 565V565C400 553.402 390.598 544 379 544V544C367.402 544 358 553.402 358 565V565C358 576.598 367.402 586 379 586V586Z" fill="#74B7C9"/>
<path d="M70 586C81.598 586 91 576.598 91 565V565C91 553.402 81.598 544 70 544V544C58.402 544 49 553.402 49 565V565C49 576.598 58.402 586 70 586V586Z" fill="#74B7C9"/>
<path d="M202 586C213.598 586 223 576.598 223 565V565C223 553.402 213.598 544 202 544V544C190.402 544 181 553.402 181 565V565C181 576.598 190.402 586 202 586V586Z" fill="#74B7C9"/>
<path d="M334 586C345.598 586 355 576.598 355 565V565C355 553.402 345.598 544 334 544V544C322.402 544 313 553.402 313 565V565C313 576.598 322.402 586 334 586V586Z" fill="#74B7C9"/>
<path d="M-20 676C-8.40202 676 1 666.598 1 655V655C1 643.402 -8.40202 634 -20 634V634C-31.598 634 -41 643.402 -41 655V655C-41 666.598 -31.598 676 -20 676V676Z" fill="#74B7C9"/>
<path d="M112 676C123.598 676 133 666.598 133 655V655C133 643.402 123.598 634 112 634V634C100.402 634 91 643.402 91 655V655C91 666.598 100.402 676 112 676V676Z" fill="#74B7C9"/>
<path d="M244 676C255.598 676 265 666.598 265 655V655C265 643.402 255.598 634 244 634V634C232.402 634 223 643.402 223 655V655C223 666.598 232.402 676 244 676V676Z" fill="#74B7C9"/>
<path d="M25 676C36.598 676 46 666.598 46 655V655C46 643.402 36.598 634 25 634V634C13.402 634 4 643.402 4 655V655C4 666.598 13.402 676 25 676V676Z" fill="#74B7C9"/>
<path d="M157 676C168.598 676 178 666.598 178 655V655C178 643.402 168.598 634 157 634V634C145.402 634 136 643.402 136 655V655C136 666.598 145.402 676 157 676V676Z" fill="#74B7C9"/>
<path d="M289 676C300.598 676 310 666.598 310 655V655C310 643.402 300.598 634 289 634V634C277.402 634 268 643.402 268 655V655C268 666.598 277.402 676 289 676V676Z" fill="#74B7C9"/>
<path d="M1150 85C1161.6 85 1171 75.598 1171 64V64C1171 52.402 1161.6 43 1150 43V43C1138.4 43 1129 52.402 1129 64V64C1129 75.598 1138.4 85 1150 85V85Z" fill="#74B7C9"/>
<path d="M1105 85C1116.6 85 1126 75.598 1126 64V64C1126 52.402 1116.6 43 1105 43V43C1093.4 43 1084 52.402 1084 64V64C1084 75.598 1093.4 85 1105 85V85Z" fill="#74B7C9"/>
<path d="M1195 40C1206.6 40 1216 30.598 1216 19V19C1216 7.40202 1206.6 -2 1195 -2V-2C1183.4 -2 1174 7.40202 1174 19V19C1174 30.598 1183.4 40 1195 40V40Z" fill="#74B7C9"/>
<path d="M1150 40C1161.6 40 1171 30.598 1171 19V19C1171 7.40202 1161.6 -2 1150 -2V-2C1138.4 -2 1129 7.40202 1129 19V19C1129 30.598 1138.4 40 1150 40V40Z" fill="#74B7C9"/>
<path d="M1060 130C1071.6 130 1081 120.598 1081 109V109C1081 97.402 1071.6 88 1060 88V88C1048.4 88 1039 97.402 1039 109V109C1039 120.598 1048.4 130 1060 130V130Z" fill="#74B7C9"/>
<path d="M1105 130C1116.6 130 1126 120.598 1126 109V109C1126 97.402 1116.6 88 1105 88V88C1093.4 88 1084 97.402 1084 109V109C1084 120.598 1093.4 130 1105 130V130Z" fill="#74B7C9"/>
<path d="M1282 85C1293.6 85 1303 75.598 1303 64V64C1303 52.402 1293.6 43 1282 43V43C1270.4 43 1261 52.402 1261 64V64C1261 75.598 1270.4 85 1282 85V85Z" fill="#74B7C9"/>
<path d="M1414 85C1425.6 85 1435 75.598 1435 64V64C1435 52.402 1425.6 43 1414 43V43C1402.4 43 1393 52.402 1393 64V64C1393 75.598 1402.4 85 1414 85V85Z" fill="#74B7C9"/>
<path d="M1237 85C1248.6 85 1258 75.598 1258 64V64C1258 52.402 1248.6 43 1237 43V43C1225.4 43 1216 52.402 1216 64V64C1216 75.598 1225.4 85 1237 85V85Z" fill="#74B7C9"/>
<path d="M1369 85C1380.6 85 1390 75.598 1390 64V64C1390 52.402 1380.6 43 1369 43V43C1357.4 43 1348 52.402 1348 64V64C1348 75.598 1357.4 85 1369 85V85Z" fill="#74B7C9"/>
<path d="M1327 40C1338.6 40 1348 30.598 1348 19V19C1348 7.40202 1338.6 -2 1327 -2V-2C1315.4 -2 1306 7.40202 1306 19V19C1306 30.598 1315.4 40 1327 40V40Z" fill="#74B7C9"/>
<path d="M1459 40C1470.6 40 1480 30.598 1480 19V19C1480 7.40202 1470.6 -2 1459 -2V-2C1447.4 -2 1438 7.40202 1438 19V19C1438 30.598 1447.4 40 1459 40V40Z" fill="#74B7C9"/>
<path d="M1282 40C1293.6 40 1303 30.598 1303 19V19C1303 7.40202 1293.6 -2 1282 -2V-2C1270.4 -2 1261 7.40202 1261 19V19C1261 30.598 1270.4 40 1282 40V40Z" fill="#74B7C9"/>
<path d="M1414 40C1425.6 40 1435 30.598 1435 19V19C1435 7.40202 1425.6 -2 1414 -2V-2C1402.4 -2 1393 7.40202 1393 19V19C1393 30.598 1402.4 40 1414 40V40Z" fill="#74B7C9"/>
<path d="M1192 130C1203.6 130 1213 120.598 1213 109V109C1213 97.402 1203.6 88 1192 88V88C1180.4 88 1171 97.402 1171 109V109C1171 120.598 1180.4 130 1192 130V130Z" fill="#74B7C9"/>
<path d="M1324 130C1335.6 130 1345 120.598 1345 109V109C1345 97.402 1335.6 88 1324 88V88C1312.4 88 1303 97.402 1303 109V109C1303 120.598 1312.4 130 1324 130V130Z" fill="#74B7C9"/>
<path d="M1456 130C1467.6 130 1477 120.598 1477 109V109C1477 97.402 1467.6 88 1456 88V88C1444.4 88 1435 97.402 1435 109V109C1435 120.598 1444.4 130 1456 130V130Z" fill="#74B7C9"/>
<path d="M1237 130C1248.6 130 1258 120.598 1258 109V109C1258 97.402 1248.6 88 1237 88V88C1225.4 88 1216 97.402 1216 109V109C1216 120.598 1225.4 130 1237 130V130Z" fill="#74B7C9"/>
<path d="M1369 130C1380.6 130 1390 120.598 1390 109V109C1390 97.402 1380.6 88 1369 88V88C1357.4 88 1348 97.402 1348 109V109C1348 120.598 1357.4 130 1369 130V130Z" fill="#74B7C9"/>
<path d="M1369 358C1357.4 358 1348 348.598 1348 337V337C1348 325.402 1357.4 316 1369 316V316C1380.6 316 1390 325.402 1390 337V337C1390 348.598 1380.6 358 1369 358V358Z" fill="#74B7C9"/>
<path d="M1237 358C1225.4 358 1216 348.598 1216 337V337C1216 325.402 1225.4 316 1237 316V316C1248.6 316 1258 325.402 1258 337V337C1258 348.598 1248.6 358 1237 358V358Z" fill="#74B7C9"/>
<path d="M1105 358C1093.4 358 1084 348.598 1084 337V337C1084 325.402 1093.4 316 1105 316V316C1116.6 316 1126 325.402 1126 337V337C1126 348.598 1116.6 358 1105 358V358Z" fill="#74B7C9"/>
<path d="M1414 358C1402.4 358 1393 348.598 1393 337V337C1393 325.402 1402.4 316 1414 316V316C1425.6 316 1435 325.402 1435 337V337C1435 348.598 1425.6 358 1414 358V358Z" fill="#74B7C9"/>
<path d="M1282 358C1270.4 358 1261 348.598 1261 337V337C1261 325.402 1270.4 316 1282 316V316C1293.6 316 1303 325.402 1303 337V337C1303 348.598 1293.6 358 1282 358V358Z" fill="#74B7C9"/>
<path d="M1150 358C1138.4 358 1129 348.598 1129 337V337C1129 325.402 1138.4 316 1150 316V316C1161.6 316 1171 325.402 1171 337V337C1171 348.598 1161.6 358 1150 358V358Z" fill="#74B7C9"/>
<path d="M1456 313C1444.4 313 1435 303.598 1435 292V292C1435 280.402 1444.4 271 1456 271V271C1467.6 271 1477 280.402 1477 292V292C1477 303.598 1467.6 313 1456 313V313Z" fill="#74B7C9"/>
<path d="M1324 313C1312.4 313 1303 303.598 1303 292V292C1303 280.402 1312.4 271 1324 271V271C1335.6 271 1345 280.402 1345 292V292C1345 303.598 1335.6 313 1324 313V313Z" fill="#74B7C9"/>
<path d="M1192 313C1180.4 313 1171 303.598 1171 292V292C1171 280.402 1180.4 271 1192 271V271C1203.6 271 1213 280.402 1213 292V292C1213 303.598 1203.6 313 1192 313V313Z" fill="#74B7C9"/>
<path d="M1060 313C1048.4 313 1039 303.598 1039 292V292C1039 280.402 1048.4 271 1060 271V271C1071.6 271 1081 280.402 1081 292V292C1081 303.598 1071.6 313 1060 313V313Z" fill="#74B7C9"/>
<path d="M1369 313C1357.4 313 1348 303.598 1348 292V292C1348 280.402 1357.4 271 1369 271V271C1380.6 271 1390 280.402 1390 292V292C1390 303.598 1380.6 313 1369 313V313Z" fill="#74B7C9"/>
<path d="M1237 313C1225.4 313 1216 303.598 1216 292V292C1216 280.402 1225.4 271 1237 271V271C1248.6 271 1258 280.402 1258 292V292C1258 303.598 1248.6 313 1237 313V313Z" fill="#74B7C9"/>
<path d="M1105 313C1093.4 313 1084 303.598 1084 292V292C1084 280.402 1093.4 271 1105 271V271C1116.6 271 1126 280.402 1126 292V292C1126 303.598 1116.6 313 1105 313V313Z" fill="#74B7C9"/>
<path d="M1459 403C1447.4 403 1438 393.598 1438 382V382C1438 370.402 1447.4 361 1459 361V361C1470.6 361 1480 370.402 1480 382V382C1480 393.598 1470.6 403 1459 403V403Z" fill="#74B7C9"/>
<path d="M1327 403C1315.4 403 1306 393.598 1306 382V382C1306 370.402 1315.4 361 1327 361V361C1338.6 361 1348 370.402 1348 382V382C1348 393.598 1338.6 403 1327 403V403Z" fill="#74B7C9"/>
<path d="M1195 403C1183.4 403 1174 393.598 1174 382V382C1174 370.402 1183.4 361 1195 361V361C1206.6 361 1216 370.402 1216 382V382C1216 393.598 1206.6 403 1195 403V403Z" fill="#74B7C9"/>
<path d="M1414 403C1402.4 403 1393 393.598 1393 382V382C1393 370.402 1402.4 361 1414 361V361C1425.6 361 1435 370.402 1435 382V382C1435 393.598 1425.6 403 1414 403V403Z" fill="#74B7C9"/>
<path d="M1282 403C1270.4 403 1261 393.598 1261 382V382C1261 370.402 1270.4 361 1282 361V361C1293.6 361 1303 370.402 1303 382V382C1303 393.598 1293.6 403 1282 403V403Z" fill="#74B7C9"/>
<path d="M1150 403C1138.4 403 1129 393.598 1129 382V382C1129 370.402 1138.4 361 1150 361V361C1161.6 361 1171 370.402 1171 382V382C1171 393.598 1161.6 403 1150 403V403Z" fill="#74B7C9"/>
<path d="M1369 178C1357.4 178 1348 187.402 1348 199V199C1348 210.598 1357.4 220 1369 220V220C1380.6 220 1390 210.598 1390 199V199C1390 187.402 1380.6 178 1369 178V178Z" fill="#74B7C9"/>
<path d="M1237 178C1225.4 178 1216 187.402 1216 199V199C1216 210.598 1225.4 220 1237 220V220C1248.6 220 1258 210.598 1258 199V199C1258 187.402 1248.6 178 1237 178V178Z" fill="#74B7C9"/>
<path d="M1105 178C1093.4 178 1084 187.402 1084 199V199C1084 210.598 1093.4 220 1105 220V220C1116.6 220 1126 210.598 1126 199V199C1126 187.402 1116.6 178 1105 178V178Z" fill="#74B7C9"/>
<path d="M1414 178C1402.4 178 1393 187.402 1393 199V199C1393 210.598 1402.4 220 1414 220V220C1425.6 220 1435 210.598 1435 199V199C1435 187.402 1425.6 178 1414 178V178Z" fill="#74B7C9"/>
<path d="M1282 178C1270.4 178 1261 187.402 1261 199V199C1261 210.598 1270.4 220 1282 220V220C1293.6 220 1303 210.598 1303 199V199C1303 187.402 1293.6 178 1282 178V178Z" fill="#74B7C9"/>
<path d="M1150 178C1138.4 178 1129 187.402 1129 199V199C1129 210.598 1138.4 220 1150 220V220C1161.6 220 1171 210.598 1171 199V199C1171 187.402 1161.6 178 1150 178V178Z" fill="#74B7C9"/>
<path d="M1456 223C1444.4 223 1435 232.402 1435 244V244C1435 255.598 1444.4 265 1456 265V265C1467.6 265 1477 255.598 1477 244V244C1477 232.402 1467.6 223 1456 223V223Z" fill="#74B7C9"/>
<path d="M1324 223C1312.4 223 1303 232.402 1303 244V244C1303 255.598 1312.4 265 1324 265V265C1335.6 265 1345 255.598 1345 244V244C1345 232.402 1335.6 223 1324 223V223Z" fill="#74B7C9"/>
<path d="M1192 223C1180.4 223 1171 232.402 1171 244V244C1171 255.598 1180.4 265 1192 265V265C1203.6 265 1213 255.598 1213 244V244C1213 232.402 1203.6 223 1192 223V223Z" fill="#74B7C9"/>
<path d="M1060 223C1048.4 223 1039 232.402 1039 244V244C1039 255.598 1048.4 265 1060 265V265C1071.6 265 1081 255.598 1081 244V244C1081 232.402 1071.6 223 1060 223V223Z" fill="#74B7C9"/>
<path d="M1369 223C1357.4 223 1348 232.402 1348 244V244C1348 255.598 1357.4 265 1369 265V265C1380.6 265 1390 255.598 1390 244V244C1390 232.402 1380.6 223 1369 223V223Z" fill="#74B7C9"/>
<path d="M1237 223C1225.4 223 1216 232.402 1216 244V244C1216 255.598 1225.4 265 1237 265V265C1248.6 265 1258 255.598 1258 244V244C1258 232.402 1248.6 223 1237 223V223Z" fill="#74B7C9"/>
<path d="M1105 223C1093.4 223 1084 232.402 1084 244V244C1084 255.598 1093.4 265 1105 265V265C1116.6 265 1126 255.598 1126 244V244C1126 232.402 1116.6 223 1105 223V223Z" fill="#74B7C9"/>
<path d="M1459 133C1447.4 133 1438 142.402 1438 154V154C1438 165.598 1447.4 175 1459 175V175C1470.6 175 1480 165.598 1480 154V154C1480 142.402 1470.6 133 1459 133V133Z" fill="#74B7C9"/>
<path d="M1327 133C1315.4 133 1306 142.402 1306 154V154C1306 165.598 1315.4 175 1327 175V175C1338.6 175 1348 165.598 1348 154V154C1348 142.402 1338.6 133 1327 133V133Z" fill="#74B7C9"/>
<path d="M1195 133C1183.4 133 1174 142.402 1174 154V154C1174 165.598 1183.4 175 1195 175V175C1206.6 175 1216 165.598 1216 154V154C1216 142.402 1206.6 133 1195 133V133Z" fill="#74B7C9"/>
<path d="M1414 133C1402.4 133 1393 142.402 1393 154V154C1393 165.598 1402.4 175 1414 175V175C1425.6 175 1435 165.598 1435 154V154C1435 142.402 1425.6 133 1414 133V133Z" fill="#74B7C9"/>
<path d="M1282 133C1270.4 133 1261 142.402 1261 154V154C1261 165.598 1270.4 175 1282 175V175C1293.6 175 1303 165.598 1303 154V154C1303 142.402 1293.6 133 1282 133V133Z" fill="#74B7C9"/>
<path d="M1150 133C1138.4 133 1129 142.402 1129 154V154C1129 165.598 1138.4 175 1150 175V175C1161.6 175 1171 165.598 1171 154V154C1171 142.402 1161.6 133 1150 133V133Z" fill="#74B7C9"/>
<path d="M1150 724C1161.6 724 1171 733.402 1171 745V745C1171 756.598 1161.6 766 1150 766V766C1138.4 766 1129 756.598 1129 745V745C1129 733.402 1138.4 724 1150 724V724Z" fill="#74B7C9"/>
<path d="M1105 724C1116.6 724 1126 733.402 1126 745V745C1126 756.598 1116.6 766 1105 766V766C1093.4 766 1084 756.598 1084 745V745C1084 733.402 1093.4 724 1105 724V724Z" fill="#74B7C9"/>
<path d="M1195 769C1206.6 769 1216 778.402 1216 790V790C1216 801.598 1206.6 811 1195 811V811C1183.4 811 1174 801.598 1174 790V790C1174 778.402 1183.4 769 1195 769V769Z" fill="#74B7C9"/>
<path d="M1150 769C1161.6 769 1171 778.402 1171 790V790C1171 801.598 1161.6 811 1150 811V811C1138.4 811 1129 801.598 1129 790V790C1129 778.402 1138.4 769 1150 769V769Z" fill="#74B7C9"/>
<path d="M1060 679C1071.6 679 1081 688.402 1081 700V700C1081 711.598 1071.6 721 1060 721V721C1048.4 721 1039 711.598 1039 700V700C1039 688.402 1048.4 679 1060 679V679Z" fill="#74B7C9"/>
<path d="M1105 679C1116.6 679 1126 688.402 1126 700V700C1126 711.598 1116.6 721 1105 721V721C1093.4 721 1084 711.598 1084 700V700C1084 688.402 1093.4 679 1105 679V679Z" fill="#74B7C9"/>
<path d="M1282 724C1293.6 724 1303 733.402 1303 745V745C1303 756.598 1293.6 766 1282 766V766C1270.4 766 1261 756.598 1261 745V745C1261 733.402 1270.4 724 1282 724V724Z" fill="#74B7C9"/>
<path d="M1414 724C1425.6 724 1435 733.402 1435 745V745C1435 756.598 1425.6 766 1414 766V766C1402.4 766 1393 756.598 1393 745V745C1393 733.402 1402.4 724 1414 724V724Z" fill="#74B7C9"/>
<path d="M1237 724C1248.6 724 1258 733.402 1258 745V745C1258 756.598 1248.6 766 1237 766V766C1225.4 766 1216 756.598 1216 745V745C1216 733.402 1225.4 724 1237 724V724Z" fill="#74B7C9"/>
<path d="M1369 724C1380.6 724 1390 733.402 1390 745V745C1390 756.598 1380.6 766 1369 766V766C1357.4 766 1348 756.598 1348 745V745C1348 733.402 1357.4 724 1369 724V724Z" fill="#74B7C9"/>
<path d="M1327 769C1338.6 769 1348 778.402 1348 790V790C1348 801.598 1338.6 811 1327 811V811C1315.4 811 1306 801.598 1306 790V790C1306 778.402 1315.4 769 1327 769V769Z" fill="#74B7C9"/>
<path d="M1459 769C1470.6 769 1480 778.402 1480 790V790C1480 801.598 1470.6 811 1459 811V811C1447.4 811 1438 801.598 1438 790V790C1438 778.402 1447.4 769 1459 769V769Z" fill="#74B7C9"/>
<path d="M1282 769C1293.6 769 1303 778.402 1303 790V790C1303 801.598 1293.6 811 1282 811V811C1270.4 811 1261 801.598 1261 790V790C1261 778.402 1270.4 769 1282 769V769Z" fill="#74B7C9"/>
<path d="M1414 769C1425.6 769 1435 778.402 1435 790V790C1435 801.598 1425.6 811 1414 811V811C1402.4 811 1393 801.598 1393 790V790C1393 778.402 1402.4 769 1414 769V769Z" fill="#74B7C9"/>
<path d="M1192 679C1203.6 679 1213 688.402 1213 700V700C1213 711.598 1203.6 721 1192 721V721C1180.4 721 1171 711.598 1171 700V700C1171 688.402 1180.4 679 1192 679V679Z" fill="#74B7C9"/>
<path d="M1324 679C1335.6 679 1345 688.402 1345 700V700C1345 711.598 1335.6 721 1324 721V721C1312.4 721 1303 711.598 1303 700V700C1303 688.402 1312.4 679 1324 679V679Z" fill="#74B7C9"/>
<path d="M1456 679C1467.6 679 1477 688.402 1477 700V700C1477 711.598 1467.6 721 1456 721V721C1444.4 721 1435 711.598 1435 700V700C1435 688.402 1444.4 679 1456 679V679Z" fill="#74B7C9"/>
<path d="M1237 679C1248.6 679 1258 688.402 1258 700V700C1258 711.598 1248.6 721 1237 721V721C1225.4 721 1216 711.598 1216 700V700C1216 688.402 1225.4 679 1237 679V679Z" fill="#74B7C9"/>
<path d="M1369 679C1380.6 679 1390 688.402 1390 700V700C1390 711.598 1380.6 721 1369 721V721C1357.4 721 1348 711.598 1348 700V700C1348 688.402 1357.4 679 1369 679V679Z" fill="#74B7C9"/>
<path d="M1369 451C1357.4 451 1348 460.402 1348 472V472C1348 483.598 1357.4 493 1369 493V493C1380.6 493 1390 483.598 1390 472V472C1390 460.402 1380.6 451 1369 451V451Z" fill="#74B7C9"/>
<path d="M1237 451C1225.4 451 1216 460.402 1216 472V472C1216 483.598 1225.4 493 1237 493V493C1248.6 493 1258 483.598 1258 472V472C1258 460.402 1248.6 451 1237 451V451Z" fill="#74B7C9"/>
<path d="M1105 451C1093.4 451 1084 460.402 1084 472V472C1084 483.598 1093.4 493 1105 493V493C1116.6 493 1126 483.598 1126 472V472C1126 460.402 1116.6 451 1105 451V451Z" fill="#74B7C9"/>
<path d="M1414 451C1402.4 451 1393 460.402 1393 472V472C1393 483.598 1402.4 493 1414 493V493C1425.6 493 1435 483.598 1435 472V472C1435 460.402 1425.6 451 1414 451V451Z" fill="#74B7C9"/>
<path d="M1282 451C1270.4 451 1261 460.402 1261 472V472C1261 483.598 1270.4 493 1282 493V493C1293.6 493 1303 483.598 1303 472V472C1303 460.402 1293.6 451 1282 451V451Z" fill="#74B7C9"/>
<path d="M1150 451C1138.4 451 1129 460.402 1129 472V472C1129 483.598 1138.4 493 1150 493V493C1161.6 493 1171 483.598 1171 472V472C1171 460.402 1161.6 451 1150 451V451Z" fill="#74B7C9"/>
<path d="M1456 496C1444.4 496 1435 505.402 1435 517V517C1435 528.598 1444.4 538 1456 538V538C1467.6 538 1477 528.598 1477 517V517C1477 505.402 1467.6 496 1456 496V496Z" fill="#74B7C9"/>
<path d="M1324 496C1312.4 496 1303 505.402 1303 517V517C1303 528.598 1312.4 538 1324 538V538C1335.6 538 1345 528.598 1345 517V517C1345 505.402 1335.6 496 1324 496V496Z" fill="#74B7C9"/>
<path d="M1192 496C1180.4 496 1171 505.402 1171 517V517C1171 528.598 1180.4 538 1192 538V538C1203.6 538 1213 528.598 1213 517V517C1213 505.402 1203.6 496 1192 496V496Z" fill="#74B7C9"/>
<path d="M1060 496C1048.4 496 1039 505.402 1039 517V517C1039 528.598 1048.4 538 1060 538V538C1071.6 538 1081 528.598 1081 517V517C1081 505.402 1071.6 496 1060 496V496Z" fill="#74B7C9"/>
<path d="M1369 496C1357.4 496 1348 505.402 1348 517V517C1348 528.598 1357.4 538 1369 538V538C1380.6 538 1390 528.598 1390 517V517C1390 505.402 1380.6 496 1369 496V496Z" fill="#74B7C9"/>
<path d="M1237 496C1225.4 496 1216 505.402 1216 517V517C1216 528.598 1225.4 538 1237 538V538C1248.6 538 1258 528.598 1258 517V517C1258 505.402 1248.6 496 1237 496V496Z" fill="#74B7C9"/>
<path d="M1105 496C1093.4 496 1084 505.402 1084 517V517C1084 528.598 1093.4 538 1105 538V538C1116.6 538 1126 528.598 1126 517V517C1126 505.402 1116.6 496 1105 496V496Z" fill="#74B7C9"/>
<path d="M1459 406C1447.4 406 1438 415.402 1438 427V427C1438 438.598 1447.4 448 1459 448V448C1470.6 448 1480 438.598 1480 427V427C1480 415.402 1470.6 406 1459 406V406Z" fill="#74B7C9"/>
<path d="M1327 406C1315.4 406 1306 415.402 1306 427V427C1306 438.598 1315.4 448 1327 448V448C1338.6 448 1348 438.598 1348 427V427C1348 415.402 1338.6 406 1327 406V406Z" fill="#74B7C9"/>
<path d="M1195 406C1183.4 406 1174 415.402 1174 427V427C1174 438.598 1183.4 448 1195 448V448C1206.6 448 1216 438.598 1216 427V427C1216 415.402 1206.6 406 1195 406V406Z" fill="#74B7C9"/>
<path d="M1414 406C1402.4 406 1393 415.402 1393 427V427C1393 438.598 1402.4 448 1414 448V448C1425.6 448 1435 438.598 1435 427V427C1435 415.402 1425.6 406 1414 406V406Z" fill="#74B7C9"/>
<path d="M1282 406C1270.4 406 1261 415.402 1261 427V427C1261 438.598 1270.4 448 1282 448V448C1293.6 448 1303 438.598 1303 427V427C1303 415.402 1293.6 406 1282 406V406Z" fill="#74B7C9"/>
<path d="M1150 406C1138.4 406 1129 415.402 1129 427V427C1129 438.598 1138.4 448 1150 448V448C1161.6 448 1171 438.598 1171 427V427C1171 415.402 1161.6 406 1150 406V406Z" fill="#74B7C9"/>
<path d="M1369 631C1357.4 631 1348 621.598 1348 610V610C1348 598.402 1357.4 589 1369 589V589C1380.6 589 1390 598.402 1390 610V610C1390 621.598 1380.6 631 1369 631V631Z" fill="#74B7C9"/>
<path d="M1237 631C1225.4 631 1216 621.598 1216 610V610C1216 598.402 1225.4 589 1237 589V589C1248.6 589 1258 598.402 1258 610V610C1258 621.598 1248.6 631 1237 631V631Z" fill="#74B7C9"/>
<path d="M1105 631C1093.4 631 1084 621.598 1084 610V610C1084 598.402 1093.4 589 1105 589V589C1116.6 589 1126 598.402 1126 610V610C1126 621.598 1116.6 631 1105 631V631Z" fill="#74B7C9"/>
<path d="M1414 631C1402.4 631 1393 621.598 1393 610V610C1393 598.402 1402.4 589 1414 589V589C1425.6 589 1435 598.402 1435 610V610C1435 621.598 1425.6 631 1414 631V631Z" fill="#74B7C9"/>
<path d="M1282 631C1270.4 631 1261 621.598 1261 610V610C1261 598.402 1270.4 589 1282 589V589C1293.6 589 1303 598.402 1303 610V610C1303 621.598 1293.6 631 1282 631V631Z" fill="#74B7C9"/>
<path d="M1150 631C1138.4 631 1129 621.598 1129 610V610C1129 598.402 1138.4 589 1150 589V589C1161.6 589 1171 598.402 1171 610V610C1171 621.598 1161.6 631 1150 631V631Z" fill="#74B7C9"/>
<path d="M1456 586C1444.4 586 1435 576.598 1435 565V565C1435 553.402 1444.4 544 1456 544V544C1467.6 544 1477 553.402 1477 565V565C1477 576.598 1467.6 586 1456 586V586Z" fill="#74B7C9"/>
<path d="M1324 586C1312.4 586 1303 576.598 1303 565V565C1303 553.402 1312.4 544 1324 544V544C1335.6 544 1345 553.402 1345 565V565C1345 576.598 1335.6 586 1324 586V586Z" fill="#74B7C9"/>
<path d="M1192 586C1180.4 586 1171 576.598 1171 565V565C1171 553.402 1180.4 544 1192 544V544C1203.6 544 1213 553.402 1213 565V565C1213 576.598 1203.6 586 1192 586V586Z" fill="#74B7C9"/>
<path d="M1060 586C1048.4 586 1039 576.598 1039 565V565C1039 553.402 1048.4 544 1060 544V544C1071.6 544 1081 553.402 1081 565V565C1081 576.598 1071.6 586 1060 586V586Z" fill="#74B7C9"/>
<path d="M1369 586C1357.4 586 1348 576.598 1348 565V565C1348 553.402 1357.4 544 1369 544V544C1380.6 544 1390 553.402 1390 565V565C1390 576.598 1380.6 586 1369 586V586Z" fill="#74B7C9"/>
<path d="M1237 586C1225.4 586 1216 576.598 1216 565V565C1216 553.402 1225.4 544 1237 544V544C1248.6 544 1258 553.402 1258 565V565C1258 576.598 1248.6 586 1237 586V586Z" fill="#74B7C9"/>
<path d="M1105 586C1093.4 586 1084 576.598 1084 565V565C1084 553.402 1093.4 544 1105 544V544C1116.6 544 1126 553.402 1126 565V565C1126 576.598 1116.6 586 1105 586V586Z" fill="#74B7C9"/>
<path d="M1459 676C1447.4 676 1438 666.598 1438 655V655C1438 643.402 1447.4 634 1459 634V634C1470.6 634 1480 643.402 1480 655V655C1480 666.598 1470.6 676 1459 676V676Z" fill="#74B7C9"/>
<path d="M1327 676C1315.4 676 1306 666.598 1306 655V655C1306 643.402 1315.4 634 1327 634V634C1338.6 634 1348 643.402 1348 655V655C1348 666.598 1338.6 676 1327 676V676Z" fill="#74B7C9"/>
<path d="M1195 676C1183.4 676 1174 666.598 1174 655V655C1174 643.402 1183.4 634 1195 634V634C1206.6 634 1216 643.402 1216 655V655C1216 666.598 1206.6 676 1195 676V676Z" fill="#74B7C9"/>
<path d="M1414 676C1402.4 676 1393 666.598 1393 655V655C1393 643.402 1402.4 634 1414 634V634C1425.6 634 1435 643.402 1435 655V655C1435 666.598 1425.6 676 1414 676V676Z" fill="#74B7C9"/>
<path d="M1282 676C1270.4 676 1261 666.598 1261 655V655C1261 643.402 1270.4 634 1282 634V634C1293.6 634 1303 643.402 1303 655V655C1303 666.598 1293.6 676 1282 676V676Z" fill="#74B7C9"/>
<path d="M1150 676C1138.4 676 1129 666.598 1129 655V655C1129 643.402 1138.4 634 1150 634V634C1161.6 634 1171 643.402 1171 655V655C1171 666.598 1161.6 676 1150 676V676Z" fill="#74B7C9"/>
<rect x="1039" width="401" height="809" fill="url(#paint0_linear_443_9895)"/>
<rect width="401" height="809" fill="url(#paint1_linear_443_9895)"/>
</g>
<defs>
<linearGradient id="paint0_linear_443_9895" x1="1440" y1="404.5" x2="1039" y2="404.5" gradientUnits="userSpaceOnUse">
<stop stop-color="#A1CDD9" stop-opacity="0"/>
<stop offset="1" stop-color="#A1CDD9"/>
</linearGradient>
<linearGradient id="paint1_linear_443_9895" x1="401" y1="404.5" x2="0" y2="404.5" gradientUnits="userSpaceOnUse">
<stop stop-color="#A1CDD9"/>
<stop offset="1" stop-color="#A1CDD9" stop-opacity="0"/>
</linearGradient>
<clipPath id="clip0_443_9895">
<rect width="1440" height="809" rx="56" fill="white"/>
</clipPath>
</defs>
</svg>
