<svg width="1440" height="809" viewBox="0 0 1440 809" fill="none" xmlns="http://www.w3.org/2000/svg">
<g clip-path="url(#clip0_422_12053)">
<path d="M285 85C273.402 85 264 75.598 264 64V64C264 52.402 273.402 43 285 43V43C296.598 43 306 52.402 306 64V64C306 75.598 296.598 85 285 85V85Z" fill="#74B7C9"/>
<path d="M330 85C318.402 85 309 75.598 309 64V64C309 52.402 318.402 43 330 43V43C341.598 43 351 52.402 351 64V64C351 75.598 341.598 85 330 85V85Z" fill="#74B7C9"/>
<path d="M240 40C228.402 40 219 30.598 219 19V19C219 7.40202 228.402 -2 240 -2V-2C251.598 -2 261 7.40202 261 19V19C261 30.598 251.598 40 240 40V40Z" fill="#74B7C9"/>
<path d="M285 40C273.402 40 264 30.598 264 19V19C264 7.40202 273.402 -2 285 -2V-2C296.598 -2 306 7.40202 306 19V19C306 30.598 296.598 40 285 40V40Z" fill="#74B7C9"/>
<path d="M375 130C363.402 130 354 120.598 354 109V109C354 97.402 363.402 88 375 88V88C386.598 88 396 97.402 396 109V109C396 120.598 386.598 130 375 130V130Z" fill="#74B7C9"/>
<path d="M330 130C318.402 130 309 120.598 309 109V109C309 97.402 318.402 88 330 88V88C341.598 88 351 97.402 351 109V109C351 120.598 341.598 130 330 130V130Z" fill="#74B7C9"/>
<path d="M153 85C141.402 85 132 75.598 132 64V64C132 52.402 141.402 43 153 43V43C164.598 43 174 52.402 174 64V64C174 75.598 164.598 85 153 85V85Z" fill="#74B7C9"/>
<path d="M21 85C9.40202 85 -2.05488e-07 75.598 -4.5897e-07 64V64C-7.12451e-07 52.402 9.40202 43 21 43V43C32.598 43 42 52.402 42 64V64C42 75.598 32.598 85 21 85V85Z" fill="#74B7C9"/>
<path d="M198 85C186.402 85 177 75.598 177 64V64C177 52.402 186.402 43 198 43V43C209.598 43 219 52.402 219 64V64C219 75.598 209.598 85 198 85V85Z" fill="#74B7C9"/>
<path d="M66 85C54.402 85 45 75.598 45 64V64C45 52.402 54.402 43 66 43V43C77.598 43 87 52.402 87 64V64C87 75.598 77.598 85 66 85V85Z" fill="#74B7C9"/>
<path d="M108 40C96.402 40 87 30.598 87 19V19C87 7.40202 96.402 -2 108 -2V-2C119.598 -2 129 7.40202 129 19V19C129 30.598 119.598 40 108 40V40Z" fill="#74B7C9"/>
<path d="M153 40C141.402 40 132 30.598 132 19V19C132 7.40202 141.402 -2 153 -2V-2C164.598 -2 174 7.40202 174 19V19C174 30.598 164.598 40 153 40V40Z" fill="#74B7C9"/>
<path d="M21 40C9.40202 40 -2.05488e-07 30.598 -4.5897e-07 19V19C-7.12451e-07 7.40202 9.40202 -2 21 -2V-2C32.598 -2 42 7.40202 42 19V19C42 30.598 32.598 40 21 40V40Z" fill="#74B7C9"/>
<path d="M243 130C231.402 130 222 120.598 222 109V109C222 97.402 231.402 88 243 88V88C254.598 88 264 97.402 264 109V109C264 120.598 254.598 130 243 130V130Z" fill="#74B7C9"/>
<path d="M111 130C99.402 130 90 120.598 90 109V109C90 97.402 99.402 88 111 88V88C122.598 88 132 97.402 132 109V109C132 120.598 122.598 130 111 130V130Z" fill="#74B7C9"/>
<path d="M198 130C186.402 130 177 120.598 177 109V109C177 97.402 186.402 88 198 88V88C209.598 88 219 97.402 219 109V109C219 120.598 209.598 130 198 130V130Z" fill="#74B7C9"/>
<path d="M66 130C54.402 130 45 120.598 45 109V109C45 97.402 54.402 88 66 88V88C77.598 88 87 97.402 87 109V109C87 120.598 77.598 130 66 130V130Z" fill="#74B7C9"/>
<path d="M66 358C77.598 358 87 348.598 87 337V337C87 325.402 77.598 316 66 316V316C54.402 316 45 325.402 45 337V337C45 348.598 54.402 358 66 358V358Z" fill="#74B7C9"/>
<path d="M198 358C209.598 358 219 348.598 219 337V337C219 325.402 209.598 316 198 316V316C186.402 316 177 325.402 177 337V337C177 348.598 186.402 358 198 358V358Z" fill="#74B7C9"/>
<path d="M330 358C341.598 358 351 348.598 351 337V337C351 325.402 341.598 316 330 316V316C318.402 316 309 325.402 309 337V337C309 348.598 318.402 358 330 358V358Z" fill="#74B7C9"/>
<path d="M21 358C32.598 358 42 348.598 42 337V337C42 325.402 32.598 316 21 316V316C9.40202 316 1.42771e-06 325.402 1.17423e-06 337V337C9.20743e-07 348.598 9.40202 358 21 358V358Z" fill="#74B7C9"/>
<path d="M153 358C164.598 358 174 348.598 174 337V337C174 325.402 164.598 316 153 316V316C141.402 316 132 325.402 132 337V337C132 348.598 141.402 358 153 358V358Z" fill="#74B7C9"/>
<path d="M285 358C296.598 358 306 348.598 306 337V337C306 325.402 296.598 316 285 316V316C273.402 316 264 325.402 264 337V337C264 348.598 273.402 358 285 358V358Z" fill="#74B7C9"/>
<path d="M111 313C122.598 313 132 303.598 132 292V292C132 280.402 122.598 271 111 271V271C99.402 271 90 280.402 90 292V292C90 303.598 99.402 313 111 313V313Z" fill="#74B7C9"/>
<path d="M243 313C254.598 313 264 303.598 264 292V292C264 280.402 254.598 271 243 271V271C231.402 271 222 280.402 222 292V292C222 303.598 231.402 313 243 313V313Z" fill="#74B7C9"/>
<path d="M375 313C386.598 313 396 303.598 396 292V292C396 280.402 386.598 271 375 271V271C363.402 271 354 280.402 354 292V292C354 303.598 363.402 313 375 313V313Z" fill="#74B7C9"/>
<path d="M66 313C77.598 313 87 303.598 87 292V292C87 280.402 77.598 271 66 271V271C54.402 271 45 280.402 45 292V292C45 303.598 54.402 313 66 313V313Z" fill="#74B7C9"/>
<path d="M198 313C209.598 313 219 303.598 219 292V292C219 280.402 209.598 271 198 271V271C186.402 271 177 280.402 177 292V292C177 303.598 186.402 313 198 313V313Z" fill="#74B7C9"/>
<path d="M330 313C341.598 313 351 303.598 351 292V292C351 280.402 341.598 271 330 271V271C318.402 271 309 280.402 309 292V292C309 303.598 318.402 313 330 313V313Z" fill="#74B7C9"/>
<path d="M108 403C119.598 403 129 393.598 129 382V382C129 370.402 119.598 361 108 361V361C96.402 361 87 370.402 87 382V382C87 393.598 96.402 403 108 403V403Z" fill="#74B7C9"/>
<path d="M240 403C251.598 403 261 393.598 261 382V382C261 370.402 251.598 361 240 361V361C228.402 361 219 370.402 219 382V382C219 393.598 228.402 403 240 403V403Z" fill="#74B7C9"/>
<path d="M21 403C32.598 403 42 393.598 42 382V382C42 370.402 32.598 361 21 361V361C9.40202 361 1.52418e-06 370.402 1.2707e-06 382V382C1.01721e-06 393.598 9.40202 403 21 403V403Z" fill="#74B7C9"/>
<path d="M153 403C164.598 403 174 393.598 174 382V382C174 370.402 164.598 361 153 361V361C141.402 361 132 370.402 132 382V382C132 393.598 141.402 403 153 403V403Z" fill="#74B7C9"/>
<path d="M285 403C296.598 403 306 393.598 306 382V382C306 370.402 296.598 361 285 361V361C273.402 361 264 370.402 264 382V382C264 393.598 273.402 403 285 403V403Z" fill="#74B7C9"/>
<path d="M66 178C77.598 178 87 187.402 87 199V199C87 210.598 77.598 220 66 220V220C54.402 220 45 210.598 45 199V199C45 187.402 54.402 178 66 178V178Z" fill="#74B7C9"/>
<path d="M198 178C209.598 178 219 187.402 219 199V199C219 210.598 209.598 220 198 220V220C186.402 220 177 210.598 177 199V199C177 187.402 186.402 178 198 178V178Z" fill="#74B7C9"/>
<path d="M330 178C341.598 178 351 187.402 351 199V199C351 210.598 341.598 220 330 220V220C318.402 220 309 210.598 309 199V199C309 187.402 318.402 178 330 178V178Z" fill="#74B7C9"/>
<path d="M21 178C32.598 178 42 187.402 42 199V199C42 210.598 32.598 220 21 220V220C9.40202 220 1.42771e-06 210.598 1.17423e-06 199V199C9.20743e-07 187.402 9.40202 178 21 178V178Z" fill="#74B7C9"/>
<path d="M153 178C164.598 178 174 187.402 174 199V199C174 210.598 164.598 220 153 220V220C141.402 220 132 210.598 132 199V199C132 187.402 141.402 178 153 178V178Z" fill="#74B7C9"/>
<path d="M285 178C296.598 178 306 187.402 306 199V199C306 210.598 296.598 220 285 220V220C273.402 220 264 210.598 264 199V199C264 187.402 273.402 178 285 178V178Z" fill="#74B7C9"/>
<path d="M111 223C122.598 223 132 232.402 132 244V244C132 255.598 122.598 265 111 265V265C99.402 265 90 255.598 90 244V244C90 232.402 99.402 223 111 223V223Z" fill="#74B7C9"/>
<path d="M243 223C254.598 223 264 232.402 264 244V244C264 255.598 254.598 265 243 265V265C231.402 265 222 255.598 222 244V244C222 232.402 231.402 223 243 223V223Z" fill="#74B7C9"/>
<path d="M375 223C386.598 223 396 232.402 396 244V244C396 255.598 386.598 265 375 265V265C363.402 265 354 255.598 354 244V244C354 232.402 363.402 223 375 223V223Z" fill="#74B7C9"/>
<path d="M66 223C77.598 223 87 232.402 87 244V244C87 255.598 77.598 265 66 265V265C54.402 265 45 255.598 45 244V244C45 232.402 54.402 223 66 223V223Z" fill="#74B7C9"/>
<path d="M198 223C209.598 223 219 232.402 219 244V244C219 255.598 209.598 265 198 265V265C186.402 265 177 255.598 177 244V244C177 232.402 186.402 223 198 223V223Z" fill="#74B7C9"/>
<path d="M330 223C341.598 223 351 232.402 351 244V244C351 255.598 341.598 265 330 265V265C318.402 265 309 255.598 309 244V244C309 232.402 318.402 223 330 223V223Z" fill="#74B7C9"/>
<path d="M108 133C119.598 133 129 142.402 129 154V154C129 165.598 119.598 175 108 175V175C96.402 175 87 165.598 87 154V154C87 142.402 96.402 133 108 133V133Z" fill="#74B7C9"/>
<path d="M240 133C251.598 133 261 142.402 261 154V154C261 165.598 251.598 175 240 175V175C228.402 175 219 165.598 219 154V154C219 142.402 228.402 133 240 133V133Z" fill="#74B7C9"/>
<path d="M21 133C32.598 133 42 142.402 42 154V154C42 165.598 32.598 175 21 175V175C9.40202 175 1.52418e-06 165.598 1.2707e-06 154V154C1.01721e-06 142.402 9.40202 133 21 133V133Z" fill="#74B7C9"/>
<path d="M153 133C164.598 133 174 142.402 174 154V154C174 165.598 164.598 175 153 175V175C141.402 175 132 165.598 132 154V154C132 142.402 141.402 133 153 133V133Z" fill="#74B7C9"/>
<path d="M285 133C296.598 133 306 142.402 306 154V154C306 165.598 296.598 175 285 175V175C273.402 175 264 165.598 264 154V154C264 142.402 273.402 133 285 133V133Z" fill="#74B7C9"/>
<path d="M285 724C273.402 724 264 733.402 264 745V745C264 756.598 273.402 766 285 766V766C296.598 766 306 756.598 306 745V745C306 733.402 296.598 724 285 724V724Z" fill="#74B7C9"/>
<path d="M330 724C318.402 724 309 733.402 309 745V745C309 756.598 318.402 766 330 766V766C341.598 766 351 756.598 351 745V745C351 733.402 341.598 724 330 724V724Z" fill="#74B7C9"/>
<path d="M240 769C228.402 769 219 778.402 219 790V790C219 801.598 228.402 811 240 811V811C251.598 811 261 801.598 261 790V790C261 778.402 251.598 769 240 769V769Z" fill="#74B7C9"/>
<path d="M285 769C273.402 769 264 778.402 264 790V790C264 801.598 273.402 811 285 811V811C296.598 811 306 801.598 306 790V790C306 778.402 296.598 769 285 769V769Z" fill="#74B7C9"/>
<path d="M375 679C363.402 679 354 688.402 354 700V700C354 711.598 363.402 721 375 721V721C386.598 721 396 711.598 396 700V700C396 688.402 386.598 679 375 679V679Z" fill="#74B7C9"/>
<path d="M330 679C318.402 679 309 688.402 309 700V700C309 711.598 318.402 721 330 721V721C341.598 721 351 711.598 351 700V700C351 688.402 341.598 679 330 679V679Z" fill="#74B7C9"/>
<path d="M153 724C141.402 724 132 733.402 132 745V745C132 756.598 141.402 766 153 766V766C164.598 766 174 756.598 174 745V745C174 733.402 164.598 724 153 724V724Z" fill="#74B7C9"/>
<path d="M21 724C9.40202 724 -2.05488e-07 733.402 -4.5897e-07 745V745C-7.12451e-07 756.598 9.40202 766 21 766V766C32.598 766 42 756.598 42 745V745C42 733.402 32.598 724 21 724V724Z" fill="#74B7C9"/>
<path d="M198 724C186.402 724 177 733.402 177 745V745C177 756.598 186.402 766 198 766V766C209.598 766 219 756.598 219 745V745C219 733.402 209.598 724 198 724V724Z" fill="#74B7C9"/>
<path d="M66 724C54.402 724 45 733.402 45 745V745C45 756.598 54.402 766 66 766V766C77.598 766 87 756.598 87 745V745C87 733.402 77.598 724 66 724V724Z" fill="#74B7C9"/>
<path d="M108 769C96.402 769 87 778.402 87 790V790C87 801.598 96.402 811 108 811V811C119.598 811 129 801.598 129 790V790C129 778.402 119.598 769 108 769V769Z" fill="#74B7C9"/>
<path d="M153 769C141.402 769 132 778.402 132 790V790C132 801.598 141.402 811 153 811V811C164.598 811 174 801.598 174 790V790C174 778.402 164.598 769 153 769V769Z" fill="#74B7C9"/>
<path d="M21 769C9.40202 769 -2.05488e-07 778.402 -4.5897e-07 790V790C-7.12451e-07 801.598 9.40202 811 21 811V811C32.598 811 42 801.598 42 790V790C42 778.402 32.598 769 21 769V769Z" fill="#74B7C9"/>
<path d="M243 679C231.402 679 222 688.402 222 700V700C222 711.598 231.402 721 243 721V721C254.598 721 264 711.598 264 700V700C264 688.402 254.598 679 243 679V679Z" fill="#74B7C9"/>
<path d="M111 679C99.402 679 90 688.402 90 700V700C90 711.598 99.402 721 111 721V721C122.598 721 132 711.598 132 700V700C132 688.402 122.598 679 111 679V679Z" fill="#74B7C9"/>
<path d="M198 679C186.402 679 177 688.402 177 700V700C177 711.598 186.402 721 198 721V721C209.598 721 219 711.598 219 700V700C219 688.402 209.598 679 198 679V679Z" fill="#74B7C9"/>
<path d="M66 679C54.402 679 45 688.402 45 700V700C45 711.598 54.402 721 66 721V721C77.598 721 87 711.598 87 700V700C87 688.402 77.598 679 66 679V679Z" fill="#74B7C9"/>
<path d="M66 451C77.598 451 87 460.402 87 472V472C87 483.598 77.598 493 66 493V493C54.402 493 45 483.598 45 472V472C45 460.402 54.402 451 66 451V451Z" fill="#74B7C9"/>
<path d="M198 451C209.598 451 219 460.402 219 472V472C219 483.598 209.598 493 198 493V493C186.402 493 177 483.598 177 472V472C177 460.402 186.402 451 198 451V451Z" fill="#74B7C9"/>
<path d="M330 451C341.598 451 351 460.402 351 472V472C351 483.598 341.598 493 330 493V493C318.402 493 309 483.598 309 472V472C309 460.402 318.402 451 330 451V451Z" fill="#74B7C9"/>
<path d="M21 451C32.598 451 42 460.402 42 472V472C42 483.598 32.598 493 21 493V493C9.40202 493 1.42771e-06 483.598 1.17423e-06 472V472C9.20743e-07 460.402 9.40202 451 21 451V451Z" fill="#74B7C9"/>
<path d="M153 451C164.598 451 174 460.402 174 472V472C174 483.598 164.598 493 153 493V493C141.402 493 132 483.598 132 472V472C132 460.402 141.402 451 153 451V451Z" fill="#74B7C9"/>
<path d="M285 451C296.598 451 306 460.402 306 472V472C306 483.598 296.598 493 285 493V493C273.402 493 264 483.598 264 472V472C264 460.402 273.402 451 285 451V451Z" fill="#74B7C9"/>
<path d="M111 496C122.598 496 132 505.402 132 517V517C132 528.598 122.598 538 111 538V538C99.402 538 90 528.598 90 517V517C90 505.402 99.402 496 111 496V496Z" fill="#74B7C9"/>
<path d="M243 496C254.598 496 264 505.402 264 517V517C264 528.598 254.598 538 243 538V538C231.402 538 222 528.598 222 517V517C222 505.402 231.402 496 243 496V496Z" fill="#74B7C9"/>
<path d="M375 496C386.598 496 396 505.402 396 517V517C396 528.598 386.598 538 375 538V538C363.402 538 354 528.598 354 517V517C354 505.402 363.402 496 375 496V496Z" fill="#74B7C9"/>
<path d="M66 496C77.598 496 87 505.402 87 517V517C87 528.598 77.598 538 66 538V538C54.402 538 45 528.598 45 517V517C45 505.402 54.402 496 66 496V496Z" fill="#74B7C9"/>
<path d="M198 496C209.598 496 219 505.402 219 517V517C219 528.598 209.598 538 198 538V538C186.402 538 177 528.598 177 517V517C177 505.402 186.402 496 198 496V496Z" fill="#74B7C9"/>
<path d="M330 496C341.598 496 351 505.402 351 517V517C351 528.598 341.598 538 330 538V538C318.402 538 309 528.598 309 517V517C309 505.402 318.402 496 330 496V496Z" fill="#74B7C9"/>
<path d="M108 406C119.598 406 129 415.402 129 427V427C129 438.598 119.598 448 108 448V448C96.402 448 87 438.598 87 427V427C87 415.402 96.402 406 108 406V406Z" fill="#74B7C9"/>
<path d="M240 406C251.598 406 261 415.402 261 427V427C261 438.598 251.598 448 240 448V448C228.402 448 219 438.598 219 427V427C219 415.402 228.402 406 240 406V406Z" fill="#74B7C9"/>
<path d="M21 406C32.598 406 42 415.402 42 427V427C42 438.598 32.598 448 21 448V448C9.40202 448 1.52418e-06 438.598 1.2707e-06 427V427C1.01721e-06 415.402 9.40202 406 21 406V406Z" fill="#74B7C9"/>
<path d="M153 406C164.598 406 174 415.402 174 427V427C174 438.598 164.598 448 153 448V448C141.402 448 132 438.598 132 427V427C132 415.402 141.402 406 153 406V406Z" fill="#74B7C9"/>
<path d="M285 406C296.598 406 306 415.402 306 427V427C306 438.598 296.598 448 285 448V448C273.402 448 264 438.598 264 427V427C264 415.402 273.402 406 285 406V406Z" fill="#74B7C9"/>
<path d="M66 631C77.598 631 87 621.598 87 610V610C87 598.402 77.598 589 66 589V589C54.402 589 45 598.402 45 610V610C45 621.598 54.402 631 66 631V631Z" fill="#74B7C9"/>
<path d="M198 631C209.598 631 219 621.598 219 610V610C219 598.402 209.598 589 198 589V589C186.402 589 177 598.402 177 610V610C177 621.598 186.402 631 198 631V631Z" fill="#74B7C9"/>
<path d="M330 631C341.598 631 351 621.598 351 610V610C351 598.402 341.598 589 330 589V589C318.402 589 309 598.402 309 610V610C309 621.598 318.402 631 330 631V631Z" fill="#74B7C9"/>
<path d="M21 631C32.598 631 42 621.598 42 610V610C42 598.402 32.598 589 21 589V589C9.40202 589 1.42771e-06 598.402 1.17423e-06 610V610C9.20743e-07 621.598 9.40202 631 21 631V631Z" fill="#74B7C9"/>
<path d="M153 631C164.598 631 174 621.598 174 610V610C174 598.402 164.598 589 153 589V589C141.402 589 132 598.402 132 610V610C132 621.598 141.402 631 153 631V631Z" fill="#74B7C9"/>
<path d="M285 631C296.598 631 306 621.598 306 610V610C306 598.402 296.598 589 285 589V589C273.402 589 264 598.402 264 610V610C264 621.598 273.402 631 285 631V631Z" fill="#74B7C9"/>
<path d="M111 586C122.598 586 132 576.598 132 565V565C132 553.402 122.598 544 111 544V544C99.402 544 90 553.402 90 565V565C90 576.598 99.402 586 111 586V586Z" fill="#74B7C9"/>
<path d="M243 586C254.598 586 264 576.598 264 565V565C264 553.402 254.598 544 243 544V544C231.402 544 222 553.402 222 565V565C222 576.598 231.402 586 243 586V586Z" fill="#74B7C9"/>
<path d="M375 586C386.598 586 396 576.598 396 565V565C396 553.402 386.598 544 375 544V544C363.402 544 354 553.402 354 565V565C354 576.598 363.402 586 375 586V586Z" fill="#74B7C9"/>
<path d="M66 586C77.598 586 87 576.598 87 565V565C87 553.402 77.598 544 66 544V544C54.402 544 45 553.402 45 565V565C45 576.598 54.402 586 66 586V586Z" fill="#74B7C9"/>
<path d="M198 586C209.598 586 219 576.598 219 565V565C219 553.402 209.598 544 198 544V544C186.402 544 177 553.402 177 565V565C177 576.598 186.402 586 198 586V586Z" fill="#74B7C9"/>
<path d="M330 586C341.598 586 351 576.598 351 565V565C351 553.402 341.598 544 330 544V544C318.402 544 309 553.402 309 565V565C309 576.598 318.402 586 330 586V586Z" fill="#74B7C9"/>
<path d="M108 676C119.598 676 129 666.598 129 655V655C129 643.402 119.598 634 108 634V634C96.402 634 87 643.402 87 655V655C87 666.598 96.402 676 108 676V676Z" fill="#74B7C9"/>
<path d="M240 676C251.598 676 261 666.598 261 655V655C261 643.402 251.598 634 240 634V634C228.402 634 219 643.402 219 655V655C219 666.598 228.402 676 240 676V676Z" fill="#74B7C9"/>
<path d="M21 676C32.598 676 42 666.598 42 655V655C42 643.402 32.598 634 21 634V634C9.40202 634 1.52418e-06 643.402 1.2707e-06 655V655C1.01721e-06 666.598 9.40202 676 21 676V676Z" fill="#74B7C9"/>
<path d="M153 676C164.598 676 174 666.598 174 655V655C174 643.402 164.598 634 153 634V634C141.402 634 132 643.402 132 655V655C132 666.598 141.402 676 153 676V676Z" fill="#74B7C9"/>
<path d="M285 676C296.598 676 306 666.598 306 655V655C306 643.402 296.598 634 285 634V634C273.402 634 264 643.402 264 655V655C264 666.598 273.402 676 285 676V676Z" fill="#74B7C9"/>
<path d="M1155 85C1166.6 85 1176 75.598 1176 64V64C1176 52.402 1166.6 43 1155 43V43C1143.4 43 1134 52.402 1134 64V64C1134 75.598 1143.4 85 1155 85V85Z" fill="#74B7C9"/>
<path d="M1110 85C1121.6 85 1131 75.598 1131 64V64C1131 52.402 1121.6 43 1110 43V43C1098.4 43 1089 52.402 1089 64V64C1089 75.598 1098.4 85 1110 85V85Z" fill="#74B7C9"/>
<path d="M1200 40C1211.6 40 1221 30.598 1221 19V19C1221 7.40202 1211.6 -2 1200 -2V-2C1188.4 -2 1179 7.40202 1179 19V19C1179 30.598 1188.4 40 1200 40V40Z" fill="#74B7C9"/>
<path d="M1155 40C1166.6 40 1176 30.598 1176 19V19C1176 7.40202 1166.6 -2 1155 -2V-2C1143.4 -2 1134 7.40202 1134 19V19C1134 30.598 1143.4 40 1155 40V40Z" fill="#74B7C9"/>
<path d="M1065 130C1076.6 130 1086 120.598 1086 109V109C1086 97.402 1076.6 88 1065 88V88C1053.4 88 1044 97.402 1044 109V109C1044 120.598 1053.4 130 1065 130V130Z" fill="#74B7C9"/>
<path d="M1110 130C1121.6 130 1131 120.598 1131 109V109C1131 97.402 1121.6 88 1110 88V88C1098.4 88 1089 97.402 1089 109V109C1089 120.598 1098.4 130 1110 130V130Z" fill="#74B7C9"/>
<path d="M1287 85C1298.6 85 1308 75.598 1308 64V64C1308 52.402 1298.6 43 1287 43V43C1275.4 43 1266 52.402 1266 64V64C1266 75.598 1275.4 85 1287 85V85Z" fill="#74B7C9"/>
<path d="M1419 85C1430.6 85 1440 75.598 1440 64V64C1440 52.402 1430.6 43 1419 43V43C1407.4 43 1398 52.402 1398 64V64C1398 75.598 1407.4 85 1419 85V85Z" fill="#74B7C9"/>
<path d="M1242 85C1253.6 85 1263 75.598 1263 64V64C1263 52.402 1253.6 43 1242 43V43C1230.4 43 1221 52.402 1221 64V64C1221 75.598 1230.4 85 1242 85V85Z" fill="#74B7C9"/>
<path d="M1374 85C1385.6 85 1395 75.598 1395 64V64C1395 52.402 1385.6 43 1374 43V43C1362.4 43 1353 52.402 1353 64V64C1353 75.598 1362.4 85 1374 85V85Z" fill="#74B7C9"/>
<path d="M1332 40C1343.6 40 1353 30.598 1353 19V19C1353 7.40202 1343.6 -2 1332 -2V-2C1320.4 -2 1311 7.40202 1311 19V19C1311 30.598 1320.4 40 1332 40V40Z" fill="#74B7C9"/>
<path d="M1287 40C1298.6 40 1308 30.598 1308 19V19C1308 7.40202 1298.6 -2 1287 -2V-2C1275.4 -2 1266 7.40202 1266 19V19C1266 30.598 1275.4 40 1287 40V40Z" fill="#74B7C9"/>
<path d="M1419 40C1430.6 40 1440 30.598 1440 19V19C1440 7.40202 1430.6 -2 1419 -2V-2C1407.4 -2 1398 7.40202 1398 19V19C1398 30.598 1407.4 40 1419 40V40Z" fill="#74B7C9"/>
<path d="M1197 130C1208.6 130 1218 120.598 1218 109V109C1218 97.402 1208.6 88 1197 88V88C1185.4 88 1176 97.402 1176 109V109C1176 120.598 1185.4 130 1197 130V130Z" fill="#74B7C9"/>
<path d="M1329 130C1340.6 130 1350 120.598 1350 109V109C1350 97.402 1340.6 88 1329 88V88C1317.4 88 1308 97.402 1308 109V109C1308 120.598 1317.4 130 1329 130V130Z" fill="#74B7C9"/>
<path d="M1242 130C1253.6 130 1263 120.598 1263 109V109C1263 97.402 1253.6 88 1242 88V88C1230.4 88 1221 97.402 1221 109V109C1221 120.598 1230.4 130 1242 130V130Z" fill="#74B7C9"/>
<path d="M1374 130C1385.6 130 1395 120.598 1395 109V109C1395 97.402 1385.6 88 1374 88V88C1362.4 88 1353 97.402 1353 109V109C1353 120.598 1362.4 130 1374 130V130Z" fill="#74B7C9"/>
<path d="M1374 358C1362.4 358 1353 348.598 1353 337V337C1353 325.402 1362.4 316 1374 316V316C1385.6 316 1395 325.402 1395 337V337C1395 348.598 1385.6 358 1374 358V358Z" fill="#74B7C9"/>
<path d="M1242 358C1230.4 358 1221 348.598 1221 337V337C1221 325.402 1230.4 316 1242 316V316C1253.6 316 1263 325.402 1263 337V337C1263 348.598 1253.6 358 1242 358V358Z" fill="#74B7C9"/>
<path d="M1110 358C1098.4 358 1089 348.598 1089 337V337C1089 325.402 1098.4 316 1110 316V316C1121.6 316 1131 325.402 1131 337V337C1131 348.598 1121.6 358 1110 358V358Z" fill="#74B7C9"/>
<path d="M1419 358C1407.4 358 1398 348.598 1398 337V337C1398 325.402 1407.4 316 1419 316V316C1430.6 316 1440 325.402 1440 337V337C1440 348.598 1430.6 358 1419 358V358Z" fill="#74B7C9"/>
<path d="M1287 358C1275.4 358 1266 348.598 1266 337V337C1266 325.402 1275.4 316 1287 316V316C1298.6 316 1308 325.402 1308 337V337C1308 348.598 1298.6 358 1287 358V358Z" fill="#74B7C9"/>
<path d="M1155 358C1143.4 358 1134 348.598 1134 337V337C1134 325.402 1143.4 316 1155 316V316C1166.6 316 1176 325.402 1176 337V337C1176 348.598 1166.6 358 1155 358V358Z" fill="#74B7C9"/>
<path d="M1329 313C1317.4 313 1308 303.598 1308 292V292C1308 280.402 1317.4 271 1329 271V271C1340.6 271 1350 280.402 1350 292V292C1350 303.598 1340.6 313 1329 313V313Z" fill="#74B7C9"/>
<path d="M1197 313C1185.4 313 1176 303.598 1176 292V292C1176 280.402 1185.4 271 1197 271V271C1208.6 271 1218 280.402 1218 292V292C1218 303.598 1208.6 313 1197 313V313Z" fill="#74B7C9"/>
<path d="M1065 313C1053.4 313 1044 303.598 1044 292V292C1044 280.402 1053.4 271 1065 271V271C1076.6 271 1086 280.402 1086 292V292C1086 303.598 1076.6 313 1065 313V313Z" fill="#74B7C9"/>
<path d="M1374 313C1362.4 313 1353 303.598 1353 292V292C1353 280.402 1362.4 271 1374 271V271C1385.6 271 1395 280.402 1395 292V292C1395 303.598 1385.6 313 1374 313V313Z" fill="#74B7C9"/>
<path d="M1242 313C1230.4 313 1221 303.598 1221 292V292C1221 280.402 1230.4 271 1242 271V271C1253.6 271 1263 280.402 1263 292V292C1263 303.598 1253.6 313 1242 313V313Z" fill="#74B7C9"/>
<path d="M1110 313C1098.4 313 1089 303.598 1089 292V292C1089 280.402 1098.4 271 1110 271V271C1121.6 271 1131 280.402 1131 292V292C1131 303.598 1121.6 313 1110 313V313Z" fill="#74B7C9"/>
<path d="M1332 403C1320.4 403 1311 393.598 1311 382V382C1311 370.402 1320.4 361 1332 361V361C1343.6 361 1353 370.402 1353 382V382C1353 393.598 1343.6 403 1332 403V403Z" fill="#74B7C9"/>
<path d="M1200 403C1188.4 403 1179 393.598 1179 382V382C1179 370.402 1188.4 361 1200 361V361C1211.6 361 1221 370.402 1221 382V382C1221 393.598 1211.6 403 1200 403V403Z" fill="#74B7C9"/>
<path d="M1419 403C1407.4 403 1398 393.598 1398 382V382C1398 370.402 1407.4 361 1419 361V361C1430.6 361 1440 370.402 1440 382V382C1440 393.598 1430.6 403 1419 403V403Z" fill="#74B7C9"/>
<path d="M1287 403C1275.4 403 1266 393.598 1266 382V382C1266 370.402 1275.4 361 1287 361V361C1298.6 361 1308 370.402 1308 382V382C1308 393.598 1298.6 403 1287 403V403Z" fill="#74B7C9"/>
<path d="M1155 403C1143.4 403 1134 393.598 1134 382V382C1134 370.402 1143.4 361 1155 361V361C1166.6 361 1176 370.402 1176 382V382C1176 393.598 1166.6 403 1155 403V403Z" fill="#74B7C9"/>
<path d="M1374 178C1362.4 178 1353 187.402 1353 199V199C1353 210.598 1362.4 220 1374 220V220C1385.6 220 1395 210.598 1395 199V199C1395 187.402 1385.6 178 1374 178V178Z" fill="#74B7C9"/>
<path d="M1242 178C1230.4 178 1221 187.402 1221 199V199C1221 210.598 1230.4 220 1242 220V220C1253.6 220 1263 210.598 1263 199V199C1263 187.402 1253.6 178 1242 178V178Z" fill="#74B7C9"/>
<path d="M1110 178C1098.4 178 1089 187.402 1089 199V199C1089 210.598 1098.4 220 1110 220V220C1121.6 220 1131 210.598 1131 199V199C1131 187.402 1121.6 178 1110 178V178Z" fill="#74B7C9"/>
<path d="M1419 178C1407.4 178 1398 187.402 1398 199V199C1398 210.598 1407.4 220 1419 220V220C1430.6 220 1440 210.598 1440 199V199C1440 187.402 1430.6 178 1419 178V178Z" fill="#74B7C9"/>
<path d="M1287 178C1275.4 178 1266 187.402 1266 199V199C1266 210.598 1275.4 220 1287 220V220C1298.6 220 1308 210.598 1308 199V199C1308 187.402 1298.6 178 1287 178V178Z" fill="#74B7C9"/>
<path d="M1155 178C1143.4 178 1134 187.402 1134 199V199C1134 210.598 1143.4 220 1155 220V220C1166.6 220 1176 210.598 1176 199V199C1176 187.402 1166.6 178 1155 178V178Z" fill="#74B7C9"/>
<path d="M1329 223C1317.4 223 1308 232.402 1308 244V244C1308 255.598 1317.4 265 1329 265V265C1340.6 265 1350 255.598 1350 244V244C1350 232.402 1340.6 223 1329 223V223Z" fill="#74B7C9"/>
<path d="M1197 223C1185.4 223 1176 232.402 1176 244V244C1176 255.598 1185.4 265 1197 265V265C1208.6 265 1218 255.598 1218 244V244C1218 232.402 1208.6 223 1197 223V223Z" fill="#74B7C9"/>
<path d="M1065 223C1053.4 223 1044 232.402 1044 244V244C1044 255.598 1053.4 265 1065 265V265C1076.6 265 1086 255.598 1086 244V244C1086 232.402 1076.6 223 1065 223V223Z" fill="#74B7C9"/>
<path d="M1374 223C1362.4 223 1353 232.402 1353 244V244C1353 255.598 1362.4 265 1374 265V265C1385.6 265 1395 255.598 1395 244V244C1395 232.402 1385.6 223 1374 223V223Z" fill="#74B7C9"/>
<path d="M1242 223C1230.4 223 1221 232.402 1221 244V244C1221 255.598 1230.4 265 1242 265V265C1253.6 265 1263 255.598 1263 244V244C1263 232.402 1253.6 223 1242 223V223Z" fill="#74B7C9"/>
<path d="M1110 223C1098.4 223 1089 232.402 1089 244V244C1089 255.598 1098.4 265 1110 265V265C1121.6 265 1131 255.598 1131 244V244C1131 232.402 1121.6 223 1110 223V223Z" fill="#74B7C9"/>
<path d="M1332 133C1320.4 133 1311 142.402 1311 154V154C1311 165.598 1320.4 175 1332 175V175C1343.6 175 1353 165.598 1353 154V154C1353 142.402 1343.6 133 1332 133V133Z" fill="#74B7C9"/>
<path d="M1200 133C1188.4 133 1179 142.402 1179 154V154C1179 165.598 1188.4 175 1200 175V175C1211.6 175 1221 165.598 1221 154V154C1221 142.402 1211.6 133 1200 133V133Z" fill="#74B7C9"/>
<path d="M1419 133C1407.4 133 1398 142.402 1398 154V154C1398 165.598 1407.4 175 1419 175V175C1430.6 175 1440 165.598 1440 154V154C1440 142.402 1430.6 133 1419 133V133Z" fill="#74B7C9"/>
<path d="M1287 133C1275.4 133 1266 142.402 1266 154V154C1266 165.598 1275.4 175 1287 175V175C1298.6 175 1308 165.598 1308 154V154C1308 142.402 1298.6 133 1287 133V133Z" fill="#74B7C9"/>
<path d="M1155 133C1143.4 133 1134 142.402 1134 154V154C1134 165.598 1143.4 175 1155 175V175C1166.6 175 1176 165.598 1176 154V154C1176 142.402 1166.6 133 1155 133V133Z" fill="#74B7C9"/>
<path d="M1155 724C1166.6 724 1176 733.402 1176 745V745C1176 756.598 1166.6 766 1155 766V766C1143.4 766 1134 756.598 1134 745V745C1134 733.402 1143.4 724 1155 724V724Z" fill="#74B7C9"/>
<path d="M1110 724C1121.6 724 1131 733.402 1131 745V745C1131 756.598 1121.6 766 1110 766V766C1098.4 766 1089 756.598 1089 745V745C1089 733.402 1098.4 724 1110 724V724Z" fill="#74B7C9"/>
<path d="M1200 769C1211.6 769 1221 778.402 1221 790V790C1221 801.598 1211.6 811 1200 811V811C1188.4 811 1179 801.598 1179 790V790C1179 778.402 1188.4 769 1200 769V769Z" fill="#74B7C9"/>
<path d="M1155 769C1166.6 769 1176 778.402 1176 790V790C1176 801.598 1166.6 811 1155 811V811C1143.4 811 1134 801.598 1134 790V790C1134 778.402 1143.4 769 1155 769V769Z" fill="#74B7C9"/>
<path d="M1065 679C1076.6 679 1086 688.402 1086 700V700C1086 711.598 1076.6 721 1065 721V721C1053.4 721 1044 711.598 1044 700V700C1044 688.402 1053.4 679 1065 679V679Z" fill="#74B7C9"/>
<path d="M1110 679C1121.6 679 1131 688.402 1131 700V700C1131 711.598 1121.6 721 1110 721V721C1098.4 721 1089 711.598 1089 700V700C1089 688.402 1098.4 679 1110 679V679Z" fill="#74B7C9"/>
<path d="M1287 724C1298.6 724 1308 733.402 1308 745V745C1308 756.598 1298.6 766 1287 766V766C1275.4 766 1266 756.598 1266 745V745C1266 733.402 1275.4 724 1287 724V724Z" fill="#74B7C9"/>
<path d="M1419 724C1430.6 724 1440 733.402 1440 745V745C1440 756.598 1430.6 766 1419 766V766C1407.4 766 1398 756.598 1398 745V745C1398 733.402 1407.4 724 1419 724V724Z" fill="#74B7C9"/>
<path d="M1242 724C1253.6 724 1263 733.402 1263 745V745C1263 756.598 1253.6 766 1242 766V766C1230.4 766 1221 756.598 1221 745V745C1221 733.402 1230.4 724 1242 724V724Z" fill="#74B7C9"/>
<path d="M1374 724C1385.6 724 1395 733.402 1395 745V745C1395 756.598 1385.6 766 1374 766V766C1362.4 766 1353 756.598 1353 745V745C1353 733.402 1362.4 724 1374 724V724Z" fill="#74B7C9"/>
<path d="M1332 769C1343.6 769 1353 778.402 1353 790V790C1353 801.598 1343.6 811 1332 811V811C1320.4 811 1311 801.598 1311 790V790C1311 778.402 1320.4 769 1332 769V769Z" fill="#74B7C9"/>
<path d="M1287 769C1298.6 769 1308 778.402 1308 790V790C1308 801.598 1298.6 811 1287 811V811C1275.4 811 1266 801.598 1266 790V790C1266 778.402 1275.4 769 1287 769V769Z" fill="#74B7C9"/>
<path d="M1419 769C1430.6 769 1440 778.402 1440 790V790C1440 801.598 1430.6 811 1419 811V811C1407.4 811 1398 801.598 1398 790V790C1398 778.402 1407.4 769 1419 769V769Z" fill="#74B7C9"/>
<path d="M1197 679C1208.6 679 1218 688.402 1218 700V700C1218 711.598 1208.6 721 1197 721V721C1185.4 721 1176 711.598 1176 700V700C1176 688.402 1185.4 679 1197 679V679Z" fill="#74B7C9"/>
<path d="M1329 679C1340.6 679 1350 688.402 1350 700V700C1350 711.598 1340.6 721 1329 721V721C1317.4 721 1308 711.598 1308 700V700C1308 688.402 1317.4 679 1329 679V679Z" fill="#74B7C9"/>
<path d="M1242 679C1253.6 679 1263 688.402 1263 700V700C1263 711.598 1253.6 721 1242 721V721C1230.4 721 1221 711.598 1221 700V700C1221 688.402 1230.4 679 1242 679V679Z" fill="#74B7C9"/>
<path d="M1374 679C1385.6 679 1395 688.402 1395 700V700C1395 711.598 1385.6 721 1374 721V721C1362.4 721 1353 711.598 1353 700V700C1353 688.402 1362.4 679 1374 679V679Z" fill="#74B7C9"/>
<path d="M1374 451C1362.4 451 1353 460.402 1353 472V472C1353 483.598 1362.4 493 1374 493V493C1385.6 493 1395 483.598 1395 472V472C1395 460.402 1385.6 451 1374 451V451Z" fill="#74B7C9"/>
<path d="M1242 451C1230.4 451 1221 460.402 1221 472V472C1221 483.598 1230.4 493 1242 493V493C1253.6 493 1263 483.598 1263 472V472C1263 460.402 1253.6 451 1242 451V451Z" fill="#74B7C9"/>
<path d="M1110 451C1098.4 451 1089 460.402 1089 472V472C1089 483.598 1098.4 493 1110 493V493C1121.6 493 1131 483.598 1131 472V472C1131 460.402 1121.6 451 1110 451V451Z" fill="#74B7C9"/>
<path d="M1419 451C1407.4 451 1398 460.402 1398 472V472C1398 483.598 1407.4 493 1419 493V493C1430.6 493 1440 483.598 1440 472V472C1440 460.402 1430.6 451 1419 451V451Z" fill="#74B7C9"/>
<path d="M1287 451C1275.4 451 1266 460.402 1266 472V472C1266 483.598 1275.4 493 1287 493V493C1298.6 493 1308 483.598 1308 472V472C1308 460.402 1298.6 451 1287 451V451Z" fill="#74B7C9"/>
<path d="M1155 451C1143.4 451 1134 460.402 1134 472V472C1134 483.598 1143.4 493 1155 493V493C1166.6 493 1176 483.598 1176 472V472C1176 460.402 1166.6 451 1155 451V451Z" fill="#74B7C9"/>
<path d="M1329 496C1317.4 496 1308 505.402 1308 517V517C1308 528.598 1317.4 538 1329 538V538C1340.6 538 1350 528.598 1350 517V517C1350 505.402 1340.6 496 1329 496V496Z" fill="#74B7C9"/>
<path d="M1197 496C1185.4 496 1176 505.402 1176 517V517C1176 528.598 1185.4 538 1197 538V538C1208.6 538 1218 528.598 1218 517V517C1218 505.402 1208.6 496 1197 496V496Z" fill="#74B7C9"/>
<path d="M1065 496C1053.4 496 1044 505.402 1044 517V517C1044 528.598 1053.4 538 1065 538V538C1076.6 538 1086 528.598 1086 517V517C1086 505.402 1076.6 496 1065 496V496Z" fill="#74B7C9"/>
<path d="M1374 496C1362.4 496 1353 505.402 1353 517V517C1353 528.598 1362.4 538 1374 538V538C1385.6 538 1395 528.598 1395 517V517C1395 505.402 1385.6 496 1374 496V496Z" fill="#74B7C9"/>
<path d="M1242 496C1230.4 496 1221 505.402 1221 517V517C1221 528.598 1230.4 538 1242 538V538C1253.6 538 1263 528.598 1263 517V517C1263 505.402 1253.6 496 1242 496V496Z" fill="#74B7C9"/>
<path d="M1110 496C1098.4 496 1089 505.402 1089 517V517C1089 528.598 1098.4 538 1110 538V538C1121.6 538 1131 528.598 1131 517V517C1131 505.402 1121.6 496 1110 496V496Z" fill="#74B7C9"/>
<path d="M1332 406C1320.4 406 1311 415.402 1311 427V427C1311 438.598 1320.4 448 1332 448V448C1343.6 448 1353 438.598 1353 427V427C1353 415.402 1343.6 406 1332 406V406Z" fill="#74B7C9"/>
<path d="M1200 406C1188.4 406 1179 415.402 1179 427V427C1179 438.598 1188.4 448 1200 448V448C1211.6 448 1221 438.598 1221 427V427C1221 415.402 1211.6 406 1200 406V406Z" fill="#74B7C9"/>
<path d="M1419 406C1407.4 406 1398 415.402 1398 427V427C1398 438.598 1407.4 448 1419 448V448C1430.6 448 1440 438.598 1440 427V427C1440 415.402 1430.6 406 1419 406V406Z" fill="#74B7C9"/>
<path d="M1287 406C1275.4 406 1266 415.402 1266 427V427C1266 438.598 1275.4 448 1287 448V448C1298.6 448 1308 438.598 1308 427V427C1308 415.402 1298.6 406 1287 406V406Z" fill="#74B7C9"/>
<path d="M1155 406C1143.4 406 1134 415.402 1134 427V427C1134 438.598 1143.4 448 1155 448V448C1166.6 448 1176 438.598 1176 427V427C1176 415.402 1166.6 406 1155 406V406Z" fill="#74B7C9"/>
<path d="M1374 631C1362.4 631 1353 621.598 1353 610V610C1353 598.402 1362.4 589 1374 589V589C1385.6 589 1395 598.402 1395 610V610C1395 621.598 1385.6 631 1374 631V631Z" fill="#74B7C9"/>
<path d="M1242 631C1230.4 631 1221 621.598 1221 610V610C1221 598.402 1230.4 589 1242 589V589C1253.6 589 1263 598.402 1263 610V610C1263 621.598 1253.6 631 1242 631V631Z" fill="#74B7C9"/>
<path d="M1110 631C1098.4 631 1089 621.598 1089 610V610C1089 598.402 1098.4 589 1110 589V589C1121.6 589 1131 598.402 1131 610V610C1131 621.598 1121.6 631 1110 631V631Z" fill="#74B7C9"/>
<path d="M1419 631C1407.4 631 1398 621.598 1398 610V610C1398 598.402 1407.4 589 1419 589V589C1430.6 589 1440 598.402 1440 610V610C1440 621.598 1430.6 631 1419 631V631Z" fill="#74B7C9"/>
<path d="M1287 631C1275.4 631 1266 621.598 1266 610V610C1266 598.402 1275.4 589 1287 589V589C1298.6 589 1308 598.402 1308 610V610C1308 621.598 1298.6 631 1287 631V631Z" fill="#74B7C9"/>
<path d="M1155 631C1143.4 631 1134 621.598 1134 610V610C1134 598.402 1143.4 589 1155 589V589C1166.6 589 1176 598.402 1176 610V610C1176 621.598 1166.6 631 1155 631V631Z" fill="#74B7C9"/>
<path d="M1329 586C1317.4 586 1308 576.598 1308 565V565C1308 553.402 1317.4 544 1329 544V544C1340.6 544 1350 553.402 1350 565V565C1350 576.598 1340.6 586 1329 586V586Z" fill="#74B7C9"/>
<path d="M1197 586C1185.4 586 1176 576.598 1176 565V565C1176 553.402 1185.4 544 1197 544V544C1208.6 544 1218 553.402 1218 565V565C1218 576.598 1208.6 586 1197 586V586Z" fill="#74B7C9"/>
<path d="M1065 586C1053.4 586 1044 576.598 1044 565V565C1044 553.402 1053.4 544 1065 544V544C1076.6 544 1086 553.402 1086 565V565C1086 576.598 1076.6 586 1065 586V586Z" fill="#74B7C9"/>
<path d="M1374 586C1362.4 586 1353 576.598 1353 565V565C1353 553.402 1362.4 544 1374 544V544C1385.6 544 1395 553.402 1395 565V565C1395 576.598 1385.6 586 1374 586V586Z" fill="#74B7C9"/>
<path d="M1242 586C1230.4 586 1221 576.598 1221 565V565C1221 553.402 1230.4 544 1242 544V544C1253.6 544 1263 553.402 1263 565V565C1263 576.598 1253.6 586 1242 586V586Z" fill="#74B7C9"/>
<path d="M1110 586C1098.4 586 1089 576.598 1089 565V565C1089 553.402 1098.4 544 1110 544V544C1121.6 544 1131 553.402 1131 565V565C1131 576.598 1121.6 586 1110 586V586Z" fill="#74B7C9"/>
<path d="M1332 676C1320.4 676 1311 666.598 1311 655V655C1311 643.402 1320.4 634 1332 634V634C1343.6 634 1353 643.402 1353 655V655C1353 666.598 1343.6 676 1332 676V676Z" fill="#74B7C9"/>
<path d="M1200 676C1188.4 676 1179 666.598 1179 655V655C1179 643.402 1188.4 634 1200 634V634C1211.6 634 1221 643.402 1221 655V655C1221 666.598 1211.6 676 1200 676V676Z" fill="#74B7C9"/>
<path d="M1419 676C1407.4 676 1398 666.598 1398 655V655C1398 643.402 1407.4 634 1419 634V634C1430.6 634 1440 643.402 1440 655V655C1440 666.598 1430.6 676 1419 676V676Z" fill="#74B7C9"/>
<path d="M1287 676C1275.4 676 1266 666.598 1266 655V655C1266 643.402 1275.4 634 1287 634V634C1298.6 634 1308 643.402 1308 655V655C1308 666.598 1298.6 676 1287 676V676Z" fill="#74B7C9"/>
<path d="M1155 676C1143.4 676 1134 666.598 1134 655V655C1134 643.402 1143.4 634 1155 634V634C1166.6 634 1176 643.402 1176 655V655C1176 666.598 1166.6 676 1155 676V676Z" fill="#74B7C9"/>
</g>
<defs>
<clipPath id="clip0_422_12053">
<rect width="1440" height="809" fill="white"/>
</clipPath>
</defs>
</svg>
