<svg width="24" height="25" viewBox="0 0 24 25" fill="none" xmlns="http://www.w3.org/2000/svg">
<path fill-rule="evenodd" clip-rule="evenodd" d="M12 3.88867C9.5556 3.88867 9.2496 3.89887 8.2896 3.94267C7.3314 3.98647 6.6768 4.13887 6.1044 4.36147C5.5044 4.58707 4.9602 4.94107 4.5102 5.39947C4.05253 5.84895 3.69831 6.39277 3.4722 6.99307C3.2508 7.56547 3.0978 8.22067 3.054 9.17887C3.0108 10.1383 3 10.4437 3 12.8887C3 15.3337 3.0102 15.6391 3.054 16.5991C3.0978 17.5573 3.2502 18.2119 3.4728 18.7843C3.6984 19.3843 4.0524 19.9285 4.5108 20.3785C4.96029 20.8361 5.50411 21.1903 6.1044 21.4165C6.6768 21.6385 7.3314 21.7909 8.2896 21.8347C9.2496 21.8785 9.5556 21.8887 12 21.8887C14.4444 21.8887 14.7504 21.8785 15.7104 21.8347C16.6686 21.7909 17.3232 21.6385 17.8956 21.4159C18.4956 21.1903 19.0398 20.8363 19.4898 20.3779C19.9475 19.9284 20.3017 19.3846 20.5278 18.7843C20.7498 18.2119 20.9022 17.5573 20.946 16.5991C20.9898 15.6391 21 15.3331 21 12.8887C21 10.4443 20.9898 10.1383 20.946 9.17827C20.9022 8.22007 20.7498 7.56547 20.5272 6.99307C20.3012 6.39251 19.947 5.84846 19.4892 5.39887C19.0397 4.9412 18.4959 4.58699 17.8956 4.36087C17.3232 4.13947 16.668 3.98647 15.7098 3.94267C14.7504 3.89947 14.445 3.88867 12 3.88867ZM12 5.51047C14.403 5.51047 14.688 5.51947 15.6372 5.56267C16.5144 5.60287 16.9908 5.74867 17.3082 5.87287C17.7282 6.03547 18.0282 6.23107 18.3432 6.54547C18.6582 6.86047 18.8532 7.16047 19.0158 7.58047C19.1394 7.89787 19.2858 8.37427 19.326 9.25147C19.3692 10.2007 19.3782 10.4857 19.3782 12.8887C19.3782 15.2917 19.3692 15.5767 19.326 16.5259C19.2858 17.4031 19.14 17.8795 19.0158 18.1969C18.8718 18.5878 18.6419 18.9415 18.3432 19.2319C18.0528 19.5307 17.6992 19.7605 17.3082 19.9045C16.9908 20.0281 16.5144 20.1745 15.6372 20.2147C14.688 20.2579 14.4036 20.2669 12 20.2669C9.5964 20.2669 9.312 20.2579 8.3628 20.2147C7.4856 20.1745 7.0092 20.0287 6.6918 19.9045C6.30087 19.7604 5.9472 19.5306 5.6568 19.2319C5.35811 18.9414 5.12828 18.5878 4.9842 18.1969C4.8606 17.8795 4.7142 17.4031 4.674 16.5259C4.6308 15.5767 4.6218 15.2917 4.6218 12.8887C4.6218 10.4857 4.6308 10.2007 4.674 9.25147C4.7142 8.37427 4.86 7.89787 4.9842 7.58047C5.1468 7.16047 5.3424 6.86047 5.6568 6.54547C5.94716 6.2467 6.30085 6.01686 6.6918 5.87287C7.0092 5.74927 7.4856 5.60287 8.3628 5.56267C9.312 5.51947 9.597 5.51047 12 5.51047V5.51047Z" fill="white"/>
<path fill-rule="evenodd" clip-rule="evenodd" d="M12 15.8919C11.6057 15.8919 11.2152 15.8143 10.8508 15.6634C10.4865 15.5124 10.1554 15.2912 9.87658 15.0124C9.59773 14.7335 9.37653 14.4025 9.22561 14.0381C9.0747 13.6738 8.99702 13.2833 8.99702 12.8889C8.99702 12.4946 9.0747 12.1041 9.22561 11.7398C9.37653 11.3754 9.59773 11.0444 9.87658 10.7655C10.1554 10.4867 10.4865 10.2655 10.8508 10.1145C11.2152 9.96362 11.6057 9.88595 12 9.88595C12.7965 9.88595 13.5603 10.2023 14.1235 10.7655C14.6866 11.3287 15.003 12.0925 15.003 12.8889C15.003 13.6854 14.6866 14.4492 14.1235 15.0124C13.5603 15.5756 12.7965 15.8919 12 15.8919V15.8919ZM12 8.26295C10.7731 8.26295 9.59649 8.75033 8.72895 9.61787C7.8614 10.4854 7.37402 11.6621 7.37402 12.8889C7.37402 14.1158 7.8614 15.2925 8.72895 16.16C9.59649 17.0276 10.7731 17.5149 12 17.5149C13.2269 17.5149 14.4036 17.0276 15.2711 16.16C16.1386 15.2925 16.626 14.1158 16.626 12.8889C16.626 11.6621 16.1386 10.4854 15.2711 9.61787C14.4036 8.75033 13.2269 8.26295 12 8.26295V8.26295ZM17.9718 8.17895C17.9718 8.46896 17.8566 8.7471 17.6515 8.95217C17.4465 9.15724 17.1683 9.27245 16.8783 9.27245C16.5883 9.27245 16.3102 9.15724 16.1051 8.95217C15.9 8.7471 15.7848 8.46896 15.7848 8.17895C15.7848 7.88894 15.9 7.6108 16.1051 7.40573C16.3102 7.20066 16.5883 7.08545 16.8783 7.08545C17.1683 7.08545 17.4465 7.20066 17.6515 7.40573C17.8566 7.6108 17.9718 7.88894 17.9718 8.17895" fill="white"/>
</svg>
