<svg width="24" height="25" viewBox="0 0 24 25" fill="none" xmlns="http://www.w3.org/2000/svg">
<path d="M19.9525 8.45587C19.9647 8.63219 19.9647 8.8085 19.9647 8.98644C19.9647 14.4083 15.8371 20.6614 8.28966 20.6614V20.6582C6.06013 20.6614 3.8769 20.0228 2 18.8187C2.32419 18.8577 2.65001 18.8772 2.97664 18.878C4.82429 18.8796 6.61913 18.2596 8.07272 17.1181C6.31688 17.0848 4.77717 15.9399 4.23928 14.2686C4.85436 14.3872 5.48812 14.3628 6.09181 14.1979C4.17753 13.8111 2.80033 12.1292 2.80033 10.176C2.80033 10.1581 2.80033 10.141 2.80033 10.124C3.37071 10.4417 4.00934 10.618 4.6626 10.6375C2.85964 9.43251 2.30388 7.03397 3.39265 5.15869C5.47593 7.72217 8.54967 9.28057 11.8493 9.44551C11.5186 8.02036 11.9703 6.52696 13.0364 5.52514C14.689 3.97161 17.2882 4.05124 18.8418 5.70308C19.7607 5.52189 20.6415 5.18469 21.4475 4.70694C21.1412 5.65676 20.5001 6.46359 19.6437 6.97628C20.457 6.88041 21.2517 6.66265 22 6.33034C21.4491 7.15585 20.7552 7.87492 19.9525 8.45587Z" fill="white"/>
</svg>
