<svg width="20" height="17" viewBox="0 0 20 17" fill="none" xmlns="http://www.w3.org/2000/svg">
<path d="M7 1.06189V0H5V1.58152C3.34063 2.25322 1.95792 3.46551 1.07026 5H18.9297C18.0421 3.46551 16.6594 2.25322 15 1.58152V0H13V1.06189C12.6724 1.02104 12.3387 1 12 1H8C7.66134 1 7.32759 1.02104 7 1.06189Z" fill="#736B66"/>
<path fill-rule="evenodd" clip-rule="evenodd" d="M0.252035 7C0.087506 7.63924 0 8.3094 0 9C0 13.4183 3.58172 17 8 17H12C16.4183 17 20 13.4183 20 9C20 8.3094 19.9125 7.63924 19.748 7H0.252035ZM9 11C9 10.4477 9.44771 10 10 10C10.5523 10 11 10.4477 11 11C11 11.5523 10.5523 12 10 12C9.44771 12 9 11.5523 9 11ZM14 10C13.4477 10 13 10.4477 13 11C13 11.5523 13.4477 12 14 12C14.5523 12 15 11.5523 15 11C15 10.4477 14.5523 10 14 10ZM5 11C5 10.4477 5.44772 10 6 10C6.55228 10 7 10.4477 7 11C7 11.5523 6.55228 12 6 12C5.44772 12 5 11.5523 5 11Z" fill="#736B66"/>
</svg>
