<svg width="22" height="28" viewBox="0 0 22 28" fill="none" xmlns="http://www.w3.org/2000/svg">
<path d="M12.792 0.666931C13.2061 0.666931 13.6162 0.706126 14.0176 0.781189C13.9772 0.819156 13.9358 0.856157 13.8965 0.895447C13.2345 1.55744 12.7589 2.38275 12.5166 3.28705C12.2745 4.19103 12.2745 5.14283 12.5166 6.04681C12.7589 6.95097 13.2346 7.77651 13.8965 8.43842C14.5584 9.10024 15.3839 9.57603 16.2881 9.8183C17.192 10.0604 18.1439 10.0604 19.0479 9.8183C19.9521 9.57597 20.7775 9.10035 21.4395 8.43842C21.4787 8.39912 21.5148 8.35677 21.5527 8.31635C21.6278 8.71781 21.6679 9.12775 21.668 9.54193V20.6669C21.6678 24.3487 18.6828 27.3329 15.001 27.3329H7.00098C3.31934 27.3328 0.335137 24.3486 0.334961 20.6669V7.33295C0.335138 3.65131 3.31934 0.667107 7.00098 0.666931H12.792ZM7.00098 16.6669V19.3329H12.334V16.6669H7.00098ZM7.00098 13.9999H15.001V11.3339H7.00098V13.9999ZM16.9258 2.10541C17.1276 2.26497 17.3221 2.43536 17.5059 2.61908L19.7158 4.82806C19.8992 5.01147 20.0692 5.20575 20.2285 5.40717C20.1035 5.83946 19.8723 6.23407 19.5537 6.55267C19.2228 6.88358 18.8104 7.12192 18.3584 7.2431C17.9064 7.36422 17.4296 7.36415 16.9775 7.2431C16.5256 7.12198 16.1131 6.88347 15.7822 6.55267C15.4514 6.2218 15.213 5.80931 15.0918 5.35736C14.9707 4.90528 14.9707 4.42859 15.0918 3.9765C15.213 3.52441 15.4513 3.11215 15.7822 2.78119C16.1006 2.46287 16.4939 2.23051 16.9258 2.10541Z" fill="#A1CDD9"/>
</svg>
