<svg width="24" height="24" viewBox="0 0 24 24" fill="none" xmlns="http://www.w3.org/2000/svg">
<path d="M19.9335 5.91234C18.5934 4.1659 16.7145 2.91045 14.5882 2.3407L14.0706 4.27255C15.7716 4.72835 17.2748 5.73271 18.3468 7.12986C19.2145 8.26066 19.7606 9.59761 19.9373 11L2 11V13L19.9373 13C19.7606 14.4023 19.2145 15.7393 18.3468 16.87C17.2748 18.2672 15.7716 19.2716 14.0706 19.7274L14.5882 21.6592C16.7145 21.0895 18.5934 19.834 19.9335 18.0876C21.2736 16.3411 22 14.2013 22 12C22 9.79861 21.2736 7.65878 19.9335 5.91234Z" fill="white"/>
</svg>
