<svg width="64" height="64" viewBox="0 0 64 64" fill="none" xmlns="http://www.w3.org/2000/svg">
<path d="M5.33325 25.3334C5.33325 18.706 10.7058 13.3334 17.3333 13.3334C23.9607 13.3334 29.3333 18.706 29.3333 25.3334V44C29.3333 47.6819 26.3485 50.6667 22.6666 50.6667C18.9847 50.6667 15.9999 47.6819 15.9999 44V37.2601C9.99998 36.5969 5.33325 31.5101 5.33325 25.3334Z" fill="white"/>
<path d="M43.9999 13.3334C37.3725 13.3334 31.9999 18.706 31.9999 25.3334C31.9999 31.5101 36.6666 36.5969 42.6666 37.2601V44C42.6666 47.6819 45.6513 50.6667 49.3332 50.6667C53.0151 50.6667 55.9999 47.6819 55.9999 44V25.3334C55.9999 18.706 50.6273 13.3334 43.9999 13.3334Z" fill="white"/>
</svg>
