<svg width="24" height="24" viewBox="0 0 24 24" fill="none" xmlns="http://www.w3.org/2000/svg">
<path d="M18.364 18.364C17.0343 19.6937 15.3214 20.5735 13.4661 20.8798C11.6107 21.1861 9.70596 20.9036 8.0194 20.0719C6.33284 19.2401 4.94917 17.901 4.06271 16.2426C3.17625 14.5841 2.83154 12.6897 3.077 10.8253C3.32245 8.96086 4.14573 7.22017 5.43122 5.84767C6.71671 4.47517 8.39983 3.5398 10.2442 3.17293C12.0885 2.80607 14.0015 3.02613 15.7144 3.80222C17.4272 4.57832 18.854 5.87145 19.7942 7.5" stroke="white" stroke-width="2" stroke-linejoin="round"/>
<path d="M20.4641 3C20.9044 3.76257 21.0807 4.6491 20.9658 5.5221C20.8508 6.39511 20.4511 7.20579 19.8284 7.82843C19.2058 8.45106 18.3951 8.85085 17.5221 8.96578C16.6491 9.08071 15.7626 8.90437 15 8.4641" stroke="white" stroke-width="2" stroke-linejoin="round"/>
</svg>
