<svg width="20" height="20" viewBox="0 0 20 20" fill="none" xmlns="http://www.w3.org/2000/svg">
<path fill-rule="evenodd" clip-rule="evenodd" d="M1.66675 9.99996C1.66675 5.39759 5.39771 1.66663 10.0001 1.66663C14.6025 1.66663 18.3334 5.39759 18.3334 9.99996C18.3334 14.6023 14.6025 18.3333 10.0001 18.3333C5.39771 18.3333 1.66675 14.6023 1.66675 9.99996ZM10.5742 12.4796L14.7701 8.07473L13.5634 6.92519L9.36743 11.3301C9.16873 11.5387 9.03378 11.5983 8.80948 11.6452C8.60388 11.6881 8.39028 11.6665 8.19386 11.5811C7.99691 11.4954 7.82196 11.3475 7.69595 11.1495C7.5697 10.9511 7.50008 10.7139 7.50008 10.4681H5.83341C5.83341 11.026 5.99083 11.5745 6.28992 12.0444C6.58926 12.5147 7.01888 12.8876 7.52924 13.1095C8.04015 13.3317 8.60488 13.3905 9.15017 13.2767C9.67677 13.1667 10.123 12.9533 10.5742 12.4796Z" fill="#F4A258"/>
</svg>
