<svg width="380" height="380" viewBox="0 0 380 380" fill="none" xmlns="http://www.w3.org/2000/svg">
<path d="M0 80C0 35.8172 35.8172 0 80 0C124.183 0 160 35.8172 160 80C160 124.183 124.183 160 80 160C69.7399 160 59.931 158.069 50.9169 154.549C53.4447 162.995 56.4051 171.323 59.7914 179.498C72.8576 211.042 92.0091 239.705 116.152 263.848C140.296 287.991 168.958 307.143 200.502 320.209C208.678 323.595 217.005 326.555 225.451 329.083C221.932 320.069 220 310.26 220 300C220 255.817 255.817 220 300 220C344.183 220 380 255.817 380 300C380 344.183 344.183 380 300 380C260.604 380 221.593 372.24 185.195 357.164C148.797 342.088 115.726 319.99 87.8681 292.132C60.0105 264.275 37.9126 231.203 22.8362 194.805C7.75974 158.407 0 119.397 0 80Z" fill="#FDBA74"/>
</svg>
