<svg width="24" height="24" viewBox="0 0 24 24" fill="none" xmlns="http://www.w3.org/2000/svg">
<path d="M11 11C11 10.4477 11.4477 10 12 10C12.5523 10 13 10.4477 13 11C13 11.5523 12.5523 12 12 12C11.4477 12 11 11.5523 11 11Z" fill="#F4A258"/>
<path fill-rule="evenodd" clip-rule="evenodd" d="M12.7071 21.7071L17.636 16.7782C19.1519 15.2623 20 13.1875 20 11.0501C20 6.64112 16.4275 3 12 3C7.57247 3 4 6.64113 4 11.0501C4 13.1875 4.84813 15.2623 6.36396 16.7782L11.2929 21.7071C11.6834 22.0976 12.3166 22.0976 12.7071 21.7071ZM12 8C10.3431 8 9 9.34315 9 11C9 12.6569 10.3431 14 12 14C13.6569 14 15 12.6569 15 11C15 9.34315 13.6569 8 12 8Z" fill="#F4A258"/>
</svg>
