<svg width="1456" height="683" viewBox="0 0 1456 683" fill="none" xmlns="http://www.w3.org/2000/svg">
<g clip-path="url(#clip0_450_9895)">
<path d="M732.749 28.8837C720.844 28.8837 711.192 38.5348 711.192 50.4402V50.4402C711.192 62.3455 720.844 71.9966 732.749 71.9966V71.9966C744.654 71.9966 754.305 62.3455 754.305 50.4402V50.4402C754.305 38.5348 744.654 28.8837 732.749 28.8837V28.8837Z" fill="#F7F4F2"/>
<path d="M686.556 -17.3088C674.651 -17.3088 665 -7.65767 665 4.24765V4.24765C665 16.153 674.651 25.8041 686.556 25.8041V25.8041C698.462 25.8041 708.113 16.153 708.113 4.24765V4.24765C708.113 -7.65766 698.462 -17.3088 686.556 -17.3088V-17.3088Z" fill="#F7F4F2"/>
<path d="M732.749 75.0761C720.844 75.0761 711.192 84.7272 711.192 96.6325V96.6325C711.192 108.538 720.844 118.189 732.749 118.189V118.189C744.654 118.189 754.305 108.538 754.305 96.6325V96.6325C754.305 84.7272 744.654 75.0761 732.749 75.0761V75.0761Z" fill="#F7F4F2"/>
<path d="M686.556 118.189C674.651 118.189 665 127.84 665 139.746V139.746C665 151.651 674.651 161.302 686.556 161.302V161.302C698.462 161.302 708.113 151.651 708.113 139.746V139.746C708.113 127.84 698.462 118.189 686.556 118.189V118.189Z" fill="#F7F4F2"/>
<path d="M686.557 207.494C698.462 207.494 708.113 217.146 708.113 229.051V229.051C708.113 240.956 698.462 250.607 686.557 250.607V250.607C674.651 250.607 665 240.956 665 229.051V229.051C665 217.146 674.651 207.494 686.557 207.494V207.494Z" fill="#F7F4F2"/>
<path d="M686.557 567.796C698.462 567.796 708.113 577.447 708.113 589.352V589.352C708.113 601.257 698.462 610.909 686.557 610.909V610.909C674.651 610.909 665 601.257 665 589.352V589.352C665 577.447 674.651 567.796 686.557 567.796V567.796Z" fill="#F7F4F2"/>
<path d="M732.749 161.302C744.654 161.302 754.306 170.953 754.306 182.858V182.858C754.306 194.764 744.654 204.415 732.749 204.415V204.415C720.844 204.415 711.193 194.764 711.193 182.858V182.858C711.193 170.953 720.844 161.302 732.749 161.302V161.302Z" fill="#F7F4F2"/>
<path d="M732.749 521.603C744.654 521.603 754.306 531.254 754.306 543.16V543.16C754.306 555.065 744.654 564.716 732.749 564.716V564.716C720.844 564.716 711.193 555.065 711.193 543.16V543.16C711.193 531.254 720.844 521.603 732.749 521.603V521.603Z" fill="#F7F4F2"/>
<path d="M686.557 253.687C698.462 253.687 708.113 263.338 708.113 275.243V275.243C708.113 287.149 698.462 296.8 686.557 296.8V296.8C674.651 296.8 665 287.149 665 275.243V275.243C665 263.338 674.651 253.687 686.557 253.687V253.687Z" fill="#F7F4F2"/>
<path d="M686.557 613.988C698.462 613.988 708.113 623.639 708.113 635.545V635.545C708.113 647.45 698.462 657.101 686.557 657.101V657.101C674.651 657.101 665 647.45 665 635.545V635.545C665 623.639 674.651 613.988 686.557 613.988V613.988Z" fill="#F7F4F2"/>
<path d="M732.749 296.8C744.654 296.8 754.306 306.451 754.306 318.356V318.356C754.306 330.262 744.654 339.913 732.749 339.913V339.913C720.844 339.913 711.193 330.262 711.193 318.356V318.356C711.193 306.451 720.844 296.8 732.749 296.8V296.8Z" fill="#F7F4F2"/>
<path d="M732.749 657.101C744.654 657.101 754.306 666.752 754.306 678.658V678.658C754.306 690.563 744.654 700.214 732.749 700.214V700.214C720.844 700.214 711.193 690.563 711.193 678.658V678.658C711.193 666.752 720.844 657.101 732.749 657.101V657.101Z" fill="#F7F4F2"/>
<path d="M732.749 389.185C720.844 389.185 711.192 398.836 711.192 410.741V410.741C711.192 422.647 720.844 432.298 732.749 432.298V432.298C744.654 432.298 754.305 422.647 754.305 410.741V410.741C754.305 398.836 744.654 389.185 732.749 389.185V389.185Z" fill="#F7F4F2"/>
<path d="M686.556 342.992C674.651 342.992 665 352.644 665 364.549V364.549C665 376.454 674.651 386.105 686.556 386.105V386.105C698.462 386.105 708.113 376.454 708.113 364.549V364.549C708.113 352.644 698.462 342.992 686.556 342.992V342.992Z" fill="#F7F4F2"/>
<path d="M732.749 435.377C720.844 435.377 711.192 445.028 711.192 456.934V456.934C711.192 468.839 720.844 478.49 732.749 478.49V478.49C744.654 478.49 754.305 468.839 754.305 456.934V456.934C754.305 445.028 744.654 435.377 732.749 435.377V435.377Z" fill="#F7F4F2"/>
<path d="M686.556 478.49C674.651 478.49 665 488.141 665 500.047V500.047C665 511.952 674.651 521.603 686.556 521.603V521.603C698.462 521.603 708.113 511.952 708.113 500.047V500.047C708.113 488.141 698.462 478.49 686.556 478.49V478.49Z" fill="#F7F4F2"/>
<path d="M778.942 28.8834C790.847 28.8834 800.498 38.5346 800.498 50.4399V50.4399C800.498 62.3452 790.847 71.9964 778.942 71.9964V71.9964C767.036 71.9964 757.385 62.3452 757.385 50.4399V50.4399C757.385 38.5346 767.036 28.8834 778.942 28.8834V28.8834Z" fill="#F7F4F2"/>
<path d="M825.134 -17.3091C837.039 -17.3091 846.69 -7.65791 846.69 4.2474V4.2474C846.69 16.1527 837.039 25.8039 825.134 25.8039V25.8039C813.229 25.8039 803.577 16.1527 803.577 4.24741V4.24741C803.577 -7.65791 813.229 -17.3091 825.134 -17.3091V-17.3091Z" fill="#F7F4F2"/>
<path d="M778.942 75.0758C790.847 75.0758 800.498 84.727 800.498 96.6323V96.6323C800.498 108.538 790.847 118.189 778.942 118.189V118.189C767.036 118.189 757.385 108.538 757.385 96.6323V96.6323C757.385 84.727 767.036 75.0758 778.942 75.0758V75.0758Z" fill="#F7F4F2"/>
<path d="M825.134 118.189C837.039 118.189 846.69 127.84 846.69 139.745V139.745C846.69 151.651 837.039 161.302 825.134 161.302V161.302C813.229 161.302 803.577 151.651 803.577 139.745V139.745C803.577 127.84 813.229 118.189 825.134 118.189V118.189Z" fill="#F7F4F2"/>
<path d="M825.134 207.494C813.228 207.494 803.577 217.145 803.577 229.051V229.051C803.577 240.956 813.228 250.607 825.134 250.607V250.607C837.039 250.607 846.69 240.956 846.69 229.051V229.051C846.69 217.145 837.039 207.494 825.134 207.494V207.494Z" fill="#F7F4F2"/>
<path d="M825.134 567.795C813.228 567.795 803.577 577.447 803.577 589.352V589.352C803.577 601.257 813.228 610.908 825.134 610.908V610.908C837.039 610.908 846.69 601.257 846.69 589.352V589.352C846.69 577.447 837.039 567.795 825.134 567.795V567.795Z" fill="#F7F4F2"/>
<path d="M778.941 161.302C767.036 161.302 757.385 170.953 757.385 182.858V182.858C757.385 194.764 767.036 204.415 778.941 204.415V204.415C790.847 204.415 800.498 194.764 800.498 182.858V182.858C800.498 170.953 790.847 161.302 778.941 161.302V161.302Z" fill="#F7F4F2"/>
<path d="M778.941 521.603C767.036 521.603 757.385 531.254 757.385 543.16V543.16C757.385 555.065 767.036 564.716 778.941 564.716V564.716C790.847 564.716 800.498 555.065 800.498 543.16V543.16C800.498 531.254 790.847 521.603 778.941 521.603V521.603Z" fill="#F7F4F2"/>
<path d="M825.134 253.687C813.228 253.687 803.577 263.338 803.577 275.243V275.243C803.577 287.148 813.228 296.799 825.134 296.799V296.799C837.039 296.799 846.69 287.148 846.69 275.243V275.243C846.69 263.338 837.039 253.687 825.134 253.687V253.687Z" fill="#F7F4F2"/>
<path d="M825.134 613.988C813.228 613.988 803.577 623.639 803.577 635.544V635.544C803.577 647.45 813.228 657.101 825.134 657.101V657.101C837.039 657.101 846.69 647.45 846.69 635.544V635.544C846.69 623.639 837.039 613.988 825.134 613.988V613.988Z" fill="#F7F4F2"/>
<path d="M778.941 296.8C767.036 296.8 757.385 306.451 757.385 318.356V318.356C757.385 330.261 767.036 339.913 778.941 339.913V339.913C790.847 339.913 800.498 330.261 800.498 318.356V318.356C800.498 306.451 790.847 296.8 778.941 296.8V296.8Z" fill="#F7F4F2"/>
<path d="M778.941 657.101C767.036 657.101 757.385 666.752 757.385 678.657V678.657C757.385 690.563 767.036 700.214 778.941 700.214V700.214C790.847 700.214 800.498 690.563 800.498 678.657V678.657C800.498 666.752 790.847 657.101 778.941 657.101V657.101Z" fill="#F7F4F2"/>
<path d="M778.942 389.185C790.847 389.185 800.498 398.836 800.498 410.741V410.741C800.498 422.646 790.847 432.298 778.942 432.298V432.298C767.036 432.298 757.385 422.646 757.385 410.741V410.741C757.385 398.836 767.036 389.185 778.942 389.185V389.185Z" fill="#F7F4F2"/>
<path d="M825.134 342.992C837.039 342.992 846.69 352.643 846.69 364.549V364.549C846.69 376.454 837.039 386.105 825.134 386.105V386.105C813.229 386.105 803.577 376.454 803.577 364.549V364.549C803.577 352.643 813.229 342.992 825.134 342.992V342.992Z" fill="#F7F4F2"/>
<path d="M778.942 435.377C790.847 435.377 800.498 445.028 800.498 456.934V456.934C800.498 468.839 790.847 478.49 778.942 478.49V478.49C767.036 478.49 757.385 468.839 757.385 456.934V456.934C757.385 445.028 767.036 435.377 778.942 435.377V435.377Z" fill="#F7F4F2"/>
<path d="M825.134 478.49C837.039 478.49 846.69 488.141 846.69 500.047V500.047C846.69 511.952 837.039 521.603 825.134 521.603V521.603C813.229 521.603 803.577 511.952 803.577 500.047V500.047C803.577 488.141 813.229 478.49 825.134 478.49V478.49Z" fill="#F7F4F2"/>
<path d="M917.519 654.021C905.614 654.021 895.963 644.37 895.963 632.465V632.465C895.963 620.56 905.614 610.909 917.519 610.909V610.909C929.425 610.909 939.076 620.56 939.076 632.465V632.465C939.076 644.37 929.425 654.021 917.519 654.021V654.021Z" fill="#F7F4F2"/>
<path d="M871.327 700.214C859.422 700.214 849.771 690.563 849.771 678.657V678.657C849.771 666.752 859.422 657.101 871.327 657.101V657.101C883.232 657.101 892.883 666.752 892.883 678.657V678.657C892.883 690.563 883.232 700.214 871.327 700.214V700.214Z" fill="#F7F4F2"/>
<path d="M917.519 607.829C905.614 607.829 895.963 598.178 895.963 586.272V586.272C895.963 574.367 905.614 564.716 917.519 564.716V564.716C929.425 564.716 939.076 574.367 939.076 586.272V586.272C939.076 598.178 929.425 607.829 917.519 607.829V607.829Z" fill="#F7F4F2"/>
<path d="M871.327 564.716C859.422 564.716 849.771 555.065 849.771 543.16V543.16C849.771 531.254 859.422 521.603 871.327 521.603V521.603C883.232 521.603 892.883 531.254 892.883 543.16V543.16C892.883 555.065 883.232 564.716 871.327 564.716V564.716Z" fill="#F7F4F2"/>
<path d="M871.327 475.411C883.233 475.411 892.884 465.759 892.884 453.854V453.854C892.884 441.949 883.233 432.298 871.327 432.298V432.298C859.422 432.298 849.771 441.949 849.771 453.854V453.854C849.771 465.759 859.422 475.411 871.327 475.411V475.411Z" fill="#F7F4F2"/>
<path d="M871.327 115.109C883.233 115.109 892.884 105.458 892.884 93.5529V93.5529C892.884 81.6476 883.233 71.9964 871.327 71.9964V71.9964C859.422 71.9964 849.771 81.6476 849.771 93.5529V93.5529C849.771 105.458 859.422 115.109 871.327 115.109V115.109Z" fill="#F7F4F2"/>
<path d="M917.52 521.603C929.425 521.603 939.076 511.952 939.076 500.047V500.047C939.076 488.141 929.425 478.49 917.52 478.49V478.49C905.614 478.49 895.963 488.141 895.963 500.047V500.047C895.963 511.952 905.614 521.603 917.52 521.603V521.603Z" fill="#F7F4F2"/>
<path d="M917.52 161.302C929.425 161.302 939.076 151.651 939.076 139.745V139.745C939.076 127.84 929.425 118.189 917.52 118.189V118.189C905.614 118.189 895.963 127.84 895.963 139.745V139.745C895.963 151.651 905.614 161.302 917.52 161.302V161.302Z" fill="#F7F4F2"/>
<path d="M871.327 429.218C883.233 429.218 892.884 419.567 892.884 407.662V407.662C892.884 395.756 883.233 386.105 871.327 386.105V386.105C859.422 386.105 849.771 395.756 849.771 407.662V407.662C849.771 419.567 859.422 429.218 871.327 429.218V429.218Z" fill="#F7F4F2"/>
<path d="M871.327 68.917C883.233 68.917 892.884 59.2658 892.884 47.3605V47.3605C892.884 35.4552 883.233 25.804 871.327 25.804V25.804C859.422 25.804 849.771 35.4552 849.771 47.3605V47.3605C849.771 59.2658 859.422 68.917 871.327 68.917V68.917Z" fill="#F7F4F2"/>
<path d="M917.52 386.105C929.425 386.105 939.076 376.454 939.076 364.549V364.549C939.076 352.643 929.425 342.992 917.52 342.992V342.992C905.614 342.992 895.963 352.643 895.963 364.549V364.549C895.963 376.454 905.614 386.105 917.52 386.105V386.105Z" fill="#F7F4F2"/>
<path d="M917.52 25.804C929.425 25.804 939.076 16.1528 939.076 4.24747V4.24747C939.076 -7.65785 929.425 -17.309 917.52 -17.309V-17.309C905.614 -17.309 895.963 -7.65785 895.963 4.24747V4.24747C895.963 16.1528 905.614 25.804 917.52 25.804V25.804Z" fill="#F7F4F2"/>
<path d="M917.519 293.72C905.614 293.72 895.963 284.069 895.963 272.164V272.164C895.963 260.258 905.614 250.607 917.519 250.607V250.607C929.425 250.607 939.076 260.258 939.076 272.164V272.164C939.076 284.069 929.425 293.72 917.519 293.72V293.72Z" fill="#F7F4F2"/>
<path d="M871.327 339.913C859.422 339.913 849.771 330.261 849.771 318.356V318.356C849.771 306.451 859.422 296.8 871.327 296.8V296.8C883.232 296.8 892.883 306.451 892.883 318.356V318.356C892.883 330.261 883.232 339.913 871.327 339.913V339.913Z" fill="#F7F4F2"/>
<path d="M917.519 247.528C905.614 247.528 895.963 237.877 895.963 225.971V225.971C895.963 214.066 905.614 204.415 917.519 204.415V204.415C929.425 204.415 939.076 214.066 939.076 225.971V225.971C939.076 237.877 929.425 247.528 917.519 247.528V247.528Z" fill="#F7F4F2"/>
<path d="M871.327 204.415C859.422 204.415 849.771 194.764 849.771 182.858V182.858C849.771 170.953 859.422 161.302 871.327 161.302V161.302C883.232 161.302 892.883 170.953 892.883 182.858V182.858C892.883 194.764 883.232 204.415 871.327 204.415V204.415Z" fill="#F7F4F2"/>
<path d="M963.712 654.021C975.617 654.021 985.269 644.37 985.269 632.465V632.465C985.269 620.56 975.617 610.909 963.712 610.909V610.909C951.807 610.909 942.156 620.56 942.156 632.465V632.465C942.156 644.37 951.807 654.021 963.712 654.021V654.021Z" fill="#F7F4F2"/>
<path d="M1009.9 700.214C1021.81 700.214 1031.46 690.563 1031.46 678.657V678.657C1031.46 666.752 1021.81 657.101 1009.9 657.101V657.101C997.999 657.101 988.348 666.752 988.348 678.657V678.657C988.348 690.563 997.999 700.214 1009.9 700.214V700.214Z" fill="#F7F4F2"/>
<path d="M963.712 607.829C975.617 607.829 985.269 598.178 985.269 586.272V586.272C985.269 574.367 975.617 564.716 963.712 564.716V564.716C951.807 564.716 942.156 574.367 942.156 586.272V586.272C942.156 598.178 951.807 607.829 963.712 607.829V607.829Z" fill="#F7F4F2"/>
<path d="M1009.9 564.716C1021.81 564.716 1031.46 555.065 1031.46 543.16V543.16C1031.46 531.254 1021.81 521.603 1009.9 521.603V521.603C997.999 521.603 988.348 531.254 988.348 543.16V543.16C988.348 555.065 997.999 564.716 1009.9 564.716V564.716Z" fill="#F7F4F2"/>
<path d="M1009.9 475.411C997.999 475.411 988.348 465.759 988.348 453.854V453.854C988.348 441.949 997.999 432.298 1009.9 432.298V432.298C1021.81 432.298 1031.46 441.949 1031.46 453.854V453.854C1031.46 465.759 1021.81 475.411 1009.9 475.411V475.411Z" fill="#F7F4F2"/>
<path d="M1009.9 115.109C997.999 115.109 988.348 105.458 988.348 93.5529V93.5529C988.348 81.6476 997.999 71.9964 1009.9 71.9964V71.9964C1021.81 71.9964 1031.46 81.6476 1031.46 93.5529V93.5529C1031.46 105.458 1021.81 115.109 1009.9 115.109V115.109Z" fill="#F7F4F2"/>
<path d="M963.712 521.603C951.806 521.603 942.155 511.952 942.155 500.047V500.047C942.155 488.141 951.806 478.49 963.712 478.49V478.49C975.617 478.49 985.268 488.141 985.268 500.047V500.047C985.268 511.952 975.617 521.603 963.712 521.603V521.603Z" fill="#F7F4F2"/>
<path d="M963.712 161.302C951.806 161.302 942.155 151.651 942.155 139.745V139.745C942.155 127.84 951.806 118.189 963.712 118.189V118.189C975.617 118.189 985.268 127.84 985.268 139.745V139.745C985.268 151.651 975.617 161.302 963.712 161.302V161.302Z" fill="#F7F4F2"/>
<path d="M1009.9 429.218C997.999 429.218 988.348 419.567 988.348 407.662V407.662C988.348 395.756 997.999 386.105 1009.9 386.105V386.105C1021.81 386.105 1031.46 395.756 1031.46 407.662V407.662C1031.46 419.567 1021.81 429.218 1009.9 429.218V429.218Z" fill="#F7F4F2"/>
<path d="M1009.9 68.917C997.999 68.917 988.348 59.2658 988.348 47.3605V47.3605C988.348 35.4552 997.999 25.804 1009.9 25.804V25.804C1021.81 25.804 1031.46 35.4552 1031.46 47.3605V47.3605C1031.46 59.2658 1021.81 68.917 1009.9 68.917V68.917Z" fill="#F7F4F2"/>
<path d="M963.712 386.105C951.806 386.105 942.155 376.454 942.155 364.549V364.549C942.155 352.643 951.806 342.992 963.712 342.992V342.992C975.617 342.992 985.268 352.643 985.268 364.549V364.549C985.268 376.454 975.617 386.105 963.712 386.105V386.105Z" fill="#F7F4F2"/>
<path d="M963.712 25.804C951.806 25.804 942.155 16.1528 942.155 4.24747V4.24747C942.155 -7.65785 951.806 -17.309 963.712 -17.309V-17.309C975.617 -17.309 985.268 -7.65785 985.268 4.24747V4.24747C985.268 16.1528 975.617 25.804 963.712 25.804V25.804Z" fill="#F7F4F2"/>
<path d="M963.712 293.72C975.617 293.72 985.269 284.069 985.269 272.164V272.164C985.269 260.258 975.617 250.607 963.712 250.607V250.607C951.807 250.607 942.156 260.258 942.156 272.164V272.164C942.156 284.069 951.807 293.72 963.712 293.72V293.72Z" fill="#F7F4F2"/>
<path d="M1009.9 339.913C1021.81 339.913 1031.46 330.261 1031.46 318.356V318.356C1031.46 306.451 1021.81 296.8 1009.9 296.8V296.8C997.999 296.8 988.348 306.451 988.348 318.356V318.356C988.348 330.261 997.999 339.913 1009.9 339.913V339.913Z" fill="#F7F4F2"/>
<path d="M963.712 247.528C975.617 247.528 985.269 237.877 985.269 225.971V225.971C985.269 214.066 975.617 204.415 963.712 204.415V204.415C951.807 204.415 942.156 214.066 942.156 225.971V225.971C942.156 237.877 951.807 247.528 963.712 247.528V247.528Z" fill="#F7F4F2"/>
<path d="M1009.9 204.415C1021.81 204.415 1031.46 194.764 1031.46 182.858V182.858C1031.46 170.953 1021.81 161.302 1009.9 161.302V161.302C997.999 161.302 988.348 170.953 988.348 182.858V182.858C988.348 194.764 997.999 204.415 1009.9 204.415V204.415Z" fill="#F7F4F2"/>
<path d="M1333.25 28.8832C1345.16 28.8832 1354.81 38.5344 1354.81 50.4397V50.4397C1354.81 62.345 1345.16 71.9962 1333.25 71.9962V71.9962C1321.35 71.9962 1311.69 62.345 1311.69 50.4397V50.4397C1311.69 38.5344 1321.35 28.8832 1333.25 28.8832V28.8832Z" fill="#F7F4F2"/>
<path d="M1379.44 -17.3093C1391.35 -17.3093 1401 -7.65815 1401 4.24716V4.24716C1401 16.1525 1391.35 25.8036 1379.44 25.8036V25.8036C1367.54 25.8036 1357.89 16.1525 1357.89 4.24716V4.24716C1357.89 -7.65815 1367.54 -17.3093 1379.44 -17.3093V-17.3093Z" fill="#F7F4F2"/>
<path d="M1333.25 75.0756C1345.16 75.0756 1354.81 84.7267 1354.81 96.632V96.632C1354.81 108.537 1345.16 118.189 1333.25 118.189V118.189C1321.35 118.189 1311.69 108.537 1311.69 96.632V96.632C1311.69 84.7267 1321.35 75.0756 1333.25 75.0756V75.0756Z" fill="#F7F4F2"/>
<path d="M1379.44 118.189C1391.35 118.189 1401 127.84 1401 139.745V139.745C1401 151.65 1391.35 161.302 1379.44 161.302V161.302C1367.54 161.302 1357.89 151.65 1357.89 139.745V139.745C1357.89 127.84 1367.54 118.189 1379.44 118.189V118.189Z" fill="#F7F4F2"/>
<path d="M1379.44 207.494C1367.54 207.494 1357.89 217.145 1357.89 229.05V229.05C1357.89 240.956 1367.54 250.607 1379.44 250.607V250.607C1391.35 250.607 1401 240.956 1401 229.05V229.05C1401 217.145 1391.35 207.494 1379.44 207.494V207.494Z" fill="#F7F4F2"/>
<path d="M1379.44 567.795C1367.54 567.795 1357.89 577.446 1357.89 589.352V589.352C1357.89 601.257 1367.54 610.908 1379.44 610.908V610.908C1391.35 610.908 1401 601.257 1401 589.352V589.352C1401 577.446 1391.35 567.795 1379.44 567.795V567.795Z" fill="#F7F4F2"/>
<path d="M1333.25 161.302C1321.35 161.302 1311.69 170.953 1311.69 182.858V182.858C1311.69 194.763 1321.35 204.414 1333.25 204.414V204.414C1345.16 204.414 1354.81 194.763 1354.81 182.858V182.858C1354.81 170.953 1345.16 161.302 1333.25 161.302V161.302Z" fill="#F7F4F2"/>
<path d="M1333.25 521.603C1321.35 521.603 1311.69 531.254 1311.69 543.159V543.159C1311.69 555.065 1321.35 564.716 1333.25 564.716V564.716C1345.16 564.716 1354.81 555.065 1354.81 543.159V543.159C1354.81 531.254 1345.16 521.603 1333.25 521.603V521.603Z" fill="#F7F4F2"/>
<path d="M1379.44 253.686C1367.54 253.686 1357.89 263.337 1357.89 275.243V275.243C1357.89 287.148 1367.54 296.799 1379.44 296.799V296.799C1391.35 296.799 1401 287.148 1401 275.243V275.243C1401 263.337 1391.35 253.686 1379.44 253.686V253.686Z" fill="#F7F4F2"/>
<path d="M1379.44 613.988C1367.54 613.988 1357.89 623.639 1357.89 635.544V635.544C1357.89 647.449 1367.54 657.101 1379.44 657.101V657.101C1391.35 657.101 1401 647.449 1401 635.544V635.544C1401 623.639 1391.35 613.988 1379.44 613.988V613.988Z" fill="#F7F4F2"/>
<path d="M1333.25 296.799C1321.35 296.799 1311.69 306.451 1311.69 318.356V318.356C1311.69 330.261 1321.35 339.912 1333.25 339.912V339.912C1345.16 339.912 1354.81 330.261 1354.81 318.356V318.356C1354.81 306.451 1345.16 296.799 1333.25 296.799V296.799Z" fill="#F7F4F2"/>
<path d="M1333.25 657.101C1321.35 657.101 1311.69 666.752 1311.69 678.657V678.657C1311.69 690.563 1321.35 700.214 1333.25 700.214V700.214C1345.16 700.214 1354.81 690.563 1354.81 678.657V678.657C1354.81 666.752 1345.16 657.101 1333.25 657.101V657.101Z" fill="#F7F4F2"/>
<path d="M1333.25 389.184C1345.16 389.184 1354.81 398.836 1354.81 410.741V410.741C1354.81 422.646 1345.16 432.297 1333.25 432.297V432.297C1321.35 432.297 1311.69 422.646 1311.69 410.741V410.741C1311.69 398.836 1321.35 389.184 1333.25 389.184V389.184Z" fill="#F7F4F2"/>
<path d="M1379.44 342.992C1391.35 342.992 1401 352.643 1401 364.548V364.548C1401 376.454 1391.35 386.105 1379.44 386.105V386.105C1367.54 386.105 1357.89 376.454 1357.89 364.548V364.548C1357.89 352.643 1367.54 342.992 1379.44 342.992V342.992Z" fill="#F7F4F2"/>
<path d="M1333.25 435.377C1345.16 435.377 1354.81 445.028 1354.81 456.933V456.933C1354.81 468.839 1345.16 478.49 1333.25 478.49V478.49C1321.35 478.49 1311.69 468.839 1311.69 456.933V456.933C1311.69 445.028 1321.35 435.377 1333.25 435.377V435.377Z" fill="#F7F4F2"/>
<path d="M1379.44 478.49C1391.35 478.49 1401 488.141 1401 500.046V500.046C1401 511.952 1391.35 521.603 1379.44 521.603V521.603C1367.54 521.603 1357.89 511.952 1357.89 500.046V500.046C1357.89 488.141 1367.54 478.49 1379.44 478.49V478.49Z" fill="#F7F4F2"/>
<path d="M1287.06 28.8832C1275.15 28.8832 1265.5 38.5344 1265.5 50.4397V50.4397C1265.5 62.345 1275.15 71.9962 1287.06 71.9962V71.9962C1298.96 71.9962 1308.62 62.345 1308.62 50.4397V50.4397C1308.62 38.5344 1298.96 28.8832 1287.06 28.8832V28.8832Z" fill="#F7F4F2"/>
<path d="M1240.87 -17.3093C1228.96 -17.3093 1219.31 -7.65815 1219.31 4.24716V4.24716C1219.31 16.1525 1228.96 25.8036 1240.87 25.8036V25.8036C1252.77 25.8036 1262.42 16.1525 1262.42 4.24716V4.24716C1262.42 -7.65815 1252.77 -17.3093 1240.87 -17.3093V-17.3093Z" fill="#F7F4F2"/>
<path d="M1287.06 75.0756C1275.15 75.0756 1265.5 84.7267 1265.5 96.632V96.632C1265.5 108.537 1275.15 118.189 1287.06 118.189V118.189C1298.96 118.189 1308.62 108.537 1308.62 96.632V96.632C1308.62 84.7267 1298.96 75.0756 1287.06 75.0756V75.0756Z" fill="#F7F4F2"/>
<path d="M1240.87 118.189C1228.96 118.189 1219.31 127.84 1219.31 139.745V139.745C1219.31 151.65 1228.96 161.302 1240.87 161.302V161.302C1252.77 161.302 1262.42 151.65 1262.42 139.745V139.745C1262.42 127.84 1252.77 118.189 1240.87 118.189V118.189Z" fill="#F7F4F2"/>
<path d="M1240.87 207.494C1252.77 207.494 1262.42 217.145 1262.42 229.05V229.05C1262.42 240.956 1252.77 250.607 1240.87 250.607V250.607C1228.96 250.607 1219.31 240.956 1219.31 229.05V229.05C1219.31 217.145 1228.96 207.494 1240.87 207.494V207.494Z" fill="#F7F4F2"/>
<path d="M1240.87 567.795C1252.77 567.795 1262.42 577.446 1262.42 589.352V589.352C1262.42 601.257 1252.77 610.908 1240.87 610.908V610.908C1228.96 610.908 1219.31 601.257 1219.31 589.352V589.352C1219.31 577.446 1228.96 567.795 1240.87 567.795V567.795Z" fill="#F7F4F2"/>
<path d="M1287.06 161.302C1298.96 161.302 1308.61 170.953 1308.61 182.858V182.858C1308.61 194.763 1298.96 204.414 1287.06 204.414V204.414C1275.15 204.414 1265.5 194.763 1265.5 182.858V182.858C1265.5 170.953 1275.15 161.302 1287.06 161.302V161.302Z" fill="#F7F4F2"/>
<path d="M1287.06 521.603C1298.96 521.603 1308.61 531.254 1308.61 543.159V543.159C1308.61 555.065 1298.96 564.716 1287.06 564.716V564.716C1275.15 564.716 1265.5 555.065 1265.5 543.159V543.159C1265.5 531.254 1275.15 521.603 1287.06 521.603V521.603Z" fill="#F7F4F2"/>
<path d="M1240.87 253.686C1252.77 253.686 1262.42 263.337 1262.42 275.243V275.243C1262.42 287.148 1252.77 296.799 1240.87 296.799V296.799C1228.96 296.799 1219.31 287.148 1219.31 275.243V275.243C1219.31 263.337 1228.96 253.686 1240.87 253.686V253.686Z" fill="#F7F4F2"/>
<path d="M1240.87 613.988C1252.77 613.988 1262.42 623.639 1262.42 635.544V635.544C1262.42 647.449 1252.77 657.101 1240.87 657.101V657.101C1228.96 657.101 1219.31 647.449 1219.31 635.544V635.544C1219.31 623.639 1228.96 613.988 1240.87 613.988V613.988Z" fill="#F7F4F2"/>
<path d="M1287.06 296.799C1298.96 296.799 1308.61 306.451 1308.61 318.356V318.356C1308.61 330.261 1298.96 339.912 1287.06 339.912V339.912C1275.15 339.912 1265.5 330.261 1265.5 318.356V318.356C1265.5 306.451 1275.15 296.799 1287.06 296.799V296.799Z" fill="#F7F4F2"/>
<path d="M1287.06 657.101C1298.96 657.101 1308.61 666.752 1308.61 678.657V678.657C1308.61 690.563 1298.96 700.214 1287.06 700.214V700.214C1275.15 700.214 1265.5 690.563 1265.5 678.657V678.657C1265.5 666.752 1275.15 657.101 1287.06 657.101V657.101Z" fill="#F7F4F2"/>
<path d="M1287.06 389.184C1275.15 389.184 1265.5 398.836 1265.5 410.741V410.741C1265.5 422.646 1275.15 432.297 1287.06 432.297V432.297C1298.96 432.297 1308.62 422.646 1308.62 410.741V410.741C1308.62 398.836 1298.96 389.184 1287.06 389.184V389.184Z" fill="#F7F4F2"/>
<path d="M1240.87 342.992C1228.96 342.992 1219.31 352.643 1219.31 364.548V364.548C1219.31 376.454 1228.96 386.105 1240.87 386.105V386.105C1252.77 386.105 1262.42 376.454 1262.42 364.548V364.548C1262.42 352.643 1252.77 342.992 1240.87 342.992V342.992Z" fill="#F7F4F2"/>
<path d="M1287.06 435.377C1275.15 435.377 1265.5 445.028 1265.5 456.933V456.933C1265.5 468.839 1275.15 478.49 1287.06 478.49V478.49C1298.96 478.49 1308.62 468.839 1308.62 456.933V456.933C1308.62 445.028 1298.96 435.377 1287.06 435.377V435.377Z" fill="#F7F4F2"/>
<path d="M1240.87 478.49C1228.96 478.49 1219.31 488.141 1219.31 500.046V500.046C1219.31 511.952 1228.96 521.603 1240.87 521.603V521.603C1252.77 521.603 1262.42 511.952 1262.42 500.046V500.046C1262.42 488.141 1252.77 478.49 1240.87 478.49V478.49Z" fill="#F7F4F2"/>
<path d="M1148.48 654.021C1160.39 654.021 1170.04 644.37 1170.04 632.465V632.465C1170.04 620.559 1160.39 610.908 1148.48 610.908V610.908C1136.58 610.908 1126.92 620.559 1126.92 632.465V632.465C1126.92 644.37 1136.58 654.021 1148.48 654.021V654.021Z" fill="#F7F4F2"/>
<path d="M1194.67 700.214C1206.58 700.214 1216.23 690.563 1216.23 678.657V678.657C1216.23 666.752 1206.58 657.101 1194.67 657.101V657.101C1182.77 657.101 1173.12 666.752 1173.12 678.657V678.657C1173.12 690.563 1182.77 700.214 1194.67 700.214V700.214Z" fill="#F7F4F2"/>
<path d="M1148.48 607.829C1160.39 607.829 1170.04 598.178 1170.04 586.272V586.272C1170.04 574.367 1160.39 564.716 1148.48 564.716V564.716C1136.58 564.716 1126.92 574.367 1126.92 586.272V586.272C1126.92 598.178 1136.58 607.829 1148.48 607.829V607.829Z" fill="#F7F4F2"/>
<path d="M1194.67 564.716C1206.58 564.716 1216.23 555.065 1216.23 543.159V543.159C1216.23 531.254 1206.58 521.603 1194.67 521.603V521.603C1182.77 521.603 1173.12 531.254 1173.12 543.159V543.159C1173.12 555.065 1182.77 564.716 1194.67 564.716V564.716Z" fill="#F7F4F2"/>
<path d="M1194.67 475.41C1182.77 475.41 1173.12 465.759 1173.12 453.854V453.854C1173.12 441.949 1182.77 432.297 1194.67 432.297V432.297C1206.58 432.297 1216.23 441.949 1216.23 453.854V453.854C1216.23 465.759 1206.58 475.41 1194.67 475.41V475.41Z" fill="#F7F4F2"/>
<path d="M1194.67 115.109C1182.77 115.109 1173.12 105.458 1173.12 93.5526V93.5526C1173.12 81.6473 1182.77 71.9962 1194.67 71.9962V71.9962C1206.58 71.9962 1216.23 81.6473 1216.23 93.5526V93.5526C1216.23 105.458 1206.58 115.109 1194.67 115.109V115.109Z" fill="#F7F4F2"/>
<path d="M1148.48 521.603C1136.58 521.603 1126.92 511.952 1126.92 500.046V500.046C1126.92 488.141 1136.58 478.49 1148.48 478.49V478.49C1160.39 478.49 1170.04 488.141 1170.04 500.046V500.046C1170.04 511.952 1160.39 521.603 1148.48 521.603V521.603Z" fill="#F7F4F2"/>
<path d="M1148.48 161.302C1136.58 161.302 1126.92 151.65 1126.92 139.745V139.745C1126.92 127.84 1136.58 118.189 1148.48 118.189V118.189C1160.39 118.189 1170.04 127.84 1170.04 139.745V139.745C1170.04 151.65 1160.39 161.302 1148.48 161.302V161.302Z" fill="#F7F4F2"/>
<path d="M1194.67 429.218C1182.77 429.218 1173.12 419.567 1173.12 407.662V407.662C1173.12 395.756 1182.77 386.105 1194.67 386.105V386.105C1206.58 386.105 1216.23 395.756 1216.23 407.662V407.662C1216.23 419.567 1206.58 429.218 1194.67 429.218V429.218Z" fill="#F7F4F2"/>
<path d="M1194.67 68.9167C1182.77 68.9167 1173.12 59.2656 1173.12 47.3603V47.3603C1173.12 35.4549 1182.77 25.8038 1194.67 25.8038V25.8038C1206.58 25.8038 1216.23 35.4549 1216.23 47.3603V47.3603C1216.23 59.2656 1206.58 68.9167 1194.67 68.9167V68.9167Z" fill="#F7F4F2"/>
<path d="M1148.48 386.105C1136.58 386.105 1126.92 376.454 1126.92 364.548V364.548C1126.92 352.643 1136.58 342.992 1148.48 342.992V342.992C1160.39 342.992 1170.04 352.643 1170.04 364.548V364.548C1170.04 376.454 1160.39 386.105 1148.48 386.105V386.105Z" fill="#F7F4F2"/>
<path d="M1148.48 25.8037C1136.58 25.8037 1126.92 16.1525 1126.92 4.24722V4.24722C1126.92 -7.65809 1136.58 -17.3093 1148.48 -17.3093V-17.3093C1160.39 -17.3093 1170.04 -7.65809 1170.04 4.24722V4.24722C1170.04 16.1525 1160.39 25.8037 1148.48 25.8037V25.8037Z" fill="#F7F4F2"/>
<path d="M1148.48 293.72C1160.39 293.72 1170.04 284.069 1170.04 272.163V272.163C1170.04 260.258 1160.39 250.607 1148.48 250.607V250.607C1136.58 250.607 1126.92 260.258 1126.92 272.163V272.163C1126.92 284.069 1136.58 293.72 1148.48 293.72V293.72Z" fill="#F7F4F2"/>
<path d="M1194.67 339.912C1206.58 339.912 1216.23 330.261 1216.23 318.356V318.356C1216.23 306.451 1206.58 296.799 1194.67 296.799V296.799C1182.77 296.799 1173.12 306.451 1173.12 318.356V318.356C1173.12 330.261 1182.77 339.912 1194.67 339.912V339.912Z" fill="#F7F4F2"/>
<path d="M1148.48 247.527C1160.39 247.527 1170.04 237.876 1170.04 225.971V225.971C1170.04 214.066 1160.39 204.414 1148.48 204.414V204.414C1136.58 204.414 1126.92 214.066 1126.92 225.971V225.971C1126.92 237.876 1136.58 247.527 1148.48 247.527V247.527Z" fill="#F7F4F2"/>
<path d="M1194.67 204.415C1206.58 204.415 1216.23 194.763 1216.23 182.858V182.858C1216.23 170.953 1206.58 161.302 1194.67 161.302V161.302C1182.77 161.302 1173.12 170.953 1173.12 182.858V182.858C1173.12 194.763 1182.77 204.415 1194.67 204.415V204.415Z" fill="#F7F4F2"/>
<path d="M1102.29 654.021C1090.38 654.021 1080.73 644.37 1080.73 632.465V632.465C1080.73 620.559 1090.38 610.908 1102.29 610.908V610.908C1114.19 610.908 1123.84 620.559 1123.84 632.465V632.465C1123.84 644.37 1114.19 654.021 1102.29 654.021V654.021Z" fill="#F7F4F2"/>
<path d="M1056.1 700.214C1044.19 700.214 1034.54 690.563 1034.54 678.657V678.657C1034.54 666.752 1044.19 657.101 1056.1 657.101V657.101C1068 657.101 1077.65 666.752 1077.65 678.657V678.657C1077.65 690.563 1068 700.214 1056.1 700.214V700.214Z" fill="#F7F4F2"/>
<path d="M1102.29 607.829C1090.38 607.829 1080.73 598.178 1080.73 586.272V586.272C1080.73 574.367 1090.38 564.716 1102.29 564.716V564.716C1114.19 564.716 1123.84 574.367 1123.84 586.272V586.272C1123.84 598.178 1114.19 607.829 1102.29 607.829V607.829Z" fill="#F7F4F2"/>
<path d="M1056.1 564.716C1044.19 564.716 1034.54 555.065 1034.54 543.159V543.159C1034.54 531.254 1044.19 521.603 1056.1 521.603V521.603C1068 521.603 1077.65 531.254 1077.65 543.159V543.159C1077.65 555.065 1068 564.716 1056.1 564.716V564.716Z" fill="#F7F4F2"/>
<path d="M1056.1 475.41C1068 475.41 1077.65 465.759 1077.65 453.854V453.854C1077.65 441.949 1068 432.297 1056.1 432.297V432.297C1044.19 432.297 1034.54 441.949 1034.54 453.854V453.854C1034.54 465.759 1044.19 475.41 1056.1 475.41V475.41Z" fill="#F7F4F2"/>
<path d="M1056.1 115.109C1068 115.109 1077.65 105.458 1077.65 93.5526V93.5526C1077.65 81.6473 1068 71.9962 1056.1 71.9962V71.9962C1044.19 71.9962 1034.54 81.6473 1034.54 93.5526V93.5526C1034.54 105.458 1044.19 115.109 1056.1 115.109V115.109Z" fill="#F7F4F2"/>
<path d="M1102.29 521.603C1114.19 521.603 1123.84 511.952 1123.84 500.046V500.046C1123.84 488.141 1114.19 478.49 1102.29 478.49V478.49C1090.38 478.49 1080.73 488.141 1080.73 500.046V500.046C1080.73 511.952 1090.38 521.603 1102.29 521.603V521.603Z" fill="#F7F4F2"/>
<path d="M1102.29 161.302C1114.19 161.302 1123.84 151.65 1123.84 139.745V139.745C1123.84 127.84 1114.19 118.189 1102.29 118.189V118.189C1090.38 118.189 1080.73 127.84 1080.73 139.745V139.745C1080.73 151.65 1090.38 161.302 1102.29 161.302V161.302Z" fill="#F7F4F2"/>
<path d="M1056.1 429.218C1068 429.218 1077.65 419.567 1077.65 407.662V407.662C1077.65 395.756 1068 386.105 1056.1 386.105V386.105C1044.19 386.105 1034.54 395.756 1034.54 407.662V407.662C1034.54 419.567 1044.19 429.218 1056.1 429.218V429.218Z" fill="#F7F4F2"/>
<path d="M1056.1 68.9167C1068 68.9167 1077.65 59.2656 1077.65 47.3603V47.3603C1077.65 35.4549 1068 25.8038 1056.1 25.8038V25.8038C1044.19 25.8038 1034.54 35.4549 1034.54 47.3603V47.3603C1034.54 59.2656 1044.19 68.9167 1056.1 68.9167V68.9167Z" fill="#F7F4F2"/>
<path d="M1102.29 386.105C1114.19 386.105 1123.84 376.454 1123.84 364.548V364.548C1123.84 352.643 1114.19 342.992 1102.29 342.992V342.992C1090.38 342.992 1080.73 352.643 1080.73 364.548V364.548C1080.73 376.454 1090.38 386.105 1102.29 386.105V386.105Z" fill="#F7F4F2"/>
<path d="M1102.29 25.8037C1114.19 25.8037 1123.84 16.1525 1123.84 4.24722V4.24722C1123.84 -7.65809 1114.19 -17.3093 1102.29 -17.3093V-17.3093C1090.38 -17.3093 1080.73 -7.65809 1080.73 4.24722V4.24722C1080.73 16.1525 1090.38 25.8037 1102.29 25.8037V25.8037Z" fill="#F7F4F2"/>
<path d="M1102.29 293.72C1090.38 293.72 1080.73 284.069 1080.73 272.163V272.163C1080.73 260.258 1090.38 250.607 1102.29 250.607V250.607C1114.19 250.607 1123.84 260.258 1123.84 272.163V272.163C1123.84 284.069 1114.19 293.72 1102.29 293.72V293.72Z" fill="#F7F4F2"/>
<path d="M1056.1 339.912C1044.19 339.912 1034.54 330.261 1034.54 318.356V318.356C1034.54 306.451 1044.19 296.799 1056.1 296.799V296.799C1068 296.799 1077.65 306.451 1077.65 318.356V318.356C1077.65 330.261 1068 339.912 1056.1 339.912V339.912Z" fill="#F7F4F2"/>
<path d="M1102.29 247.527C1090.38 247.527 1080.73 237.876 1080.73 225.971V225.971C1080.73 214.066 1090.38 204.414 1102.29 204.414V204.414C1114.19 204.414 1123.84 214.066 1123.84 225.971V225.971C1123.84 237.876 1114.19 247.527 1102.29 247.527V247.527Z" fill="#F7F4F2"/>
<path d="M1056.1 204.415C1044.19 204.415 1034.54 194.763 1034.54 182.858V182.858C1034.54 170.953 1044.19 161.302 1056.1 161.302V161.302C1068 161.302 1077.65 170.953 1077.65 182.858V182.858C1077.65 194.763 1068 204.415 1056.1 204.415V204.415Z" fill="#F7F4F2"/>
<path d="M1468.75 28.8829C1456.84 28.8829 1447.19 38.5341 1447.19 50.4394V50.4394C1447.19 62.3447 1456.84 71.9959 1468.75 71.9959V71.9959C1480.65 71.9959 1490.31 62.3447 1490.31 50.4394V50.4394C1490.31 38.5341 1480.65 28.8829 1468.75 28.8829V28.8829Z" fill="#F7F4F2"/>
<path d="M1422.56 -17.3096C1410.65 -17.3096 1401 -7.6584 1401 4.24692V4.24692C1401 16.1522 1410.65 25.8034 1422.56 25.8034V25.8034C1434.46 25.8034 1444.11 16.1522 1444.11 4.24692V4.24692C1444.11 -7.6584 1434.46 -17.3096 1422.56 -17.3096V-17.3096Z" fill="#F7F4F2"/>
<path d="M1468.75 75.0753C1456.84 75.0753 1447.19 84.7265 1447.19 96.6318V96.6318C1447.19 108.537 1456.84 118.188 1468.75 118.188V118.188C1480.65 118.188 1490.31 108.537 1490.31 96.6318V96.6318C1490.31 84.7265 1480.65 75.0753 1468.75 75.0753V75.0753Z" fill="#F7F4F2"/>
<path d="M1422.56 118.188C1410.65 118.188 1401 127.84 1401 139.745V139.745C1401 151.65 1410.65 161.301 1422.56 161.301V161.301C1434.46 161.301 1444.11 151.65 1444.11 139.745V139.745C1444.11 127.84 1434.46 118.188 1422.56 118.188V118.188Z" fill="#F7F4F2"/>
<path d="M1422.56 207.494C1434.46 207.494 1444.11 217.145 1444.11 229.05V229.05C1444.11 240.955 1434.46 250.607 1422.56 250.607V250.607C1410.65 250.607 1401 240.955 1401 229.05V229.05C1401 217.145 1410.65 207.494 1422.56 207.494V207.494Z" fill="#F7F4F2"/>
<path d="M1422.56 567.795C1434.46 567.795 1444.11 577.446 1444.11 589.351V589.351C1444.11 601.257 1434.46 610.908 1422.56 610.908V610.908C1410.65 610.908 1401 601.257 1401 589.351V589.351C1401 577.446 1410.65 567.795 1422.56 567.795V567.795Z" fill="#F7F4F2"/>
<path d="M1468.75 161.301C1480.65 161.301 1490.31 170.952 1490.31 182.858V182.858C1490.31 194.763 1480.65 204.414 1468.75 204.414V204.414C1456.84 204.414 1447.19 194.763 1447.19 182.858V182.858C1447.19 170.952 1456.84 161.301 1468.75 161.301V161.301Z" fill="#F7F4F2"/>
<path d="M1468.75 521.603C1480.65 521.603 1490.31 531.254 1490.31 543.159V543.159C1490.31 555.064 1480.65 564.716 1468.75 564.716V564.716C1456.84 564.716 1447.19 555.064 1447.19 543.159V543.159C1447.19 531.254 1456.84 521.603 1468.75 521.603V521.603Z" fill="#F7F4F2"/>
<path d="M1422.56 253.686C1434.46 253.686 1444.11 263.337 1444.11 275.243V275.243C1444.11 287.148 1434.46 296.799 1422.56 296.799V296.799C1410.65 296.799 1401 287.148 1401 275.243V275.243C1401 263.337 1410.65 253.686 1422.56 253.686V253.686Z" fill="#F7F4F2"/>
<path d="M1422.56 613.987C1434.46 613.987 1444.11 623.638 1444.11 635.544V635.544C1444.11 647.449 1434.46 657.1 1422.56 657.1V657.1C1410.65 657.1 1401 647.449 1401 635.544V635.544C1401 623.638 1410.65 613.987 1422.56 613.987V613.987Z" fill="#F7F4F2"/>
<path d="M1468.75 296.799C1480.65 296.799 1490.31 306.45 1490.31 318.356V318.356C1490.31 330.261 1480.65 339.912 1468.75 339.912V339.912C1456.84 339.912 1447.19 330.261 1447.19 318.356V318.356C1447.19 306.45 1456.84 296.799 1468.75 296.799V296.799Z" fill="#F7F4F2"/>
<path d="M1468.75 657.1C1480.65 657.1 1490.31 666.752 1490.31 678.657V678.657C1490.31 690.562 1480.65 700.213 1468.75 700.213V700.213C1456.84 700.213 1447.19 690.562 1447.19 678.657V678.657C1447.19 666.752 1456.84 657.1 1468.75 657.1V657.1Z" fill="#F7F4F2"/>
<path d="M1468.75 389.184C1456.84 389.184 1447.19 398.835 1447.19 410.741V410.741C1447.19 422.646 1456.84 432.297 1468.75 432.297V432.297C1480.65 432.297 1490.31 422.646 1490.31 410.741V410.741C1490.31 398.835 1480.65 389.184 1468.75 389.184V389.184Z" fill="#F7F4F2"/>
<path d="M1422.56 342.992C1410.65 342.992 1401 352.643 1401 364.548V364.548C1401 376.453 1410.65 386.105 1422.56 386.105V386.105C1434.46 386.105 1444.11 376.454 1444.11 364.548V364.548C1444.11 352.643 1434.46 342.992 1422.56 342.992V342.992Z" fill="#F7F4F2"/>
<path d="M1468.75 435.377C1456.84 435.377 1447.19 445.028 1447.19 456.933V456.933C1447.19 468.838 1456.84 478.49 1468.75 478.49V478.49C1480.65 478.49 1490.31 468.838 1490.31 456.933V456.933C1490.31 445.028 1480.65 435.377 1468.75 435.377V435.377Z" fill="#F7F4F2"/>
<path d="M1422.56 478.49C1410.65 478.49 1401 488.141 1401 500.046V500.046C1401 511.951 1410.65 521.603 1422.56 521.603V521.603C1434.46 521.603 1444.11 511.951 1444.11 500.046V500.046C1444.11 488.141 1434.46 478.49 1422.56 478.49V478.49Z" fill="#F7F4F2"/>
<path d="M219.251 28.8834C231.156 28.8834 240.808 38.5346 240.808 50.4399V50.4399C240.808 62.3452 231.156 71.9964 219.251 71.9964V71.9964C207.346 71.9964 197.695 62.3452 197.695 50.4399V50.4399C197.695 38.5346 207.346 28.8834 219.251 28.8834V28.8834Z" fill="#F7F4F2"/>
<path d="M265.444 -17.3091C277.349 -17.3091 287 -7.65791 287 4.2474V4.2474C287 16.1527 277.349 25.8039 265.444 25.8039V25.8039C253.538 25.8039 243.887 16.1527 243.887 4.24741V4.24741C243.887 -7.65791 253.538 -17.3091 265.444 -17.3091V-17.3091Z" fill="#F7F4F2"/>
<path d="M219.251 75.0758C231.156 75.0758 240.808 84.727 240.808 96.6323V96.6323C240.808 108.538 231.156 118.189 219.251 118.189V118.189C207.346 118.189 197.695 108.538 197.695 96.6323V96.6323C197.695 84.727 207.346 75.0758 219.251 75.0758V75.0758Z" fill="#F7F4F2"/>
<path d="M265.444 118.189C277.349 118.189 287 127.84 287 139.745V139.745C287 151.651 277.349 161.302 265.444 161.302V161.302C253.538 161.302 243.887 151.651 243.887 139.745V139.745C243.887 127.84 253.538 118.189 265.444 118.189V118.189Z" fill="#F7F4F2"/>
<path d="M265.443 207.494C253.538 207.494 243.887 217.145 243.887 229.051V229.051C243.887 240.956 253.538 250.607 265.443 250.607V250.607C277.349 250.607 287 240.956 287 229.051V229.051C287 217.145 277.349 207.494 265.443 207.494V207.494Z" fill="#F7F4F2"/>
<path d="M265.443 567.795C253.538 567.795 243.887 577.447 243.887 589.352V589.352C243.887 601.257 253.538 610.908 265.443 610.908V610.908C277.349 610.908 287 601.257 287 589.352V589.352C287 577.447 277.349 567.795 265.443 567.795V567.795Z" fill="#F7F4F2"/>
<path d="M219.251 161.302C207.346 161.302 197.694 170.953 197.694 182.858V182.858C197.694 194.764 207.346 204.415 219.251 204.415V204.415C231.156 204.415 240.807 194.764 240.807 182.858V182.858C240.807 170.953 231.156 161.302 219.251 161.302V161.302Z" fill="#F7F4F2"/>
<path d="M219.251 521.603C207.346 521.603 197.694 531.254 197.694 543.16V543.16C197.694 555.065 207.346 564.716 219.251 564.716V564.716C231.156 564.716 240.807 555.065 240.807 543.16V543.16C240.807 531.254 231.156 521.603 219.251 521.603V521.603Z" fill="#F7F4F2"/>
<path d="M265.443 253.687C253.538 253.687 243.887 263.338 243.887 275.243V275.243C243.887 287.148 253.538 296.799 265.443 296.799V296.799C277.349 296.799 287 287.148 287 275.243V275.243C287 263.338 277.349 253.687 265.443 253.687V253.687Z" fill="#F7F4F2"/>
<path d="M265.443 613.988C253.538 613.988 243.887 623.639 243.887 635.544V635.544C243.887 647.45 253.538 657.101 265.443 657.101V657.101C277.349 657.101 287 647.45 287 635.544V635.544C287 623.639 277.349 613.988 265.443 613.988V613.988Z" fill="#F7F4F2"/>
<path d="M219.251 296.8C207.346 296.8 197.694 306.451 197.694 318.356V318.356C197.694 330.261 207.346 339.913 219.251 339.913V339.913C231.156 339.913 240.807 330.261 240.807 318.356V318.356C240.807 306.451 231.156 296.8 219.251 296.8V296.8Z" fill="#F7F4F2"/>
<path d="M219.251 657.101C207.346 657.101 197.694 666.752 197.694 678.657V678.657C197.694 690.563 207.346 700.214 219.251 700.214V700.214C231.156 700.214 240.807 690.563 240.807 678.657V678.657C240.807 666.752 231.156 657.101 219.251 657.101V657.101Z" fill="#F7F4F2"/>
<path d="M219.251 389.185C231.156 389.185 240.808 398.836 240.808 410.741V410.741C240.808 422.646 231.156 432.298 219.251 432.298V432.298C207.346 432.298 197.695 422.646 197.695 410.741V410.741C197.695 398.836 207.346 389.185 219.251 389.185V389.185Z" fill="#F7F4F2"/>
<path d="M265.444 342.992C277.349 342.992 287 352.643 287 364.549V364.549C287 376.454 277.349 386.105 265.444 386.105V386.105C253.538 386.105 243.887 376.454 243.887 364.549V364.549C243.887 352.643 253.538 342.992 265.444 342.992V342.992Z" fill="#F7F4F2"/>
<path d="M219.251 435.377C231.156 435.377 240.808 445.028 240.808 456.934V456.934C240.808 468.839 231.156 478.49 219.251 478.49V478.49C207.346 478.49 197.695 468.839 197.695 456.934V456.934C197.695 445.028 207.346 435.377 219.251 435.377V435.377Z" fill="#F7F4F2"/>
<path d="M265.444 478.49C277.349 478.49 287 488.141 287 500.047V500.047C287 511.952 277.349 521.603 265.444 521.603V521.603C253.538 521.603 243.887 511.952 243.887 500.047V500.047C243.887 488.141 253.538 478.49 265.444 478.49V478.49Z" fill="#F7F4F2"/>
<path d="M173.058 28.8832C161.153 28.8832 151.502 38.5344 151.502 50.4397V50.4397C151.502 62.345 161.153 71.9962 173.058 71.9962V71.9962C184.964 71.9962 194.615 62.345 194.615 50.4397V50.4397C194.615 38.5344 184.964 28.8832 173.058 28.8832V28.8832Z" fill="#F7F4F2"/>
<path d="M126.866 -17.3093C114.961 -17.3093 105.31 -7.65815 105.31 4.24716V4.24716C105.31 16.1525 114.961 25.8036 126.866 25.8036V25.8036C138.771 25.8036 148.423 16.1525 148.423 4.24716V4.24716C148.423 -7.65815 138.771 -17.3093 126.866 -17.3093V-17.3093Z" fill="#F7F4F2"/>
<path d="M173.058 75.0756C161.153 75.0756 151.502 84.7267 151.502 96.632V96.632C151.502 108.537 161.153 118.189 173.058 118.189V118.189C184.964 118.189 194.615 108.537 194.615 96.632V96.632C194.615 84.7267 184.964 75.0756 173.058 75.0756V75.0756Z" fill="#F7F4F2"/>
<path d="M126.866 118.189C114.961 118.189 105.31 127.84 105.31 139.745V139.745C105.31 151.65 114.961 161.302 126.866 161.302V161.302C138.771 161.302 148.423 151.65 148.423 139.745V139.745C148.423 127.84 138.771 118.189 126.866 118.189V118.189Z" fill="#F7F4F2"/>
<path d="M126.866 207.494C138.772 207.494 148.423 217.145 148.423 229.05V229.05C148.423 240.956 138.772 250.607 126.866 250.607V250.607C114.961 250.607 105.31 240.956 105.31 229.05V229.05C105.31 217.145 114.961 207.494 126.866 207.494V207.494Z" fill="#F7F4F2"/>
<path d="M126.866 567.795C138.772 567.795 148.423 577.446 148.423 589.352V589.352C148.423 601.257 138.772 610.908 126.866 610.908V610.908C114.961 610.908 105.31 601.257 105.31 589.352V589.352C105.31 577.446 114.961 567.795 126.866 567.795V567.795Z" fill="#F7F4F2"/>
<path d="M173.059 161.302C184.964 161.302 194.615 170.953 194.615 182.858V182.858C194.615 194.763 184.964 204.414 173.059 204.414V204.414C161.153 204.414 151.502 194.763 151.502 182.858V182.858C151.502 170.953 161.153 161.302 173.059 161.302V161.302Z" fill="#F7F4F2"/>
<path d="M173.059 521.603C184.964 521.603 194.615 531.254 194.615 543.159V543.159C194.615 555.065 184.964 564.716 173.059 564.716V564.716C161.153 564.716 151.502 555.065 151.502 543.159V543.159C151.502 531.254 161.153 521.603 173.059 521.603V521.603Z" fill="#F7F4F2"/>
<path d="M126.866 253.686C138.772 253.686 148.423 263.337 148.423 275.243V275.243C148.423 287.148 138.772 296.799 126.866 296.799V296.799C114.961 296.799 105.31 287.148 105.31 275.243V275.243C105.31 263.337 114.961 253.686 126.866 253.686V253.686Z" fill="#F7F4F2"/>
<path d="M126.866 613.988C138.772 613.988 148.423 623.639 148.423 635.544V635.544C148.423 647.449 138.772 657.101 126.866 657.101V657.101C114.961 657.101 105.31 647.449 105.31 635.544V635.544C105.31 623.639 114.961 613.988 126.866 613.988V613.988Z" fill="#F7F4F2"/>
<path d="M173.059 296.799C184.964 296.799 194.615 306.451 194.615 318.356V318.356C194.615 330.261 184.964 339.912 173.059 339.912V339.912C161.153 339.912 151.502 330.261 151.502 318.356V318.356C151.502 306.451 161.153 296.799 173.059 296.799V296.799Z" fill="#F7F4F2"/>
<path d="M173.059 657.101C184.964 657.101 194.615 666.752 194.615 678.657V678.657C194.615 690.563 184.964 700.214 173.059 700.214V700.214C161.153 700.214 151.502 690.563 151.502 678.657V678.657C151.502 666.752 161.153 657.101 173.059 657.101V657.101Z" fill="#F7F4F2"/>
<path d="M173.058 389.184C161.153 389.184 151.502 398.836 151.502 410.741V410.741C151.502 422.646 161.153 432.297 173.058 432.297V432.297C184.964 432.297 194.615 422.646 194.615 410.741V410.741C194.615 398.836 184.964 389.184 173.058 389.184V389.184Z" fill="#F7F4F2"/>
<path d="M126.866 342.992C114.961 342.992 105.31 352.643 105.31 364.548V364.548C105.31 376.454 114.961 386.105 126.866 386.105V386.105C138.771 386.105 148.423 376.454 148.423 364.548V364.548C148.423 352.643 138.771 342.992 126.866 342.992V342.992Z" fill="#F7F4F2"/>
<path d="M173.058 435.377C161.153 435.377 151.502 445.028 151.502 456.933V456.933C151.502 468.839 161.153 478.49 173.058 478.49V478.49C184.964 478.49 194.615 468.839 194.615 456.933V456.933C194.615 445.028 184.964 435.377 173.058 435.377V435.377Z" fill="#F7F4F2"/>
<path d="M126.866 478.49C114.961 478.49 105.31 488.141 105.31 500.046V500.046C105.31 511.952 114.961 521.603 126.866 521.603V521.603C138.771 521.603 148.423 511.952 148.423 500.046V500.046C148.423 488.141 138.771 478.49 126.866 478.49V478.49Z" fill="#F7F4F2"/>
<path d="M34.4806 654.021C46.3859 654.021 56.0371 644.37 56.0371 632.465V632.465C56.0371 620.559 46.3859 610.908 34.4806 610.908V610.908C22.5753 610.908 12.9241 620.559 12.9241 632.465V632.465C12.9241 644.37 22.5753 654.021 34.4806 654.021V654.021Z" fill="#F7F4F2"/>
<path d="M80.673 700.213C92.5783 700.213 102.229 690.562 102.229 678.657V678.657C102.229 666.752 92.5783 657.1 80.673 657.1V657.1C68.7677 657.1 59.1165 666.752 59.1165 678.657V678.657C59.1165 690.562 68.7677 700.213 80.673 700.213V700.213Z" fill="#F7F4F2"/>
<path d="M34.4806 607.828C46.3859 607.828 56.0371 598.177 56.0371 586.272V586.272C56.0371 574.367 46.3859 564.716 34.4806 564.716V564.716C22.5753 564.716 12.9241 574.367 12.9241 586.272V586.272C12.9241 598.177 22.5753 607.828 34.4806 607.828V607.828Z" fill="#F7F4F2"/>
<path d="M80.673 564.716C92.5783 564.716 102.229 555.064 102.229 543.159V543.159C102.229 531.254 92.5783 521.603 80.673 521.603V521.603C68.7677 521.603 59.1165 531.254 59.1165 543.159V543.159C59.1165 555.064 68.7677 564.716 80.673 564.716V564.716Z" fill="#F7F4F2"/>
<path d="M80.6727 475.41C68.7674 475.41 59.1162 465.759 59.1162 453.854V453.854C59.1162 441.948 68.7674 432.297 80.6727 432.297V432.297C92.578 432.297 102.229 441.948 102.229 453.854V453.854C102.229 465.759 92.578 475.41 80.6727 475.41V475.41Z" fill="#F7F4F2"/>
<path d="M80.6727 115.109C68.7674 115.109 59.1162 105.458 59.1162 93.5524V93.5524C59.1162 81.6471 68.7674 71.9959 80.6727 71.9959V71.9959C92.578 71.9959 102.229 81.6471 102.229 93.5524V93.5524C102.229 105.458 92.578 115.109 80.6727 115.109V115.109Z" fill="#F7F4F2"/>
<path d="M34.4803 521.603C22.575 521.603 12.9238 511.951 12.9238 500.046V500.046C12.9238 488.141 22.575 478.49 34.4803 478.49V478.49C46.3856 478.49 56.0368 488.141 56.0368 500.046V500.046C56.0368 511.951 46.3856 521.603 34.4803 521.603V521.603Z" fill="#F7F4F2"/>
<path d="M34.4803 161.301C22.575 161.301 12.9238 151.65 12.9238 139.745V139.745C12.9238 127.839 22.575 118.188 34.4803 118.188V118.188C46.3856 118.188 56.0368 127.839 56.0368 139.745V139.745C56.0368 151.65 46.3856 161.301 34.4803 161.301V161.301Z" fill="#F7F4F2"/>
<path d="M80.6727 429.218C68.7674 429.218 59.1162 419.567 59.1162 407.661V407.661C59.1162 395.756 68.7674 386.105 80.6727 386.105V386.105C92.578 386.105 102.229 395.756 102.229 407.661V407.661C102.229 419.567 92.578 429.218 80.6727 429.218V429.218Z" fill="#F7F4F2"/>
<path d="M80.6727 68.9165C68.7674 68.9165 59.1162 59.2653 59.1162 47.36V47.36C59.1162 35.4547 68.7674 25.8035 80.6727 25.8035V25.8035C92.578 25.8035 102.229 35.4547 102.229 47.36V47.36C102.229 59.2653 92.578 68.9165 80.6727 68.9165V68.9165Z" fill="#F7F4F2"/>
<path d="M34.4803 386.105C22.575 386.105 12.9238 376.453 12.9238 364.548V364.548C12.9238 352.643 22.575 342.992 34.4803 342.992V342.992C46.3856 342.992 56.0368 352.643 56.0368 364.548V364.548C56.0368 376.453 46.3856 386.105 34.4803 386.105V386.105Z" fill="#F7F4F2"/>
<path d="M34.4803 25.8035C22.575 25.8035 12.9238 16.1523 12.9238 4.24698V4.24698C12.9238 -7.65833 22.575 -17.3095 34.4803 -17.3095V-17.3095C46.3856 -17.3095 56.0368 -7.65833 56.0368 4.24698V4.24698C56.0368 16.1523 46.3856 25.8035 34.4803 25.8035V25.8035Z" fill="#F7F4F2"/>
<path d="M34.4806 293.72C46.3859 293.72 56.0371 284.069 56.0371 272.163V272.163C56.0371 260.258 46.3859 250.607 34.4806 250.607V250.607C22.5753 250.607 12.9241 260.258 12.9241 272.163V272.163C12.9241 284.069 22.5753 293.72 34.4806 293.72V293.72Z" fill="#F7F4F2"/>
<path d="M80.673 339.912C92.5783 339.912 102.229 330.261 102.229 318.356V318.356C102.229 306.45 92.5783 296.799 80.673 296.799V296.799C68.7677 296.799 59.1165 306.45 59.1165 318.356V318.356C59.1165 330.261 68.7677 339.912 80.673 339.912V339.912Z" fill="#F7F4F2"/>
<path d="M34.4806 247.527C46.3859 247.527 56.0371 237.876 56.0371 225.971V225.971C56.0371 214.065 46.3859 204.414 34.4806 204.414V204.414C22.5753 204.414 12.9241 214.065 12.9241 225.971V225.971C12.9241 237.876 22.5753 247.527 34.4806 247.527V247.527Z" fill="#F7F4F2"/>
<path d="M80.673 204.414C92.5783 204.414 102.229 194.763 102.229 182.858V182.858C102.229 170.953 92.5783 161.301 80.673 161.301V161.301C68.7677 161.301 59.1165 170.953 59.1165 182.858V182.858C59.1165 194.763 68.7677 204.414 80.673 204.414V204.414Z" fill="#F7F4F2"/>
<path d="M-11.7121 654.021C-23.6174 654.021 -33.2686 644.37 -33.2686 632.465V632.465C-33.2686 620.559 -23.6174 610.908 -11.7121 610.908V610.908C0.193245 610.908 9.84442 620.559 9.84442 632.465V632.465C9.84442 644.37 0.193246 654.021 -11.7121 654.021V654.021Z" fill="#F7F4F2"/>
<path d="M-11.7121 607.828C-23.6174 607.828 -33.2686 598.177 -33.2686 586.272V586.272C-33.2686 574.367 -23.6174 564.716 -11.7121 564.716V564.716C0.193244 564.716 9.84442 574.367 9.84442 586.272V586.272C9.84442 598.177 0.193245 607.828 -11.7121 607.828V607.828Z" fill="#F7F4F2"/>
<path d="M-11.7118 521.603C0.193554 521.603 9.84473 511.951 9.84473 500.046V500.046C9.84473 488.141 0.193555 478.49 -11.7118 478.49V478.49C-23.6171 478.49 -33.2682 488.141 -33.2682 500.046V500.046C-33.2682 511.951 -23.6171 521.603 -11.7118 521.603V521.603Z" fill="#F7F4F2"/>
<path d="M-11.7118 161.301C0.193554 161.301 9.84473 151.65 9.84473 139.745V139.745C9.84473 127.839 0.193555 118.188 -11.7118 118.188V118.188C-23.6171 118.188 -33.2682 127.839 -33.2682 139.745V139.745C-33.2682 151.65 -23.6171 161.301 -11.7118 161.301V161.301Z" fill="#F7F4F2"/>
<path d="M-11.7118 386.105C0.193554 386.105 9.84473 376.453 9.84473 364.548V364.548C9.84473 352.643 0.193555 342.992 -11.7118 342.992V342.992C-23.6171 342.992 -33.2682 352.643 -33.2682 364.548V364.548C-33.2682 376.453 -23.6171 386.105 -11.7118 386.105V386.105Z" fill="#F7F4F2"/>
<path d="M-11.7118 25.8035C0.193554 25.8035 9.84473 16.1523 9.84473 4.24698V4.24698C9.84473 -7.65833 0.193555 -17.3095 -11.7118 -17.3095V-17.3095C-23.6171 -17.3095 -33.2682 -7.65833 -33.2682 4.24698V4.24698C-33.2682 16.1523 -23.6171 25.8035 -11.7118 25.8035V25.8035Z" fill="#F7F4F2"/>
<path d="M-11.7121 293.72C-23.6174 293.72 -33.2686 284.069 -33.2686 272.163V272.163C-33.2686 260.258 -23.6174 250.607 -11.7121 250.607V250.607C0.193245 250.607 9.84442 260.258 9.84442 272.163V272.163C9.84442 284.069 0.193246 293.72 -11.7121 293.72V293.72Z" fill="#F7F4F2"/>
<path d="M-11.7121 247.527C-23.6174 247.527 -33.2686 237.876 -33.2686 225.971V225.971C-33.2686 214.065 -23.6174 204.414 -11.7121 204.414V204.414C0.193244 204.414 9.84442 214.065 9.84442 225.971V225.971C9.84442 237.876 0.193245 247.527 -11.7121 247.527V247.527Z" fill="#F7F4F2"/>
<rect x="665" width="791" height="683" fill="url(#paint0_linear_450_9895)"/>
<rect y="528" width="1456" height="155" fill="url(#paint1_linear_450_9895)"/>
<rect width="1456" height="204" fill="url(#paint2_linear_450_9895)"/>
<rect width="290.189" height="683" fill="url(#paint3_linear_450_9895)"/>
</g>
<defs>
<linearGradient id="paint0_linear_450_9895" x1="1456" y1="341.5" x2="665" y2="341.5" gradientUnits="userSpaceOnUse">
<stop stop-color="white" stop-opacity="0"/>
<stop offset="1" stop-color="white"/>
</linearGradient>
<linearGradient id="paint1_linear_450_9895" x1="728" y1="528" x2="728" y2="683" gradientUnits="userSpaceOnUse">
<stop stop-color="white" stop-opacity="0"/>
<stop offset="1" stop-color="white"/>
</linearGradient>
<linearGradient id="paint2_linear_450_9895" x1="728" y1="0" x2="728" y2="204" gradientUnits="userSpaceOnUse">
<stop stop-color="white"/>
<stop offset="1" stop-color="white" stop-opacity="0"/>
</linearGradient>
<linearGradient id="paint3_linear_450_9895" x1="290.189" y1="341.5" x2="0" y2="341.5" gradientUnits="userSpaceOnUse">
<stop stop-color="white"/>
<stop offset="1" stop-color="white" stop-opacity="0"/>
</linearGradient>
<clipPath id="clip0_450_9895">
<rect width="1456" height="683" fill="white"/>
</clipPath>
</defs>
</svg>
