<svg width="18" height="18" viewBox="0 0 18 18" fill="none" xmlns="http://www.w3.org/2000/svg">
<path d="M7.48652 1.44759C8.0822 0.156141 9.91768 0.156141 10.5134 1.44759L11.9008 4.45551C12.1436 4.98185 12.6424 5.34425 13.218 5.4125L16.5074 5.80252C17.9197 5.96997 18.4869 7.71561 17.4428 8.68123L15.0108 10.9302C14.5852 11.3238 14.3947 11.9102 14.5077 12.4787L15.1532 15.7276C15.4304 17.1226 13.9455 18.2015 12.7045 17.5068L9.81401 15.8888C9.30822 15.6057 8.69166 15.6057 8.18587 15.8888L5.29542 17.5068C4.0544 18.2015 2.56947 17.1226 2.84665 15.7276L3.49221 12.4787C3.60518 11.9102 3.41465 11.3238 2.98909 10.9302L0.557128 8.68123C-0.487038 7.71561 0.0801556 5.96997 1.49248 5.80252L4.78191 5.4125C5.35751 5.34425 5.85632 4.98185 6.0991 4.4555L7.48652 1.44759Z" fill="#E8DDD9"/>
</svg>
