<svg width="16" height="20" viewBox="0 0 16 20" fill="none" xmlns="http://www.w3.org/2000/svg">
<path fill-rule="evenodd" clip-rule="evenodd" d="M10.2609 0.0849376C9.96037 0.028807 9.65324 0 9.34315 0H5C2.23858 0 0 2.23858 0 5V15C0 17.7614 2.23858 20 5 20H11C13.7614 20 16 17.7614 16 15V6.65685C16 6.34676 15.9712 6.03963 15.9151 5.73905C15.8867 5.76926 15.8578 5.79906 15.8284 5.82843C15.3319 6.32492 14.7135 6.68197 14.0353 6.8637C13.3571 7.04543 12.6429 7.04543 11.9647 6.8637C11.2865 6.68197 10.6681 6.32492 10.1716 5.82843C9.67508 5.33193 9.31803 4.7135 9.1363 4.03528C8.95457 3.35705 8.95457 2.64295 9.1363 1.96472C9.31803 1.2865 9.67508 0.668065 10.1716 0.171573C10.2009 0.142204 10.2307 0.113323 10.2609 0.0849376ZM7 11.9995H5V9.99951H7V7.99951H9V9.99951H11V11.9995H9V13.9995H7V11.9995Z" fill="#E48A39"/>
<path d="M14.9215 3.5549C14.8019 3.40377 14.6732 3.25894 14.5355 3.12132L12.8787 1.46447C12.7411 1.32684 12.5962 1.19807 12.4451 1.07852C12.1206 1.17223 11.8249 1.34666 11.5858 1.58579C11.3375 1.83403 11.159 2.14325 11.0681 2.48236C10.9773 2.82147 10.9773 3.17853 11.0681 3.51764C11.159 3.85675 11.3375 4.16597 11.5858 4.41421C11.834 4.66246 12.1433 4.84099 12.4824 4.93185C12.8215 5.02272 13.1785 5.02272 13.5176 4.93185C13.8567 4.84099 14.166 4.66246 14.4142 4.41421C14.6533 4.17509 14.8278 3.87939 14.9215 3.5549Z" fill="#E48A39"/>
</svg>
