<svg width="60" height="60" viewBox="0 0 60 60" fill="none" xmlns="http://www.w3.org/2000/svg">
<path d="M27.5 27.5C27.5 26.1193 28.6193 25 30 25C31.3807 25 32.5 26.1193 32.5 27.5C32.5 28.8807 31.3807 30 30 30C28.6193 30 27.5 28.8807 27.5 27.5Z" fill="#ACA9A5"/>
<path fill-rule="evenodd" clip-rule="evenodd" d="M31.7678 54.2678L44.0901 41.9454C47.8797 38.1559 50 32.9689 50 27.6253C50 16.6028 41.0688 7.5 30 7.5C18.9312 7.5 10 16.6028 10 27.6253C10 32.9689 12.1203 38.1559 15.9099 41.9454L28.2322 54.2678C29.2085 55.2441 30.7915 55.2441 31.7678 54.2678ZM30 20C25.8579 20 22.5 23.3579 22.5 27.5C22.5 31.6421 25.8579 35 30 35C34.1421 35 37.5 31.6421 37.5 27.5C37.5 23.3579 34.1421 20 30 20Z" fill="#ACA9A5"/>
</svg>
