<svg width="20" height="20" viewBox="0 0 20 20" fill="none" xmlns="http://www.w3.org/2000/svg">
<path fill-rule="evenodd" clip-rule="evenodd" d="M1.6665 10.0001C1.6665 5.39771 5.39746 1.66675 9.99984 1.66675C14.6022 1.66675 18.3332 5.39771 18.3332 10.0001C18.3332 14.6025 14.6022 18.3334 9.99984 18.3334C5.39746 18.3334 1.6665 14.6025 1.6665 10.0001ZM7.08317 9.16675C7.77353 9.16675 8.33317 8.6071 8.33317 7.91675C8.33317 7.22639 7.77353 6.66675 7.08317 6.66675C6.39281 6.66675 5.83317 7.22639 5.83317 7.91675C5.83317 8.6071 6.39281 9.16675 7.08317 9.16675ZM14.1665 7.91675C14.1665 8.6071 13.6069 9.16675 12.9165 9.16675C12.2261 9.16675 11.6665 8.6071 11.6665 7.91675C11.6665 7.22639 12.2261 6.66675 12.9165 6.66675C13.6069 6.66675 14.1665 7.22639 14.1665 7.91675ZM9.99984 10.8334C9.12215 10.8334 8.25993 11.0644 7.49984 11.5033C6.73974 11.9421 6.10855 12.5733 5.66971 13.3334L7.11309 14.1667C7.40565 13.66 7.82644 13.2392 8.33317 12.9467C8.8399 12.6541 9.41471 12.5001 9.99984 12.5001C10.585 12.5001 11.1598 12.6541 11.6665 12.9467C12.1732 13.2392 12.594 13.66 12.8866 14.1667L14.33 13.3334C13.8911 12.5733 13.2599 11.9421 12.4998 11.5033C11.7397 11.0644 10.8775 10.8334 9.99984 10.8334Z" fill="#C9C7C5"/>
</svg>
