<svg width="15" height="4" viewBox="0 0 15 4" fill="none" xmlns="http://www.w3.org/2000/svg">
<path d="M2.26406 0.450928C1.39524 0.450928 0.690918 1.15525 0.690918 2.02407C0.690918 2.8929 1.39524 3.59722 2.26406 3.59722C3.13289 3.59722 3.83721 2.8929 3.83721 2.02407C3.83721 1.15525 3.13289 0.450928 2.26406 0.450928Z" fill="#C9C7C5"/>
<path d="M6.19692 2.02407C6.19692 1.15525 6.90125 0.450928 7.77007 0.450928C8.63889 0.450928 9.34321 1.15525 9.34321 2.02407C9.34321 2.8929 8.63889 3.59722 7.77007 3.59722C6.90125 3.59722 6.19692 2.8929 6.19692 2.02407Z" fill="#C9C7C5"/>
<path d="M11.7029 2.02407C11.7029 1.15525 12.4073 0.450928 13.2761 0.450928C14.1449 0.450928 14.8492 1.15525 14.8492 2.02407C14.8492 2.8929 14.1449 3.59722 13.2761 3.59722C12.4073 3.59722 11.7029 2.8929 11.7029 2.02407Z" fill="#C9C7C5"/>
</svg>
