<svg width="20" height="20" viewBox="0 0 20 20" fill="none" xmlns="http://www.w3.org/2000/svg">
<path fill-rule="evenodd" clip-rule="evenodd" d="M0 10C0 4.47715 4.47715 0 10 0C15.5228 0 20 4.47715 20 10C20 15.5228 15.5228 20 10 20C4.47715 20 0 15.5228 0 10ZM10 16C8.6792 16 7.3953 15.5642 6.34743 14.7601C5.29957 13.9561 4.5463 12.8287 4.20445 11.5529L6.1363 11.0353C6.3642 11.8858 6.86638 12.6374 7.56495 13.1734C8.26353 13.7095 9.11946 14 10 14C10.8805 14 11.7365 13.7094 12.435 13.1734C13.1336 12.6374 13.6358 11.8858 13.8637 11.0353L15.7956 11.5529C15.4537 12.8287 14.7004 13.9561 13.6526 14.7601C12.6047 15.5642 11.3208 16 10 16ZM5.54329 6.1903C5.84661 6.06466 6.1717 6 6.5 6C6.8283 6 7.15339 6.06466 7.45671 6.1903C7.76002 6.31594 8.03562 6.50009 8.26777 6.73223C8.49991 6.96438 8.68406 7.23998 8.8097 7.54329C8.93534 7.84661 9 8.1717 9 8.5H7C7 8.43434 6.98707 8.36932 6.96194 8.30866C6.93681 8.248 6.89998 8.19288 6.85355 8.14645C6.80712 8.10002 6.752 8.06319 6.69134 8.03806C6.63068 8.01293 6.56566 8 6.5 8C6.43434 8 6.36932 8.01293 6.30866 8.03806C6.248 8.06319 6.19288 8.10002 6.14645 8.14645C6.10002 8.19288 6.06319 8.248 6.03806 8.30866C6.01293 8.36932 6 8.43434 6 8.5H4C4 8.1717 4.06466 7.84661 4.1903 7.54329C4.31594 7.23998 4.50009 6.96438 4.73223 6.73223C4.96438 6.50009 5.23998 6.31594 5.54329 6.1903ZM13.5 6C13.1717 6 12.8466 6.06466 12.5433 6.1903C12.24 6.31594 11.9644 6.50009 11.7322 6.73223C11.5001 6.96438 11.3159 7.23998 11.1903 7.54329C11.0647 7.84661 11 8.1717 11 8.5H13C13 8.43434 13.0129 8.36932 13.0381 8.30866C13.0632 8.248 13.1 8.19288 13.1464 8.14645C13.1929 8.10002 13.248 8.06319 13.3087 8.03806C13.3693 8.01293 13.4343 8 13.5 8C13.5657 8 13.6307 8.01293 13.6913 8.03806C13.752 8.06319 13.8071 8.10002 13.8536 8.14645C13.9 8.19288 13.9368 8.248 13.9619 8.30866C13.9871 8.36932 14 8.43434 14 8.5H16C16 8.1717 15.9353 7.84661 15.8097 7.54329C15.6841 7.23998 15.4999 6.96438 15.2678 6.73223C15.0356 6.50009 14.76 6.31594 14.4567 6.1903C14.1534 6.06466 13.8283 6 13.5 6Z" fill="#ACA9A5"/>
</svg>
