<svg width="27" height="27" viewBox="0 0 27 27" fill="none" xmlns="http://www.w3.org/2000/svg">
<rect x="0.887207" y="0.901855" width="25.1703" height="25.1703" rx="12.5852" fill="#FB8728"/>
<path fill-rule="evenodd" clip-rule="evenodd" d="M9.64188 15.836C10.7408 14.9927 12.0873 14.5356 13.4726 14.5356C14.8578 14.5356 16.2043 14.9927 17.3032 15.836C18.4022 16.6792 19.1922 17.8616 19.5507 19.1996C19.7006 19.7591 19.3686 20.3341 18.8091 20.4841C18.2497 20.634 17.6746 20.3019 17.5247 19.7425C17.2857 18.8505 16.759 18.0622 16.0263 17.5001C15.2937 16.9379 14.396 16.6332 13.4726 16.6332C12.5491 16.6332 11.6514 16.9379 10.9188 17.5001C10.1861 18.0622 9.65946 18.8505 9.42045 19.7425C9.27054 20.3019 8.69546 20.634 8.13598 20.4841C7.5765 20.3341 7.24448 19.7591 7.39439 19.1996C7.75291 17.8616 8.54292 16.6792 9.64188 15.836Z" fill="#9A3412"/>
<path fill-rule="evenodd" clip-rule="evenodd" d="M7.17962 8.24316C7.75884 8.24316 8.22839 8.71271 8.22839 9.29193V12.4382C8.22839 13.0174 7.75884 13.487 7.17962 13.487C6.60041 13.487 6.13086 13.0174 6.13086 12.4382V9.29193C6.13086 8.71271 6.60041 8.24316 7.17962 8.24316Z" fill="#9A3412"/>
<path fill-rule="evenodd" clip-rule="evenodd" d="M19.7646 8.24316C20.3438 8.24316 20.8133 8.71271 20.8133 9.29193V12.4382C20.8133 13.0174 20.3438 13.487 19.7646 13.487C19.1854 13.487 18.7158 13.0174 18.7158 12.4382V9.29193C18.7158 8.71271 19.1854 8.24316 19.7646 8.24316Z" fill="#9A3412"/>
</svg>
