<svg width="26" height="27" viewBox="0 0 26 27" fill="none" xmlns="http://www.w3.org/2000/svg">
<rect x="0.462891" y="0.901855" width="25.1703" height="25.1703" rx="12.5852" fill="#E48A39"/>
<path fill-rule="evenodd" clip-rule="evenodd" d="M19.3403 8.24316C19.9195 8.24316 20.389 8.71271 20.389 9.29193L20.389 12.4382C20.389 13.0174 19.9195 13.487 19.3403 13.487C18.7611 13.487 18.2915 13.0174 18.2915 12.4382L18.2915 9.29193C18.2915 8.71271 18.7611 8.24316 19.3403 8.24316Z" fill="#A1CDD9"/>
<path fill-rule="evenodd" clip-rule="evenodd" d="M6.75531 8.24316C7.33452 8.24316 7.80407 8.71271 7.80407 9.29193L7.80407 12.4382C7.80407 13.0174 7.33452 13.487 6.75531 13.487C6.17609 13.487 5.70654 13.0174 5.70654 12.4382L5.70654 9.29193C5.70654 8.71271 6.17609 8.24316 6.75531 8.24316Z" fill="#A1CDD9"/>
<path fill-rule="evenodd" clip-rule="evenodd" d="M5.70654 17.6821C5.70654 17.1028 6.17609 16.6333 6.75531 16.6333H19.3405C19.9197 16.6333 20.3892 17.1028 20.3892 17.6821C20.3892 18.2613 19.9197 18.7308 19.3405 18.7308H6.75531C6.17609 18.7308 5.70654 18.2613 5.70654 17.6821Z" fill="#A1CDD9"/>
</svg>
