<svg width="26" height="27" viewBox="0 0 26 27" fill="none" xmlns="http://www.w3.org/2000/svg">
<rect x="0.736328" y="0.901855" width="25.1703" height="25.1703" rx="12.5852" fill="#7AA06F"/>
<path fill-rule="evenodd" clip-rule="evenodd" d="M16.7749 7.50151C17.1845 7.09194 17.8486 7.09194 18.2581 7.50151L21.4044 10.6478C21.814 11.0574 21.814 11.7214 21.4044 12.131C20.9948 12.5405 20.3308 12.5405 19.9212 12.131L16.7749 8.98469C16.3654 8.57512 16.3654 7.91108 16.7749 7.50151Z" fill="#5D2AAD"/>
<path fill-rule="evenodd" clip-rule="evenodd" d="M21.4043 7.50151C21.8138 7.91108 21.8138 8.57512 21.4043 8.98469L18.258 12.131C17.8484 12.5405 17.1844 12.5405 16.7748 12.131C16.3652 11.7214 16.3652 11.0574 16.7748 10.6478L19.9211 7.50151C20.3306 7.09194 20.9947 7.09194 21.4043 7.50151Z" fill="#5D2AAD"/>
<path fill-rule="evenodd" clip-rule="evenodd" d="M5.23882 7.50151C5.64838 7.09194 6.31242 7.09194 6.72199 7.50151L9.86828 10.6478C10.2778 11.0574 10.2778 11.7214 9.86828 12.131C9.45871 12.5405 8.79467 12.5405 8.38511 12.131L5.23882 8.98469C4.82925 8.57512 4.82925 7.91108 5.23882 7.50151Z" fill="#5D2AAD"/>
<path fill-rule="evenodd" clip-rule="evenodd" d="M9.86812 7.50151C10.2777 7.91108 10.2777 8.57512 9.86812 8.98469L6.72183 12.131C6.31226 12.5405 5.64822 12.5405 5.23865 12.131C4.82908 11.7214 4.82908 11.0574 5.23865 10.6478L8.38494 7.50151C8.79451 7.09194 9.45855 7.09194 9.86812 7.50151Z" fill="#5D2AAD"/>
<path fill-rule="evenodd" clip-rule="evenodd" d="M9.491 15.836C10.59 14.9927 11.9365 14.5356 13.3217 14.5356C14.7069 14.5356 16.0534 14.9927 17.1524 15.836C18.2513 16.6792 19.0413 17.8616 19.3998 19.1996C19.5498 19.7591 19.2177 20.3341 18.6583 20.4841C18.0988 20.634 17.5237 20.3019 17.3738 19.7425C17.1348 18.8505 16.6081 18.0622 15.8755 17.5001C15.1428 16.9379 14.2452 16.6332 13.3217 16.6332C12.3982 16.6332 11.5005 16.9379 10.7679 17.5001C10.0353 18.0622 9.50858 18.8505 9.26957 19.7425C9.11966 20.3019 8.54458 20.634 7.9851 20.4841C7.42562 20.3341 7.0936 19.7591 7.24352 19.1996C7.60204 17.8616 8.39204 16.6792 9.491 15.836Z" fill="#5D2AAD"/>
</svg>
