<svg width="26" height="27" viewBox="0 0 26 27" fill="none" xmlns="http://www.w3.org/2000/svg">
<rect x="0.160645" y="0.901855" width="25.1703" height="25.1703" rx="12.5852" fill="#F4A258"/>
<path fill-rule="evenodd" clip-rule="evenodd" d="M16.7855 9.53149C17.1672 9.37337 17.5764 9.29199 17.9896 9.29199C18.4027 9.29199 18.8119 9.37337 19.1936 9.53149C19.5753 9.68961 19.9222 9.92136 20.2143 10.2135C20.5065 10.5057 20.7382 10.8525 20.8963 11.2342C21.0545 11.616 21.1358 12.0251 21.1358 12.4383C21.1358 13.0175 20.6663 13.487 20.0871 13.487C19.5079 13.487 19.0383 13.0175 19.0383 12.4383C19.0383 12.3006 19.0112 12.1642 18.9585 12.0369C18.9058 11.9097 18.8285 11.7941 18.7311 11.6967C18.6338 11.5993 18.5181 11.5221 18.3909 11.4694C18.2637 11.4166 18.1273 11.3895 17.9896 11.3895C17.8518 11.3895 17.7154 11.4166 17.5882 11.4694C17.461 11.5221 17.3454 11.5993 17.248 11.6967C17.1506 11.7941 17.0733 11.9097 17.0206 12.0369C16.9679 12.1642 16.9408 12.3006 16.9408 12.4383C16.9408 13.0175 16.4712 13.487 15.892 13.487C15.3128 13.487 14.8433 13.0175 14.8433 12.4383C14.8433 12.0251 14.9246 11.616 15.0828 11.2342C15.2409 10.8525 15.4726 10.5057 15.7648 10.2135C16.0569 9.92136 16.4038 9.68961 16.7855 9.53149Z" fill="#3D4A26"/>
<path fill-rule="evenodd" clip-rule="evenodd" d="M18.0826 15.9286C18.6421 16.0785 18.9741 16.6536 18.8242 17.213C18.4656 18.5511 17.6756 19.7334 16.5767 20.5766C15.4777 21.4199 14.1312 21.877 12.746 21.877C11.3608 21.877 10.0143 21.4199 8.91532 20.5766C7.81635 19.7334 7.02635 18.5511 6.66783 17.213C6.51792 16.6536 6.84994 16.0785 7.40942 15.9286C7.9689 15.7787 8.54397 16.1107 8.69389 16.6702C8.9329 17.5622 9.45957 18.3504 10.1922 18.9126C10.9249 19.4747 11.8225 19.7795 12.746 19.7795C13.6695 19.7795 14.5671 19.4747 15.2998 18.9126C16.0324 18.3504 16.5591 17.5622 16.7981 16.6702C16.948 16.1107 17.5231 15.7787 18.0826 15.9286Z" fill="#3D4A26"/>
<path fill-rule="evenodd" clip-rule="evenodd" d="M6.29821 9.53149C6.67994 9.37337 7.08907 9.29199 7.50225 9.29199C7.91542 9.29199 8.32455 9.37337 8.70628 9.53149C9.08801 9.68961 9.43485 9.92136 9.72701 10.2135C10.0192 10.5057 10.2509 10.8525 10.409 11.2342C10.5672 11.616 10.6485 12.0251 10.6485 12.4383C10.6485 13.0175 10.179 13.487 9.59977 13.487C9.02056 13.487 8.55101 13.0175 8.55101 12.4383C8.55101 12.3006 8.52388 12.1642 8.47118 12.0369C8.41847 11.9097 8.34122 11.7941 8.24383 11.6967C8.14645 11.5993 8.03083 11.5221 7.90359 11.4694C7.77635 11.4166 7.63997 11.3895 7.50225 11.3895C7.36452 11.3895 7.22814 11.4166 7.1009 11.4694C6.97366 11.5221 6.85805 11.5993 6.76066 11.6967C6.66327 11.7941 6.58602 11.9097 6.53332 12.0369C6.48061 12.1642 6.45348 12.3006 6.45348 12.4383C6.45348 13.0175 5.98394 13.487 5.40472 13.487C4.8255 13.487 4.35596 13.0175 4.35596 12.4383C4.35596 12.0251 4.43734 11.616 4.59545 11.2342C4.75357 10.8525 4.98532 10.5057 5.27748 10.2135C5.56964 9.92136 5.91649 9.68961 6.29821 9.53149Z" fill="#3D4A26"/>
</svg>
