<svg width="26" height="27" viewBox="0 0 26 27" fill="none" xmlns="http://www.w3.org/2000/svg">
<rect x="0.584961" y="0.901855" width="25.1703" height="25.1703" rx="12.5852" fill="#FACC15"/>
<path fill-rule="evenodd" clip-rule="evenodd" d="M19.4623 8.24316C20.0416 8.24316 20.5111 8.71271 20.5111 9.29193L20.5111 12.4382C20.5111 13.0174 20.0416 13.487 19.4623 13.487C18.8831 13.487 18.4136 13.0174 18.4136 12.4382L18.4136 9.29193C18.4136 8.71271 18.8831 8.24316 19.4623 8.24316Z" fill="#854D0E"/>
<path fill-rule="evenodd" clip-rule="evenodd" d="M6.87738 8.24316C7.45659 8.24316 7.92614 8.71271 7.92614 9.29193L7.92614 12.4382C7.92614 13.0174 7.45659 13.487 6.87738 13.487C6.29816 13.487 5.82861 13.0174 5.82861 12.4382L5.82861 9.29193C5.82861 8.71271 6.29816 8.24316 6.87738 8.24316Z" fill="#854D0E"/>
<path fill-rule="evenodd" clip-rule="evenodd" d="M18.5069 15.9288C19.0664 16.0787 19.3984 16.6538 19.2485 17.2133C18.89 18.5513 18.1 19.7336 17.001 20.5769C15.902 21.4201 14.5555 21.8772 13.1703 21.8772C11.7851 21.8772 10.4386 21.4201 9.33963 20.5769C8.24067 19.7336 7.45067 18.5513 7.09215 17.2133C6.94224 16.6538 7.27426 16.0787 7.83374 15.9288C8.39322 15.7789 8.96829 16.1109 9.1182 16.6704C9.35722 17.5624 9.88389 18.3506 10.6165 18.9128C11.3492 19.475 12.2468 19.7797 13.1703 19.7797C14.0938 19.7797 14.9915 19.475 15.7241 18.9128C16.4567 18.3506 16.9834 17.5624 17.2224 16.6704C17.3723 16.1109 17.9474 15.7789 18.5069 15.9288Z" fill="#854D0E"/>
</svg>
