<svg width="22" height="22" viewBox="0 0 22 22" fill="none" xmlns="http://www.w3.org/2000/svg">
<path d="M9.18392 1.93672C9.89874 0.386978 12.1013 0.386978 12.8161 1.93672L14.481 5.54622C14.7724 6.17783 15.3709 6.61271 16.0617 6.69461L20.009 7.16263C21.7038 7.36357 22.3844 9.45834 21.1314 10.6171L18.2131 13.3159C17.7024 13.7881 17.4738 14.4918 17.6093 15.174L18.384 19.0728C18.7166 20.7467 16.9347 22.0414 15.4455 21.2077L11.9769 19.2662C11.37 18.9265 10.6301 18.9265 10.0231 19.2662L6.55461 21.2077C5.06538 22.0414 3.28346 20.7467 3.61607 19.0728L4.39075 15.174C4.52631 14.4918 4.29767 13.7881 3.787 13.3159L0.868652 10.6171C-0.384348 9.45834 0.296284 7.36357 1.99107 7.16263L5.93839 6.69461C6.62911 6.61271 7.22768 6.17783 7.51902 5.54622L9.18392 1.93672Z" fill="#ACA9A5"/>
</svg>
