<svg width="22" height="22" viewBox="0 0 22 22" fill="none" xmlns="http://www.w3.org/2000/svg">
<path fill-rule="evenodd" clip-rule="evenodd" d="M13.1719 1.76532C12.207 0.0925487 9.79278 0.0925486 8.82787 1.76532C8.26044 2.74902 7.10273 3.22856 6.00592 2.93421C4.14079 2.43368 2.43368 4.14079 2.93421 6.00592C3.22856 7.10273 2.74902 8.26044 1.76532 8.82787C0.0925484 9.79278 0.0925488 12.207 1.76532 13.1719C2.74902 13.7393 3.22856 14.897 2.93421 15.9939C2.43368 17.859 4.14079 19.5661 6.00592 19.0656C7.10273 18.7712 8.26044 19.2508 8.82787 20.2345C9.79278 21.9072 12.207 21.9072 13.1719 20.2345C13.7393 19.2508 14.897 18.7712 15.9939 19.0656C17.859 19.5661 19.5661 17.859 19.0656 15.9939C18.7712 14.897 19.2508 13.7393 20.2345 13.1719C21.9072 12.207 21.9072 9.79278 20.2345 8.82787C19.2508 8.26044 18.7712 7.10273 19.0656 6.00592C19.5661 4.14079 17.859 2.43368 15.9939 2.93421C14.897 3.22856 13.7393 2.74902 13.1719 1.76532ZM11.6889 13.9755L16.724 8.68961L15.2758 7.31017L10.2407 12.596C10.0023 12.8463 9.84032 12.9179 9.57117 12.9742C9.32444 13.0257 9.06813 12.9997 8.83243 12.8972C8.59608 12.7945 8.38615 12.6169 8.23493 12.3793C8.08343 12.1413 7.99989 11.8566 7.99989 11.5616H5.99989C5.99989 12.2311 6.18879 12.8893 6.5477 13.4532C6.9069 14.0176 7.42244 14.465 8.03489 14.7313C8.64798 14.9979 9.32565 15.0686 9.97999 14.9319C10.6119 14.8 11.1474 14.5439 11.6889 13.9755Z" fill="#FB8728"/>
</svg>
