<svg width="20" height="14" viewBox="0 0 20 14" fill="none" xmlns="http://www.w3.org/2000/svg">
<path d="M8 6.99951C8 5.89494 8.89543 4.99951 10 4.99951C11.1046 4.99951 12 5.89494 12 6.99951C12 8.10408 11.1046 8.99951 10 8.99951C8.89543 8.99951 8 8.10408 8 6.99951Z" fill="#C9C7C5"/>
<path fill-rule="evenodd" clip-rule="evenodd" d="M0 6.99951C0 3.13352 3.13401 -0.000488281 7 -0.000488281H13C16.866 -0.000488281 20 3.13352 20 6.99951C20 10.8655 16.866 13.9995 13 13.9995H7C3.13401 13.9995 0 10.8655 0 6.99951ZM10 2.99951C7.79086 2.99951 6 4.79037 6 6.99951C6 9.20865 7.79086 10.9995 10 10.9995C12.2091 10.9995 14 9.20865 14 6.99951C14 4.79037 12.2091 2.99951 10 2.99951Z" fill="#C9C7C5"/>
</svg>
