<svg width="20" height="20" viewBox="0 0 20 20" fill="none" xmlns="http://www.w3.org/2000/svg">
<path d="M8 9.70001C8 8.59544 8.89543 7.70001 10 7.70001C11.1046 7.70001 12 8.59544 12 9.70001C12 10.8046 11.1046 11.7 10 11.7C8.89543 11.7 8 10.8046 8 9.70001Z" fill="#C9C7C5"/>
<path fill-rule="evenodd" clip-rule="evenodd" d="M0 9.70001C0 5.83402 3.13401 2.70001 7 2.70001H13C16.866 2.70001 20 5.83402 20 9.70001C20 13.566 16.866 16.7 13 16.7H7C3.13401 16.7 0 13.566 0 9.70001ZM10 5.70001C7.79086 5.70001 6 7.49087 6 9.70001C6 11.9091 7.79086 13.7 10 13.7C12.2091 13.7 14 11.9091 14 9.70001C14 7.49087 12.2091 5.70001 10 5.70001Z" fill="#C9C7C5"/>
<rect x="2.06787" y="7.62939e-06" width="25" height="2.5" rx="1.25" transform="rotate(45 2.06787 7.62939e-06)" fill="#C9C7C5"/>
</svg>
