<svg width="24" height="24" viewBox="0 0 24 24" fill="none" xmlns="http://www.w3.org/2000/svg">
<path d="M10.1839 2.93684C10.8987 1.3871 13.1013 1.3871 13.8161 2.93684L15.481 6.54634C15.7724 7.17795 16.3709 7.61284 17.0617 7.69473L21.009 8.16275C22.7038 8.36369 23.3844 10.4585 22.1314 11.6172L19.2131 14.316C18.7024 14.7883 18.4738 15.4919 18.6093 16.1742L19.384 20.0729C19.7166 21.7468 17.9347 23.0415 16.4455 22.2079L12.9769 20.2663C12.37 19.9266 11.6301 19.9266 11.0231 20.2663L7.55461 22.2079C6.06538 23.0415 4.28346 21.7468 4.61607 20.0729L5.39075 16.1742C5.52631 15.4919 5.29767 14.7883 4.787 14.316L1.86865 11.6172C0.615652 10.4585 1.29628 8.36369 2.99107 8.16275L6.93839 7.69473C7.62911 7.61284 8.22768 7.17795 8.51902 6.54634L10.1839 2.93684Z" fill="#FACC15"/>
</svg>
