<svg width="19" height="19" viewBox="0 0 19 19" fill="none" xmlns="http://www.w3.org/2000/svg">
<path d="M0 4C0 1.79086 1.79086 0 4 0C6.20914 0 8 1.79086 8 4C8 6.20914 6.20914 8 4 8C3.487 8 2.99655 7.90343 2.54584 7.72747C2.67223 8.14976 2.82025 8.56613 2.98957 8.97489C3.64288 10.5521 4.60045 11.9852 5.80762 13.1924C7.01478 14.3996 8.44789 15.3571 10.0251 16.0104C10.4339 16.1798 10.8502 16.3278 11.2725 16.4542C11.0966 16.0035 11 15.513 11 15C11 12.7909 12.7909 11 15 11C17.2091 11 19 12.7909 19 15C19 17.2091 17.2091 19 15 19C13.0302 19 11.0796 18.612 9.25976 17.8582C7.43987 17.1044 5.78628 15.9995 4.3934 14.6066C3.00052 13.2137 1.89563 11.5601 1.14181 9.74026C0.387987 7.92037 0 5.96983 0 4Z" fill="white"/>
</svg>
