<svg width="16" height="16" viewBox="0 0 16 16" fill="none" xmlns="http://www.w3.org/2000/svg">
<path d="M3 5.99976C4.65685 5.99976 6 4.65661 6 2.99976C6 1.3429 4.65685 -0.000244141 3 -0.000244141C1.34315 -0.000244141 0 1.3429 0 2.99976C0 4.65661 1.34315 5.99976 3 5.99976Z" fill="white"/>
<path d="M13 15.9995C14.6569 15.9995 16 14.6564 16 12.9995C16 11.3427 14.6569 9.99951 13 9.99951C11.3431 9.99951 10 11.3427 10 12.9995C10 14.6564 11.3431 15.9995 13 15.9995Z" fill="white"/>
<path d="M13 5.99976C11.3431 5.99976 10 4.65661 10 2.99976C10 1.3429 11.3431 -0.000244141 13 -0.000244141C14.6569 -0.000244141 16 1.3429 16 2.99976C16 4.65661 14.6569 5.99976 13 5.99976Z" fill="white"/>
<path d="M0 12.9995C0 14.6564 1.34315 15.9995 3 15.9995C4.65685 15.9995 6 14.6564 6 12.9995C6 11.3427 4.65685 9.99951 3 9.99951C1.34315 9.99951 0 11.3427 0 12.9995Z" fill="white"/>
</svg>
