<svg width="20" height="18" viewBox="0 0 20 18" fill="none" xmlns="http://www.w3.org/2000/svg">
<path fill-rule="evenodd" clip-rule="evenodd" d="M7 3C7 1.34315 8.34315 0 10 0C11.6569 0 13 1.34315 13 3V15C13 16.6569 11.6569 18 10 18C8.34315 18 7 16.6569 7 15V3ZM17 5C15.3431 5 14 6.34315 14 8V15C14 16.6569 15.3431 18 17 18C18.6569 18 20 16.6569 20 15V8C20 6.34315 18.6569 5 17 5ZM0 12C0 10.3431 1.34315 9 3 9C4.65685 9 6 10.3431 6 12V15C6 16.6569 4.65685 18 3 18C1.34315 18 0 16.6569 0 15V12Z" fill="white"/>
</svg>
