<svg width="24" height="24" viewBox="0 0 24 24" fill="none" xmlns="http://www.w3.org/2000/svg">
<path d="M9.33333 12C9.33333 10.5272 10.5272 9.33333 12 9.33333C13.4728 9.33333 14.6667 10.5272 14.6667 12C14.6667 13.4728 13.4728 14.6667 12 14.6667C10.5272 14.6667 9.33333 13.4728 9.33333 12Z" fill="white"/>
<path fill-rule="evenodd" clip-rule="evenodd" d="M12.0006 0C10.5278 0 9.3339 1.19391 9.3339 2.66667C9.3339 3.73536 8.04161 4.27037 7.28592 3.51469C6.24453 2.47329 4.55609 2.47329 3.51469 3.51469C2.47329 4.55609 2.47329 6.24453 3.51469 7.28593C4.27022 8.04146 3.73515 9.33333 2.66667 9.33333C1.19391 9.33333 0 10.5272 0 12C0 13.4728 1.19391 14.6667 2.66667 14.6667C3.73514 14.6667 4.27027 15.9585 3.51475 16.714C2.47335 17.7554 2.47335 19.4439 3.51475 20.4853C4.55615 21.5266 6.24459 21.5267 7.28598 20.4853C8.04167 19.7296 9.3339 20.2646 9.3339 21.3333C9.3339 22.8061 10.5278 24 12.0006 24C13.4733 24 14.6672 22.8061 14.6672 21.3333C14.6672 20.2652 15.9587 19.7299 16.714 20.4853C17.7554 21.5267 19.4439 21.5267 20.4853 20.4853C21.5266 19.4439 21.5267 17.7554 20.4853 16.714C19.7297 15.9585 20.2649 14.6667 21.3333 14.6667C22.8061 14.6667 24 13.4728 24 12C24 10.5272 22.8061 9.33333 21.3333 9.33333C20.2648 9.33333 19.7298 8.04146 20.4853 7.28592C21.5267 6.24453 21.5267 4.55609 20.4853 3.51469C19.4439 2.47329 17.7555 2.47329 16.7141 3.51469C15.9587 4.27002 14.6672 3.73487 14.6672 2.66667C14.6672 1.19391 13.4733 0 12.0006 0ZM12 6.66667C9.05448 6.66667 6.66667 9.05448 6.66667 12C6.66667 14.9455 9.05448 17.3333 12 17.3333C14.9455 17.3333 17.3333 14.9455 17.3333 12C17.3333 9.05448 14.9455 6.66667 12 6.66667Z" fill="white"/>
</svg>
