<svg width="28" height="22" viewBox="0 0 28 22" fill="none" xmlns="http://www.w3.org/2000/svg">
<path d="M12.6665 12.3335C12.6665 11.5971 13.2635 11.0002 13.9998 11.0002C14.7362 11.0002 15.3332 11.5971 15.3332 12.3335C15.3332 13.0699 14.7362 13.6668 13.9998 13.6668C13.2635 13.6668 12.6665 13.0699 12.6665 12.3335Z" fill="white"/>
<path fill-rule="evenodd" clip-rule="evenodd" d="M0.666504 6.78411C0.666504 3.22153 3.55454 0.333496 7.11712 0.333496C8.39063 0.333496 9.63565 0.710457 10.6953 1.41687L12.0625 2.32836C12.7196 2.76641 13.4916 3.00016 14.2813 3.00016H20.6665C24.3484 3.00016 27.3332 5.98493 27.3332 9.66683V15.0002C27.3332 18.6821 24.3484 21.6668 20.6665 21.6668H7.33317C3.65127 21.6668 0.666504 18.6821 0.666504 15.0002V6.78411ZM13.9998 8.3335C11.7907 8.3335 9.99984 10.1244 9.99984 12.3335C9.99984 14.5426 11.7907 16.3335 13.9998 16.3335C16.209 16.3335 17.9998 14.5426 17.9998 12.3335C17.9998 10.1244 16.209 8.3335 13.9998 8.3335Z" fill="white"/>
</svg>
