<svg width="280" height="280" viewBox="0 0 280 280" fill="none" xmlns="http://www.w3.org/2000/svg">
<path d="M140 0C217.32 0 280 62.6801 280 140C280 217.32 217.32 280 140 280C62.6801 280 0 217.32 0 140C0 62.6801 62.6801 0 140 0ZM150.353 99.6592C158.858 101.938 166.374 106.961 171.734 113.946C176.073 119.6 178.803 126.284 179.687 133.296H90V143.296H179.687C178.803 150.307 176.073 156.993 171.734 162.646C166.374 169.632 158.858 174.655 150.353 176.934L152.941 186.593C163.573 183.744 172.968 177.466 179.668 168.734C186.368 160.002 190 149.303 190 138.296C190 127.289 186.368 116.59 179.668 107.858C172.968 99.1263 163.573 92.8488 152.941 90L150.353 99.6592Z" fill="white"/>
</svg>
