<svg width="248" height="302" viewBox="0 0 248 302" fill="none" xmlns="http://www.w3.org/2000/svg">
<path d="M203.616 -18.031C205.651 -9.40638 213.916 -5.31971 220.46 -9.70724C228.851 -15.3483 238.982 -7.02457 237.619 4.35793C236.549 13.2333 242.695 20.9804 250.162 20.128C259.748 19.0499 266.167 31.5857 261.049 41.3135C257.042 48.9101 260.042 58.9639 267.153 61.822C276.256 65.5075 277.893 80.0741 269.88 86.4674C263.65 91.4566 262.958 102.087 268.474 108.179C275.543 115.977 272.061 130.067 262.58 132.022C255.196 133.552 250.938 142.929 253.896 151.177C257.714 161.732 249.722 172.914 240.408 170.106C233.13 167.9 226.061 174.419 225.956 183.369C225.851 194.877 214.755 201.22 207.182 194.1C201.288 188.559 192.604 191.066 189.479 199.214C185.472 209.669 173.159 210.07 168.67 199.891C165.167 191.969 156.378 190.013 150.757 195.955C143.541 203.552 132.172 197.936 131.522 186.453C131.018 177.502 123.656 171.46 116.503 174.143C107.315 177.578 98.841 166.897 102.176 156.116C104.777 147.692 100.1 138.591 92.6321 137.563C83.088 136.234 78.9558 122.37 85.6681 114.121C90.8911 107.703 89.7165 97.0977 83.2768 92.5347C75.0123 86.668 75.9562 72.0011 84.892 67.7389C91.856 64.4044 94.3941 54.1752 90.0521 46.8543C84.4934 37.4775 90.3457 24.5406 99.9528 24.9918C107.441 25.3428 113.252 17.2197 111.762 8.41953C109.874 -2.86269 119.628 -11.8132 128.249 -6.74879C134.983 -2.78747 143.038 -7.40065 144.695 -16.1506C146.813 -27.3576 158.77 -30.8175 164.916 -21.9923C169.719 -15.0976 178.655 -15.3985 183.123 -22.594C188.891 -31.7702 200.994 -29.0876 203.616 -18.031Z" fill="#74B7C9"/>
<path d="M321.921 252.542C314.055 219.648 289.828 196.181 261.279 193.774C195.939 188.233 84.3675 186.227 60.6856 216.464C52.9454 226.342 68.7404 208.391 60.6856 216.464C24.4599 252.742 18.8174 340.744 18.8174 340.744L103.435 340.041L339.101 340.844C340.401 332.821 330.647 289.096 321.921 252.542Z" fill="#926247"/>
<path d="M211.713 157.246L205.882 135.083C210.769 136.462 216.139 135.007 220.103 130.62C226.459 123.6 226.858 111.766 220.984 104.169C215.111 96.5727 205.21 96.0964 198.855 103.116C198.477 103.543 198.12 103.969 197.785 104.42L190.905 78.2956C190.045 75.0613 187.36 73.0556 184.549 73.557C170.621 76.0391 131.731 87.6974 128.899 140.348C128.69 144.334 131.312 147.744 134.668 147.744L151.826 147.719L150.463 161.959C171.145 166.698 191.744 164.116 211.713 157.246Z" fill="#AC836C"/>
<path d="M211.713 157.246C191.764 164.141 171.145 166.698 150.483 161.96L146.414 204.506C144.358 225.942 154.805 246.651 171.9 253.596C172.697 253.922 173.515 254.223 174.333 254.524C203.951 264.803 231.073 230.781 221.802 195.606L211.713 157.246Z" fill="#926247"/>
<path d="M158.58 89.8032C150.106 95.0432 141.611 100.258 133.136 105.498C132.025 106.175 131.92 108.105 132.738 109.108C135.255 112.167 137.751 115.201 140.268 118.259C142.009 120.365 144.715 117.131 142.974 115.025C140.457 111.967 137.961 108.933 135.444 105.874C135.318 107.078 135.192 108.281 135.045 109.484C143.52 104.244 152.015 99.0296 160.489 93.7896C162.713 92.4107 160.762 88.4494 158.58 89.8032Z" fill="#74B7C9"/>
<path d="M156.168 125.305C156.399 127.662 154.091 129.818 152.287 128.489C150.169 126.96 148.239 130.921 150.358 132.451C154.448 135.434 160.573 131.172 160.028 125.305C159.902 124.077 159.231 123.024 158.098 123.024C157.154 122.999 156.063 124.052 156.168 125.305Z" fill="#74B7C9"/>
<path d="M212.426 112.444C209.133 113.773 205.84 115.101 202.546 116.43C200.218 117.383 201.225 121.795 203.574 120.843C206.867 119.514 210.161 118.185 213.454 116.856C215.782 115.929 214.775 111.491 212.426 112.444Z" fill="#74B7C9"/>
<path d="M166.069 103.518C169.739 113.421 181.192 115.953 187.926 109.084C189.813 107.153 187.087 103.919 185.22 105.849C180.185 110.989 172.005 108.231 169.404 101.211C168.397 98.5034 165.083 100.835 166.069 103.518Z" fill="#74B7C9"/>
<path d="M169.216 105.347C167.81 107.052 166.384 108.732 164.979 110.436C163.238 112.517 165.944 115.777 167.685 113.671C169.09 111.966 170.516 110.286 171.922 108.581C173.684 106.5 170.978 103.266 169.216 105.347Z" fill="#74B7C9"/>
<path d="M175.278 111.967C175.299 113.672 175.32 115.352 175.341 117.057C175.362 120.015 179.221 120.015 179.179 117.057C179.158 115.352 179.137 113.672 179.116 111.967C179.074 109.034 175.236 109.009 175.278 111.967Z" fill="#74B7C9"/>
<path d="M182.829 111.916C183.29 113.42 183.731 114.95 184.192 116.454C184.549 117.607 185.493 118.41 186.562 118.059C187.506 117.758 188.262 116.404 187.905 115.225C187.443 113.721 187.003 112.192 186.542 110.688C186.185 109.509 185.241 108.732 184.171 109.083C183.227 109.409 182.493 110.763 182.829 111.916Z" fill="#74B7C9"/>
<path d="M196.044 280.346C196.044 284.733 193.065 288.319 189.374 288.319C185.703 288.319 182.703 284.758 182.703 280.346C182.703 275.958 185.682 272.373 189.374 272.373C193.065 272.373 196.044 275.933 196.044 280.346Z" fill="#74B7C9"/>
<path d="M99.5119 255.174C78.1373 268.287 56.7627 281.399 35.3672 294.512C30.4588 297.52 25.5504 300.529 20.642 303.538C12.5872 308.502 6.04267 315.045 2.49772 325.325C-0.648687 334.426 -1.02626 346.987 2.53967 356.062C6.23146 365.464 12.3355 374.089 20.7469 377.749C28.7388 381.209 38.5975 382.513 46.4635 377.699C59.8672 369.476 73.2919 361.252 86.6956 353.004C105.973 341.17 125.25 329.361 144.527 317.527C133.493 294.361 122.544 271.12 112.202 247.402C107.965 250.01 103.728 252.592 99.5119 255.174Z" fill="#926247"/>
<path d="M165.545 304.641C173.6 299.702 180.144 293.158 183.689 282.879C186.836 273.778 187.213 261.217 183.647 252.141C179.955 242.739 173.851 234.114 165.44 230.454C157.448 226.994 164.433 213.23 156.567 218.068C147.38 223.71 121.369 241.786 112.182 247.402C122.523 271.145 133.452 294.386 144.506 317.527C146.604 316.249 148.722 314.945 150.82 313.666C155.728 310.658 160.637 307.649 165.545 304.641Z" fill="#AC836C"/>
<path d="M169.152 248.582C171.69 228.249 174.228 207.891 176.766 187.558C177.5 181.641 173.934 175.122 168.774 174.445C163.635 173.768 158.601 177.654 157.804 183.997C155.266 204.331 152.728 224.689 150.19 245.022C149.455 250.939 153.021 257.457 158.181 258.134C163.321 258.836 168.355 254.925 169.152 248.582Z" fill="#AC836C"/>
<path d="M170.075 248.881C171.984 233.512 173.914 218.118 175.823 202.749C176.955 193.623 181.025 179.232 171.564 174.193C168.229 172.413 164.118 173.14 161.16 175.597C157.489 178.63 156.923 183.194 156.315 188.158C154.406 203.552 152.476 218.921 150.567 234.314C150.379 235.769 152.245 236.37 152.413 234.916C153.965 222.506 155.497 210.095 157.049 197.685C157.427 194.701 157.783 191.718 158.161 188.759C158.496 186.077 158.58 183.143 159.734 180.711C162.104 175.747 168.061 173.867 172.047 177.126C176.808 181.037 175.843 187.28 175.109 193.172C174.375 199.114 173.62 205.081 172.886 211.023C171.334 223.433 169.802 235.819 168.25 248.229C168.04 249.734 169.886 250.335 170.075 248.881Z" fill="#74B7C9"/>
<path d="M173.746 287.167C178.088 253.997 182.43 220.802 186.772 187.632C187.548 181.716 184.024 175.172 178.843 174.445C173.704 173.718 168.649 177.579 167.81 183.922C163.468 217.092 159.126 250.286 154.784 283.456C154.008 289.373 157.532 295.917 162.713 296.644C167.852 297.371 172.907 293.51 173.746 287.167Z" fill="#AC836C"/>
<path d="M179.535 254.398C181.129 241.561 182.745 228.724 184.339 215.913C185.136 209.494 185.933 203.076 186.73 196.658C187.296 192.045 188.66 186.855 187.506 182.217C185.702 174.946 179.304 171.336 173.473 174.118C170.536 175.522 168.208 178.431 167.306 182.066C165.859 187.908 165.649 194.577 164.894 200.619C163.069 215.186 161.265 229.727 159.44 244.294C159.251 245.748 161.118 246.35 161.286 244.896C163.006 231.081 164.726 217.267 166.446 203.452C167.243 197.059 167.768 190.54 168.837 184.197C169.865 178.105 175.088 173.767 180.29 175.873C186.52 178.406 186.101 186.078 185.304 192.32C184.465 198.989 183.647 205.659 182.807 212.302C181.087 226.117 179.367 239.931 177.647 253.771C177.501 255.225 179.346 255.852 179.535 254.398Z" fill="#74B7C9"/>
<path d="M174.816 195.931C171.732 220.652 168.649 245.372 165.565 270.093C164.831 276.01 168.397 282.528 173.557 283.205C178.696 283.882 183.731 279.996 184.528 273.653C187.611 248.932 190.695 224.212 193.778 199.491C194.512 193.574 190.947 187.056 185.786 186.379C180.647 185.702 175.613 189.588 174.816 195.931Z" fill="#AC836C"/>
<path d="M183.835 286.965C187.255 259.612 190.653 232.259 194.072 204.906C194.722 199.766 195.498 194.952 192.834 190.389C190.401 186.227 186.311 184.397 182.157 185.475C172.466 187.982 173.075 202.148 171.921 211.424C170.201 225.289 168.46 239.154 166.74 253.043C166.551 254.497 168.418 255.099 168.586 253.645C169.865 243.315 171.166 232.986 172.445 222.656C173.138 217.015 173.851 211.374 174.543 205.758C175.109 201.195 175.005 194.852 177.627 191.217C181.57 185.776 188.891 186.403 191.806 192.821C194.093 197.886 192.121 204.881 191.45 210.246C189.918 222.531 188.387 234.841 186.856 247.126C185.22 260.189 183.605 273.276 181.969 286.338C181.801 287.792 183.647 288.419 183.835 286.965Z" fill="#74B7C9"/>
<path d="M267.489 256.354C288.864 269.466 310.238 282.579 331.634 295.691C336.542 298.7 341.451 301.708 346.359 304.717C354.414 309.656 360.958 316.2 364.503 326.479C367.65 335.58 368.027 348.141 364.461 357.217C360.77 366.619 354.666 375.268 346.254 378.904C338.262 382.364 328.404 383.667 320.538 378.854C307.134 370.63 293.709 362.407 280.306 354.158C261.029 342.324 241.752 330.516 222.475 318.682C233.508 295.516 244.457 272.274 254.799 248.557C259.036 251.164 263.273 253.772 267.489 256.354Z" fill="#926247"/>
<path d="M201.456 305.795C193.402 300.856 186.857 294.312 183.312 284.033C180.166 274.932 179.788 262.371 183.354 253.295C187.046 243.893 193.15 235.244 201.561 231.608C209.553 228.148 202.568 214.384 210.434 219.223C219.622 224.864 245.632 242.941 254.82 248.582C244.478 272.325 233.55 295.566 222.495 318.707C220.398 317.428 218.279 316.125 216.182 314.846C211.273 311.837 206.365 308.829 201.456 305.795Z" fill="#AC836C"/>
<path d="M197.848 249.76C195.31 229.427 192.772 209.069 190.233 188.736C189.499 182.819 193.065 176.3 198.225 175.623C203.364 174.946 208.399 178.832 209.196 185.175C211.734 205.508 214.272 225.867 216.81 246.2C217.544 252.117 213.978 258.635 208.818 259.312C203.679 259.989 198.645 256.103 197.848 249.76Z" fill="#AC836C"/>
<path d="M198.771 249.46C197.218 237.049 195.687 224.664 194.135 212.254C193.401 206.312 192.646 200.345 191.912 194.403C191.177 188.511 190.191 182.268 194.974 178.357C198.959 175.072 204.896 176.978 207.287 181.942C208.441 184.324 208.525 187.307 208.86 189.99C209.238 192.974 209.594 195.957 209.972 198.915C211.524 211.326 213.055 223.736 214.608 236.147C214.796 237.601 216.642 236.974 216.453 235.545C214.545 220.151 212.615 204.782 210.706 189.388C210.077 184.424 209.531 179.861 205.861 176.827C202.903 174.37 198.792 173.643 195.456 175.423C185.975 180.463 190.066 194.829 191.198 203.98C193.107 219.349 195.037 234.743 196.946 250.112C197.093 251.516 198.959 250.889 198.771 249.46Z" fill="#74B7C9"/>
<path d="M193.254 288.346C188.912 255.177 184.57 221.982 180.228 188.812C179.452 182.895 182.976 176.352 188.157 175.625C193.296 174.898 198.351 178.759 199.191 185.102C203.533 218.271 207.875 251.466 212.217 284.636C212.993 290.553 209.469 297.096 204.288 297.824C199.149 298.551 194.093 294.69 193.254 288.346Z" fill="#AC836C"/>
<path d="M189.311 254.95C187.591 241.136 185.871 227.321 184.151 213.482C183.354 207.063 182.557 200.645 181.76 194.227C180.963 187.808 180.186 179.685 186.689 177.053C191.576 175.072 196.967 178.958 198.058 184.85C199.233 191.318 199.736 198.063 200.533 204.606C202.253 218.421 203.973 232.235 205.693 246.05C205.882 247.504 207.728 246.877 207.539 245.448C205.945 232.611 204.33 219.775 202.736 206.963C201.939 200.545 201.142 194.126 200.344 187.708C199.82 183.571 199.149 179.986 196.317 177.228C191.367 172.389 183.857 173.693 180.564 180.337C178.592 184.323 179.054 188.235 179.599 192.597C180.396 199.015 181.193 205.434 181.99 211.852C183.815 226.419 185.619 240.96 187.444 255.527C187.633 257.031 189.5 256.404 189.311 254.95Z" fill="#74B7C9"/>
<path d="M192.185 197.111C195.269 221.831 198.352 246.552 201.435 271.273C202.17 277.19 198.604 283.708 193.444 284.385C188.304 285.062 183.27 281.176 182.473 274.833C179.39 250.112 176.306 225.392 173.223 200.671C172.489 194.754 176.054 188.236 181.215 187.559C186.354 186.882 191.388 190.768 192.185 197.111Z" fill="#AC836C"/>
<path d="M185.011 287.519C182.032 263.676 179.053 239.808 176.096 215.965C175.424 210.524 174.103 204.657 174.103 199.167C174.082 191.821 180.039 186.756 185.808 189.389C190.884 191.721 191.282 197.437 191.975 203.028C192.646 208.443 193.317 213.859 194.009 219.274C195.478 231.108 196.967 242.942 198.435 254.801C198.624 256.255 200.47 255.628 200.281 254.199C198.75 241.989 197.24 229.779 195.708 217.544C194.974 211.602 194.219 205.66 193.485 199.718C192.835 194.579 191.576 190.141 187.423 187.709C178.927 182.745 171.229 191.695 172.425 201.95C173.998 215.338 175.76 228.676 177.417 242.039C179.326 257.408 181.256 272.752 183.165 288.121C183.332 289.6 185.199 288.973 185.011 287.519Z" fill="#74B7C9"/>
<path d="M26.515 301.257C51.1408 285.563 75.7877 269.868 100.414 254.173C103.896 251.942 107.378 249.735 110.86 247.504C111.95 246.802 110.985 244.821 109.895 245.523C85.2689 261.218 60.622 276.913 35.9961 292.608C32.5141 294.839 29.0321 297.045 25.5501 299.277C24.4383 299.979 25.4242 301.959 26.515 301.257Z" fill="#74B7C9"/>
<path d="M40.9053 278.743C45.4362 280.222 49.967 281.676 54.5188 283.156C55.7144 283.532 56.2178 281.325 55.0222 280.949C50.4914 279.47 45.9606 278.016 41.4088 276.537C40.2131 276.136 39.7097 278.342 40.9053 278.743Z" fill="#74B7C9"/>
<path d="M60.3703 6.76643C59.6781 17.5974 67.2294 26.9741 76.375 25.8961C85.3108 24.818 91.3938 14.313 89.1075 3.90827C88.2684 0.122457 85.6045 -4.34029 81.9546 -1.88327C78.3048 0.573744 77.5287 7.11743 78.0321 11.5551C79.4375 23.8402 89.0026 30.1331 98.0642 33.3423C100.435 34.1947 101.441 29.7571 99.092 28.9297C93.4285 26.924 87.3664 23.9655 84.0103 17.823C82.3322 14.7392 81.3253 10.803 81.8288 7.09236C81.9336 6.36528 82.0805 5.61314 82.3112 4.9362C82.5629 4.10884 83.6327 2.12818 84.6396 2.70483C85.5625 3.23133 85.7513 7.49351 85.7513 8.2958C85.7932 15.717 80.759 21.6088 74.5501 21.4082C68.0685 21.2077 63.7474 14.1876 64.2089 6.76643C64.3977 3.83305 60.5591 3.83305 60.3703 6.76643Z" fill="#74B7C9"/>
<path d="M63.7058 181.314C68.5933 186.83 76.3544 187.858 82.0808 183.495C85.2063 181.113 87.0941 177.353 88.3946 173.316C89.6952 169.179 91.2893 163.613 89.2127 159.426C87.7654 156.493 84.3672 154.588 81.7243 156.393C79.0393 158.223 78.6618 162.36 79.5008 165.569C81.5564 173.517 89.2756 177.478 95.7572 177.077C104.966 176.5 111.93 168.176 116.901 159.652C118.306 157.22 114.992 154.939 113.587 157.346C109.958 163.563 105.259 169.681 98.9666 171.837C93.8484 173.592 87.1361 172.063 84.0736 166.421C83.5072 165.368 82.6052 163.463 82.9199 162.134C83.8428 158.198 85.7726 161.507 86.1292 162.886C86.4648 164.19 86.297 165.394 86.0663 166.697C85.437 170.458 84.1785 174.795 81.955 177.654C77.9066 182.843 70.6279 182.818 66.4117 178.03C64.6288 176.024 61.9019 179.283 63.7058 181.314Z" fill="#74B7C9"/>
<path d="M223.858 1.6007C220.376 -5.0182 220.859 -14.2195 225.872 -19.6099C230.193 -24.2481 240.534 -26.4043 244.016 -19.1586C245.191 -16.7016 244.331 -13.367 241.52 -14.0941C239.338 -14.6708 238.353 -17.3534 238.185 -19.7854C237.912 -23.5963 239.129 -27.5576 240.744 -30.7667C244.016 -37.2352 249.785 -41.6729 256.077 -42.4C258.511 -42.6757 258.532 -47.2638 256.077 -46.9881C248.379 -46.1356 241.436 -41.0461 237.43 -33.0984C234.073 -26.4544 231.787 -13.3921 239.779 -9.95731C242.59 -8.75387 245.967 -9.53109 247.603 -12.7152C249.659 -16.6765 248.106 -21.5153 245.338 -24.3233C239.443 -30.2402 230.067 -29.2875 224.215 -23.8971C217.146 -17.3785 215.887 -4.94299 220.544 3.90728C221.865 6.41444 225.18 4.10786 223.858 1.6007Z" fill="#74B7C9"/>
</svg>
